<?xml version="1.0" encoding="UTF-8"?>
<svg id="Porquin" xmlns="http://www.w3.org/2000/svg" version="1.1" viewBox="0 0 552.9 509">
  <!-- Generator: Adobe Illustrator 30.0.0, SVG Export Plug-In . SVG Version: 2.1.1 Build 123)  -->
  <defs>
    <style>
      .st0, .st1, .st2, .st3, .st4, .st5, .st6, .st7, .st8 {
        stroke-miterlimit: 10;
      }

      .st0, .st9, .st6 {
        fill: #fff;
      }

      .st0, .st2, .st8 {
        stroke-width: 7px;
      }

      .st0, .st3, .st5, .st6, .st7, .st8 {
        stroke: #191919;
        stroke-linecap: round;
      }

      .st1, .st2, .st4 {
        stroke: #000;
      }

      .st1, .st7, .st8 {
        fill: none;
      }

      .st2 {
        fill: #e1f79a;
      }

      .st2, .st4 {
        fill-rule: evenodd;
      }

      .st3 {
        fill: #0a0a0a;
      }

      .st3, .st5, .st6, .st7 {
        stroke-width: 9px;
      }

      .st4 {
        fill: #dffe35;
        stroke-width: 5px;
      }

      .st10 {
        isolation: isolate;
      }

      .st11 {
        fill: #191919;
      }
    </style>
  </defs>
  <g id="Moeda_5">
    <path class="st4" d="M122.3,284.2c0,13.8-11.2,25-25,25s-25-11.2-25-25,11.2-25,25-25,25,11.2,25,25Z"/>
    <g class="st10">
      <g class="st10">
        <g class="st10">
          <path d="M97.3,295.4c-1.4,0-2.6-.2-3.7-.7s-2-1.2-2.7-2.1-1.2-2-1.4-3.2l2.1-.4c.3,1.3,1,2.4,2.1,3.2,1.1.8,2.3,1.2,3.8,1.2s2.7-.4,3.7-1.1c.9-.7,1.4-1.7,1.4-2.9s-.3-1.6-.8-2.1-1.4-1-2.6-1.4l-4.6-1.4c-2.8-.9-4.2-2.5-4.2-5s.3-2.1.8-3,1.3-1.5,2.4-2c1-.5,2.2-.7,3.5-.7s2.5.2,3.5.7,1.9,1.2,2.6,2.1,1.1,2,1.3,3.2l-2.1.4c0-.9-.4-1.7-.9-2.3-.5-.7-1.1-1.2-1.9-1.6s-1.6-.6-2.5-.6-1.7.2-2.4.5c-.7.3-1.2.7-1.6,1.3s-.6,1.2-.6,1.9.3,1.4.8,2c.6.5,1.4,1,2.6,1.4l4,1.2c1.7.5,2.9,1.2,3.6,2s1.1,2,1.1,3.4-.3,2.3-.9,3.2c-.6.9-1.4,1.6-2.5,2.1s-2.4.8-3.8.8h-.1ZM96,274.6v-3.3h2.1v3.3h-2.1ZM96,297.8v-3.3h2.1v3.3h-2.1Z"/>
        </g>
      </g>
      <g class="st10">
        <g class="st10">
          <path class="st1" d="M97.3,295.4c-1.4,0-2.6-.2-3.7-.7s-2-1.2-2.7-2.1-1.2-2-1.4-3.2l2.1-.4c.3,1.3,1,2.4,2.1,3.2,1.1.8,2.3,1.2,3.8,1.2s2.7-.4,3.7-1.1c.9-.7,1.4-1.7,1.4-2.9s-.3-1.6-.8-2.1-1.4-1-2.6-1.4l-4.6-1.4c-2.8-.9-4.2-2.5-4.2-5s.3-2.1.8-3,1.3-1.5,2.4-2c1-.5,2.2-.7,3.5-.7s2.5.2,3.5.7,1.9,1.2,2.6,2.1,1.1,2,1.3,3.2l-2.1.4c0-.9-.4-1.7-.9-2.3-.5-.7-1.1-1.2-1.9-1.6s-1.6-.6-2.5-.6-1.7.2-2.4.5c-.7.3-1.2.7-1.6,1.3s-.6,1.2-.6,1.9.3,1.4.8,2c.6.5,1.4,1,2.6,1.4l4,1.2c1.7.5,2.9,1.2,3.6,2s1.1,2,1.1,3.4-.3,2.3-.9,3.2c-.6.9-1.4,1.6-2.5,2.1s-2.4.8-3.8.8h-.1ZM96,274.6v-3.3h2.1v3.3h-2.1ZM96,297.8v-3.3h2.1v3.3h-2.1Z"/>
        </g>
      </g>
    </g>
  </g>
  <path id="Orelha_direita" class="st6" d="M206.3,32.2c-1.7-3.5-6-11.1-14.8-16.6-8.3-5.1-16.8-6.1-22.7-5.8s-6.5,3.7-5.8,7.4c.8,3.7,1.9,9.7,2.6,15.3,1,8.2,1.1,15.5,1,21.9"/>
  <g id="Perna_Direita">
    <path class="st6" d="M186.5,297.9c-9.9,6.3-19.8,12.5-29.7,18.8,2.4,13,4.7,26.1,7,39.1,58.8,7.9,72.4,5,73.6.8,1.3-4.8-13.7-10.7-31.3-30.5-9.6-10.9-15.8-21.2-19.6-28.2h0Z"/>
    <path class="st5" d="M133,317.5c.4-1,1.8-1.3,2.6-.6,2.9,2.5,6.8,3.4,10.5,2.4,3.8-1,6.8-4,7.9-7.7.3-1.1,1.7-1.5,2.6-.8,3.2,2.7,7,6.3,10.8,11.2,5.4,7,9.4,12.2,9.8,19.4.6,9.7-5.5,22.3-16.6,25.2-12.3,3.2-22.7-7.5-23.7-8.6-9-9.6-10.4-25.5-4-40.6h0Z"/>
  </g>
  <g id="Braço_Direito">
    <path class="st9" d="M204.1,201.6c-5.1-8.2-36.6,6-60.8,19.3-5.4,3-45.2,20.4-41.3,35.9.9,3.5,3.3,1.9,15.6,14.3,10.1,10.3,11.7,15.1,16.1,15.1s1.9-6.5,12.7-16.2c8.9-8.1,16.1-7.6,19-8.4,10.9-2.9,18.3,7,23.5,3.5,4.5-3.1.4-11.9,1.2-24.6,1.5-23.3,18-32.5,14.1-38.7h0v-.2h0Z"/>
    <g>
      <path class="st3" d="M152.5,263.6c-1.7.8-3.2,1.7-4.4,2.6-9.1,6.5-13.9,18.3-20,17.2-4-.7-2-9.8-9.1-17-7.8-7.8-14.1-2.6-15.4-6.5-2.3-6.7,10.2-18.6,19.7-25.6l29.2,29.2h0Z"/>
      <path class="st7" d="M187.2,234.9c-3.1,10.8-3.4,20.3-3.1,26.6-15.2-2.9-25-1-31.6,2.1l-29.2-29.2c4.9-3.6,9.2-6.4,10.7-7.3,26.5-16.7,61.1-29.2,65.7-21.9,2.6,4.2-7,10.7-12.5,29.7h0Z"/>
    </g>
  </g>
  <g id="Corpo">
    <path class="st9" d="M168.8,101.5c1.3-22.4,14.3-44.4,32.9-56.3,27.6-17.8,64.4-11.6,87.6,3.1,31.4,19.8,24.3,44.1,59.6,110,33.2,61.9,47,69.5,53.2,110.1,1.2,8,13.6,59.7-23.6,92.9-16,14.2-33.6,18.1-43.8,20.4-41.8,9.2-77.5-8.4-108-23.5-18.6-9.2-24.8-15.1-28.2-18.8-19.5-21.2-20.2-49.1-20.4-59.5-.6-47.6,25.2-52.6,23.5-89.4-1.9-41-35.2-49.1-32.9-89h0Z"/>
    <path class="st7" d="M164.1,101.8c.6-6.8,3.5-29.1,21.9-47,23.4-22.7,53.6-20.7,59.5-20.3,3.2.2,15.8,1.2,29.7,7.8,36.2,17.1,49,55.8,86.1,131.5,34.8,71,43.9,78.7,42.3,104.9-.6,9.4-4.7,54.1-40.7,81.4-11.6,8.8-23.2,13.3-31.3,15.6"/>
    <path class="st7" d="M233,360.1c-8-1.8-23.9-6.5-36-20.4-14.7-16.8-15.2-37.1-15.6-54.8-.6-23.2,5.1-42.4,12.5-67.3,3-10,5.8-18.1,7.8-23.5"/>
  </g>
  <g id="Braço_Esquerdo">
    <path class="st9" d="M369.5,221c6,7.6-14.6,35.2-35.2,53.5-4.6,4.1-37.7,33.1-51,24.3-3-2-1.7-3.8-9.3-19.5-6.3-13-9.3-16-7.8-20.2,1.1-3.1,3.4-3.6,16.2-10.5,10.6-5.7,15.9-8.6,17.7-11.2,6.4-9.3-1.5-14.7,3.6-18.4,4.4-3.2,12.3-1.3,24.6,2.2,22.5,6.4,36.7-6.1,41.2-.3h0Z"/>
    <path class="st3" d="M267.7,262.5c-1.3,1.3-2.7,2.4-3.9,3.3-9.1,6.5-21.9,7-22.9,13-.7,4,8.6,5.2,12.9,14.3,4.7,9.9-2.2,14.1,1,16.7,5.5,4.4,20.9-3.4,30.7-10l-17.8-37.3h0Z"/>
    <path class="st8" d="M302.3,226.6s.2,2.1,0,6.8c-.3,7.2-26.6,22.6-29.2,23.7,7.3,15.2,11.7,25.5,19,40.7,8.2-1.9,13.1-1.7,17-3.9,3.1-1.8,5.9-3.9,11.5-8.1,3.1-2.3,6.6-5,11-8.6,8.1-6.8,13.6-12.6,17.2-16.4,5.9-6.3,9-9.5,12.3-14.6,1.9-2.9,1-2.1,5.2-9.1,2.6-4.4,4-6.4,4.4-9.6.4-2.6,0-4.8-.3-6.3"/>
  </g>
  <g id="Cabeça_e_nariz">
    <path class="st0" d="M353.5,157.9c-6.5-13.3-13.3-30-22.3-48.7-2.1-4.5-8.5-17-22.3-32.9-21.3-24.5-38.6-44.3-66.9-49.3-28.6-5-64,5.8-81,31.7-7.4,11.3-9.1,22-10.6,31.7-1.6,10.1-7.6,49.2,18.8,78.7,16.2,18.1,36.9,23.8,47,25.8"/>
    <g>
      <ellipse class="st6" cx="164.6" cy="132.4" rx="29.9" ry="28.2"/>
      <ellipse class="st11" cx="153" cy="129.5" rx="7.6" ry="4.1" transform="translate(8.7 268.6) rotate(-84.2)"/>
      <ellipse class="st11" cx="172.2" cy="132.8" rx="7.6" ry="4.3" transform="translate(22.7 290.7) rotate(-84.2)"/>
    </g>
  </g>
  <path id="Orelha_esquerda" class="st6" d="M266.2,61.9c4.2-2.8,9.8-7.2,14.1-14.1,9.9-15.7,8.4-22,13.1-23.7,6.8-2.4,27.4,15.6,25.7,46-1.2,21.5-14.9,36.2-20,41.1"/>
  <g id="Boca">
    <path class="st7" d="M165.7,160.6c5.2,2,17.8,6,33.7,3.1s26.3-11.1,30.5-14.9"/>
    <path class="st7" d="M226,139.4c0,1.1.2,5.7,3.9,9.4s11,4,11.7,3.9"/>
  </g>
  <circle id="Olho_esquerdo" class="st11" cx="235.1" cy="93.6" r="8.4"/>
  <circle id="Olho_Direito" class="st11" cx="177.4" cy="85.4" r="8.4"/>
  <path id="Rabo" class="st11" d="M419.2,298.6c-4.4,0-9-.5-13.7-1.5-2.8-.6-4.6-3.3-4-6.1s3.3-4.6,6.1-4c8.3,1.7,15.8,1.6,21.9.2-7.8-7.8-12.3-19.2-8-28.8,3.2-7.1,11.8-13.7,20.2-11.9,4.4.9,8.4,4.2,11.1,9.1,4,7.2,5,16.8,2.5,23.9-1,2.7-2.5,5.1-4.4,7.3,2,.2,4.4,0,6.8-.6,4.7-1.3,7.8-4.1,9.6-6.2,1.9-2.1,5.1-2.4,7.2-.5s2.4,5.1.5,7.2c-2.7,3.2-7.5,7.4-14.6,9.4-8.8,2.5-16.5.2-20.5-1.6-5.9,2.6-13,4-20.7,4h0ZM438.9,256.6c-2.7,0-6.6,2.9-8,6.1-2.8,6.2,2.4,15.2,9.2,20.1,2.7-1.9,4.6-4.2,5.5-6.7,1.5-4.3.8-10.8-1.8-15.4-1.3-2.3-2.8-3.8-4.2-4.1h-.7Z"/>
  <g id="Perna_esquerda">
    <path class="st6" d="M302.8,331.7c-12,5.7-24,11.5-36,17.2,1.4,6.9,1.6,12.8,7,24.1,3.1,6.5,3.3,9.6,5,10.7.8.5,1.7.4,2.3.4,54.4-.2,84.1-25.7,84.1-25.7,4.8-4.1,11.3-10.4,17.7-19.4"/>
    <path class="st5" d="M246.1,345.4c.4-1,1.8-1.3,2.6-.6,2.9,2.5,6.8,3.4,10.5,2.4,3.8-1,6.8-4,7.9-7.7.3-1.1,1.7-1.5,2.6-.8,3.2,2.7,7,6.3,10.8,11.2,5.4,7,9.4,12.2,9.8,19.4.5,9.7-5.5,22.3-16.6,25.2-12.3,3.2-22.7-7.5-23.7-8.6-9-9.6-10.4-25.5-4-40.6h.1Z"/>
  </g>
  <g id="Caixa1">
    <g>
      <path class="st2" d="M253.5,504.3c-2-50.3-4-100.7-6-151-40.7-.7-81.3-1.3-122-2,2.7,51.3,5.3,102.7,8,154,40-.3,80-.7,120-1Z"/>
      <path class="st2" d="M121.6,351.4c-39.3-1.7-78.7-3.4-118-5.1,1.3,50.6,2.7,101.3,4,151.9,40.3,2.4,80.7,4.7,121,7.1-2.3-51.3-4.7-102.6-7-153.9Z"/>
      <path class="st2" d="M77.6,356.5v46c0,4.1-3.6,7.2-7.7,6.5-6.2-1-12.4-1.9-18.6-2.9-3.3-.5-5.7-3.4-5.6-6.7.3-14.8.5-29.5.8-44.3,0-3.8,3.3-6.7,7.1-6.5,6,.4,11.9.8,17.9,1.1,3.5.2,6.2,3.1,6.2,6.6h0v.2h0Z"/>
    </g>
    <g class="st10">
      <g class="st10">
        <g class="st10">
          <path d="M57.1,422c3,.8,5.4,2.9,5.9,5.4.5,2.4-.4,4.8-2.6,7.2-1.3,1.4-2.6,2.4-4.7,3.6-2.7,1.6-5.2,2.6-9.2,3.7-.6.2-1.1.3-1.1.3,0,0,.5,1.9,1.2,3.4,1.2,2.8,2.4,4.8,3.7,6,.8.8,2.1,1.5,3.6,2,1.4.5.2,2.9-1.4,2.3-1.8-.7-3.3-1.7-4.3-2.6-1.8-1.8-3.6-4.9-5-8.9-.3-.8-.4-1-.4-.9s-1.1,2.4-3.2,7.2c-.5,1.2-1.1,2.4-1.2,2.5-.5.6-1.3.8-1.9.3-.3-.3-.5-.8-.4-1.3s5.1-11.7,6.9-15.5c1.2-2.6,4.7-9.8,5.5-11.4,0-.1,0-.2-.2-.3-.5-.4-.6-1.1-.3-1.5s.5-.6,1.3-.9c1.7-.6,4.1-.9,5.8-.8.6,0,1.2.1,1.7.3h.3ZM56.5,424.5c-.6-.2-1.2-.3-1.6-.3-.7,0-1.8,0-2.5.2-.5,0-.5.1-.6.3,0,.1,0,.3-.2.4l-.6,1.2c-.3.5-1.2,2.4-2.1,4.2-1.3,2.7-4.3,8.9-4.3,9,0,0,.2,0,1.6-.4,2.7-.8,4.6-1.4,6.3-2.3,4.5-2.2,7.7-5.4,7.9-7.8,0-.9,0-1.4-.4-2.1s-1.2-1.4-2.1-2c-.3-.2-.9-.4-1.5-.5h0Z"/>
        </g>
      </g>
      <g class="st10">
        <g class="st10">
          <path d="M67.9,443c.2,0,.5.2.7.3,1.5.8,2.2,2.2,2.2,4.2s-.5,2.4-1,3.3c-1,1.7-2.7,3.6-4.3,4.6-1.8,1.1-3.9,1.3-5.4.4-1.3-.7-2-2.3-1.9-4.1,0-.9.2-1.7.6-2.9.8-2.6,2.1-4.7,3.6-5.8,1.6-1.1,2.8-1.3,3.3-.4q0,.2.7.2c.6,0,1.1,0,1.5.1h0ZM67.1,445.5c-.4-.1-.9,0-1.6,0-.7.1-1.2.4-1.7.8-.5.4-.8.6-1.2.6s-.3,0-.4.2c-.5.9-.6,1.2-1,2.5-.5,1.6-.5,2.1-.4,2.9,0,1,.7,1.4,1.8,1.2,1.5-.2,3.7-2.1,4.8-4.1.4-.7.7-1.9.7-2.5,0-.9-.4-1.4-1-1.6h0Z"/>
          <path d="M72.9,459.1c-1.9-1-2.9-2.4-2.8-4,0-1.4,5.2-11.4,7.9-15.9,1.7-2.9,2.2-3.4,2.9-3.5.4,0,1,.2,1.2.4.5.6.3,1.1-.5,2.3-1.1,1.6-7.1,12.8-8,14.6-.5,1.1-.9,2.2-.9,2.6s.6.9,1.4,1.3c.5.3.7.3,1.4.4,1.4.2,1.8.4,2.1.6.7.7.4,1.8-.7,2-1,.2-2.9-.2-4-.7h0Z"/>
          <path d="M92.2,460.6c.2.3.3.6.2.9-.2.6-1.1,1.1-2.9,1.4-2.3.4-4.8.6-6,.5-.7,0-1.6-.4-2.1-.6-.6-.3-1-.7-1.4-1.3-.6-.9-.7-2-.4-3.4.5-2.9,3.3-6.2,6.8-8.2.7-.4.8-.5.9-.7.2-.5.9-.8,1.8-.7.3,0,.5,0,.7.1.4.1.7.3,1,.5.9.8,1.2,1.8.9,3-.3.9-.8,1.6-1.6,2.4-.9.9-1.7,1.4-4.9,2.9-3,1.5-2.9,1.4-3,1.6,0,.3,0,1,0,1.3.4.8,1.4.9,4.1.6,1.6-.2,2.8-.4,3.9-.7,1.1-.3,1.6-.2,2,.3h0ZM85.2,453.8c-.5.5-1.4,1.5-1.4,1.6,0,0,.7-.3,1.8-.8.6-.3,1.3-.7,1.6-.9,1-.6,1.8-1.5,1.9-2.1v-.2l-.4.2c-1,.4-2.4,1.4-3.5,2.3h0ZM91,447.5c-.7.4-1.3.2-1.4-.4,0-.5,0-.7,1.1-1.3.8-.5,1.3-.6,1.6-.5.2,0,.6.4.7.7,0,.2.2,2.3.2,2.7s-.3.5-.6.6c-.3,0-.6,0-.8-.3-.2-.2-.3-.7-.4-1.2v-.3s0,0-.3.1h0Z"/>
        </g>
      </g>
    </g>
  </g>
  <g id="Caixa_2">
    <g>
      <path class="st2" d="M549.3,441.7c-2-50.3-4-100.7-6-151-40.7-.7-81.3-1.3-122-2,2.7,51.3,5.3,102.7,8,154,40-.3,80-.7,120-1Z"/>
      <path class="st2" d="M417.4,288.8c-39.3-1.7-78.7-3.4-118-5.1,1.3,50.6,2.7,101.3,4,151.9,40.3,2.4,80.7,4.7,121,7.1-2.3-51.3-4.7-102.6-7-153.9Z"/>
      <path class="st2" d="M373.4,293.9v46c0,4.1-3.6,7.2-7.7,6.5-6.2-1-12.4-1.9-18.6-2.9-3.3-.5-5.7-3.4-5.6-6.7.3-14.8.5-29.5.8-44.3,0-3.8,3.3-6.7,7.1-6.5,6,.4,11.9.8,17.9,1.1,3.5.2,6.2,3.1,6.2,6.6h0v.2h0Z"/>
    </g>
    <g class="st10">
      <g class="st10">
        <g class="st10">
          <path d="M451.5,389.2c-.5,0-1.2-.4-1.6-.9-.9-1-1.5-2.2-2.5-5.5-1.2-3.9-2.3-8.9-3.3-14.9-.4-2.3-1.2-8.6-1.3-9.2,0-.6,0-.9.4-1.2.6-.5,1.4-.4,1.9.2q.2.3.3.9c0,.9.9,6.9,1.2,8.8,1,6.3,2.4,12.5,3.6,15.9.5,1.4,1,2.5,1.2,2.9q.1.2.3,0s.3-.5.4-.9c1-2.4,2-8.4,4.2-25.5.5-3.5.6-4.2.9-4.7s.6-.7,1-.7.7.2,1,.5c.2.4.2.8,0,2.2,0,.7-.4,2.9-.7,5-2.5,18.9-3.4,23.7-5,25.7-.6.7-1.4,1.2-2.2,1.1h0l.2.3Z"/>
        </g>
      </g>
      <g class="st10">
        <g class="st10">
          <path d="M462.3,366.2c.3-.1.7,0,1.1.1.5.3.7,1,.6,1.6-.2.6-.8,1-1.4.9s-1.1-.7-1.1-1.3.4-1.1.9-1.3h-.1ZM462.7,369.3c.4-.1.5-.1.8,0,.6.2,1,.8,1,1.5v1c0,.3,0,1.6.1,2.8.1,2.9.3,4.9.5,6.5.2,1.8.2,2.2-.3,2.6-.3.3-.6.3-.9.3s-.4-.1-.5-.2c-.2-.2-.3-.2-.5-.9-.4-1.1-.6-3-.8-7.1,0-1.3-.1-2.9-.2-3.7v-1.7c0-.5.4-.8.9-1h-.1Z"/>
          <path d="M473.9,367.6h.9c.5.1,1.2.6,1.6,1.1s.7,1.8.8,2.8c0,.5,0,.7.1.8.2.3.2.7.2,1.4-.1,1,0,1.6.1,2.8.2,1.3.5,1.9,1,2.6.4.5.5.9.3,1.3-.3.6-.8.9-1.5.7-1-.2-1.7-1.3-2.1-3.1v-.6c-.1,0-1.2,1.7-1.2,1.7-1.4,2.3-2.2,3.2-3.1,3.6-.5.2-.6.3-1,.3-1.5,0-2.6-1.4-2.6-3.5,0-3.4,1.9-8.2,4.4-10.5.7-.7,1.5-1.1,2.2-1.2h0v-.2ZM474.2,370.2c-.3,0-1.4,1.2-2,2.2-1.4,2.1-2.5,5.5-2.2,7.3q0,.5.2.3l.5-.5c.5-.7,1.2-1.7,2.6-4.2l1.4-2.4v-.9c0-1.1-.2-1.8-.4-1.8h-.1Z"/>
          <path d="M485.8,364.6c.7-.1,1.4,0,2,.4.3.2.7.4.8.4.2,0,.4.2.6.4l.3.4.2,1.4c.5,3.4.6,4,.7,5.2.5,5.8-1.8,15-4,17.5-1.2,1.4-3,2.9-4.6,3-1.2.1-1.9-.4-2.1-1.4-.2-1.1.8-1.9,1.8-1.4.3.1.4.2.7,0,2.9-1,5.5-9.6,5.6-13.9v-3.4.2c-.7,1.6-1.7,3.4-2.4,4.2-.5.6-1.2,1.1-1.7,1.4-.8.4-1.8.2-2.5-.4-.5-.4-.8-.9-1-1.8-.4-2,.2-5.2,1.7-8.1.8-1.5,1.9-3.1,2.7-3.7.4-.3.8-.5,1.2-.6h0v.2ZM486.3,367.1c-.3,0-1.5,1.7-2.1,3-1,2-1.6,4.6-1.4,6,0,.6.1.6.5.2.9-1,1.9-3,2.6-5.3.4-1.2.9-3.3.9-3.4,0-.2-.3-.5-.4-.5h-.1Z"/>
          <path d="M496.9,360.5h1.1c1.2.2,2,.9,2.2,2.2.2.9.1,1.8-.2,2.8-.4,1.2-.8,2-2.8,5-1.9,2.8-1.8,2.7-1.8,2.9,0,.3.5.9.8,1.1.7.5,1.7,0,3.9-1.5,1.3-1,2.2-1.7,3-2.5s1.3-1,1.9-.8c.4.2.5.4.6.7.1.6-.4,1.4-1.8,2.6-1.8,1.5-3.9,3-4.9,3.4-.7.3-1.6.5-2.2.5s-1.3-.1-1.9-.4c-.9-.5-1.6-1.4-2.1-2.7-1-2.8-.2-7.1,1.8-10.4.4-.7.5-.8.4-1-.1-.5.4-1.1,1.2-1.5.2-.1.5-.2.7-.2h0v-.2ZM497.6,363.1l-.3.4c-.6.8-1.4,2.4-1.8,3.7-.2.7-.5,2-.5,2.1,0,0,.5-.6,1.2-1.6.3-.5.8-1.2.9-1.5.5-1,.8-2.2.6-2.8v-.2h-.1Z"/>
          <path d="M524.6,356.7c.4.8,1,3.7,1.6,7.4.3,1.6.6,3.4.7,4,.2.9.2,1,0,1.4,0,.2-.2.4-.4.6-.3.3-.6.4-1,.3-.4,0-.7-.2-.9-.6-.3-.3-.5-1.6-1.1-4.8-.6-3.8-1-5.6-1.2-6.3,0-.4-.3-.7-.3-.8,0,0-1.1,1.5-1.7,2.7-.7,1.5-1.3,3.2-1.8,5.2,0,.5.2,1,.3,1.5.2,1.1-2.2,2.7-2.6.5,0-.4,0-.8-.2-1.3-.6-3.8-1-5.6-1.2-6.3,0-.4-.3-.7-.3-.8,0,0-1.1,1.5-1.7,2.7-1.1,2.3-1.9,5.2-2.6,8.8-.1.8-.3,1.5-.4,1.6-.3.7-1,1.1-1.6.9-.4-.1-.9-.6-1-1.1-.2-1-.5-4.9-.6-9.5,0-1.8-.1-3.2-.1-3.3,0-.3,0-.8.2-1.1.3-.6,1-.8,1.6-.5.7.4.8.8.9,4.4v1.6s.2-.2.3-.7c.8-2,1.8-4.1,2.8-5.2,1.7-2,3.6-1.9,4.7.3.2.4.4,1.2.7,2.3.7-1.6,1.5-3.2,2.3-4,1.7-2,3.6-1.9,4.7.3h0l-.2-.2Z"/>
        </g>
      </g>
    </g>
  </g>
  <g id="Moeda_4">
    <path class="st4" d="M515.1,248.2c0,13.8-11.2,25-25,25s-25-11.2-25-25,11.2-25,25-25,25,11.2,25,25h0Z"/>
    <g class="st10">
      <g class="st10">
        <g class="st10">
          <path d="M490.2,259.4c-1.4,0-2.6-.2-3.7-.7s-2-1.2-2.7-2.1-1.2-2-1.4-3.2l2.1-.4c.3,1.3,1,2.4,2.1,3.2,1.1.8,2.3,1.2,3.8,1.2s2.7-.4,3.7-1.1c.9-.7,1.4-1.7,1.4-2.9s-.3-1.6-.8-2.1-1.4-1-2.6-1.4l-4.6-1.4c-2.8-.9-4.2-2.5-4.2-5s.3-2.1.8-3,1.3-1.5,2.4-2c1-.5,2.2-.7,3.5-.7s2.5.2,3.5.7,1.9,1.2,2.6,2.1c.7.9,1.1,2,1.3,3.2l-2.1.4c-.1-.9-.4-1.7-.9-2.3-.5-.7-1.1-1.2-1.9-1.6-.8-.4-1.6-.6-2.5-.6s-1.7.2-2.4.5c-.7.3-1.2.7-1.6,1.3-.4.5-.6,1.2-.6,1.9s.3,1.4.8,2c.6.5,1.4,1,2.6,1.4l4,1.2c1.7.5,2.9,1.2,3.6,2s1.1,2,1.1,3.4-.3,2.3-.9,3.2c-.6.9-1.4,1.6-2.5,2.1s-2.4.8-3.8.8h0ZM488.9,238.6v-3.3h2.1v3.3h-2.1ZM488.9,261.8v-3.3h2.1v3.3h-2.1Z"/>
        </g>
      </g>
      <g class="st10">
        <g class="st10">
          <path class="st1" d="M490.2,259.4c-1.4,0-2.6-.2-3.7-.7s-2-1.2-2.7-2.1-1.2-2-1.4-3.2l2.1-.4c.3,1.3,1,2.4,2.1,3.2,1.1.8,2.3,1.2,3.8,1.2s2.7-.4,3.7-1.1c.9-.7,1.4-1.7,1.4-2.9s-.3-1.6-.8-2.1-1.4-1-2.6-1.4l-4.6-1.4c-2.8-.9-4.2-2.5-4.2-5s.3-2.1.8-3,1.3-1.5,2.4-2c1-.5,2.2-.7,3.5-.7s2.5.2,3.5.7,1.9,1.2,2.6,2.1c.7.9,1.1,2,1.3,3.2l-2.1.4c-.1-.9-.4-1.7-.9-2.3-.5-.7-1.1-1.2-1.9-1.6-.8-.4-1.6-.6-2.5-.6s-1.7.2-2.4.5c-.7.3-1.2.7-1.6,1.3-.4.5-.6,1.2-.6,1.9s.3,1.4.8,2c.6.5,1.4,1,2.6,1.4l4,1.2c1.7.5,2.9,1.2,3.6,2s1.1,2,1.1,3.4-.3,2.3-.9,3.2c-.6.9-1.4,1.6-2.5,2.1s-2.4.8-3.8.8h0ZM488.9,238.6v-3.3h2.1v3.3h-2.1ZM488.9,261.8v-3.3h2.1v3.3h-2.1Z"/>
        </g>
      </g>
    </g>
  </g>
  <g id="Moeda_3">
    <path class="st4" d="M91,145.7c0,13.8-11.2,25-25,25s-25-11.2-25-25,11.2-25,25-25,25,11.2,25,25Z"/>
    <g class="st10">
      <g class="st10">
        <g class="st10">
          <path d="M66,156.9c-1.4,0-2.6-.2-3.7-.7s-2-1.2-2.7-2.1c-.7-.9-1.2-2-1.4-3.2l2.1-.4c.3,1.3,1,2.4,2.1,3.2s2.3,1.2,3.8,1.2,2.7-.4,3.7-1.1c.9-.7,1.4-1.7,1.4-2.9s-.3-1.6-.8-2.1-1.4-1-2.6-1.4l-4.6-1.4c-2.8-.9-4.2-2.5-4.2-5s.3-2.1.8-3,1.3-1.5,2.4-2c1-.5,2.2-.7,3.5-.7s2.5.2,3.5.7,1.9,1.2,2.6,2.1c.7.9,1.1,2,1.3,3.2l-2.1.4c0-.9-.4-1.7-.9-2.3-.5-.7-1.1-1.2-1.9-1.6-.8-.4-1.6-.6-2.5-.6s-1.7.2-2.4.5c-.7.3-1.2.7-1.6,1.3s-.6,1.2-.6,1.9.3,1.4.8,2c.6.5,1.4,1,2.6,1.4l4,1.2c1.7.5,2.9,1.2,3.6,2s1.1,2,1.1,3.4-.3,2.3-.9,3.2-1.4,1.6-2.5,2.1-2.4.8-3.8.8h0ZM64.7,136.1v-3.3h2.1v3.3h-2.1ZM64.7,159.3v-3.3h2.1v3.3h-2.1Z"/>
        </g>
      </g>
      <g class="st10">
        <g class="st10">
          <path class="st1" d="M66,156.9c-1.4,0-2.6-.2-3.7-.7s-2-1.2-2.7-2.1c-.7-.9-1.2-2-1.4-3.2l2.1-.4c.3,1.3,1,2.4,2.1,3.2s2.3,1.2,3.8,1.2,2.7-.4,3.7-1.1c.9-.7,1.4-1.7,1.4-2.9s-.3-1.6-.8-2.1-1.4-1-2.6-1.4l-4.6-1.4c-2.8-.9-4.2-2.5-4.2-5s.3-2.1.8-3,1.3-1.5,2.4-2c1-.5,2.2-.7,3.5-.7s2.5.2,3.5.7,1.9,1.2,2.6,2.1c.7.9,1.1,2,1.3,3.2l-2.1.4c0-.9-.4-1.7-.9-2.3-.5-.7-1.1-1.2-1.9-1.6-.8-.4-1.6-.6-2.5-.6s-1.7.2-2.4.5c-.7.3-1.2.7-1.6,1.3s-.6,1.2-.6,1.9.3,1.4.8,2c.6.5,1.4,1,2.6,1.4l4,1.2c1.7.5,2.9,1.2,3.6,2s1.1,2,1.1,3.4-.3,2.3-.9,3.2-1.4,1.6-2.5,2.1-2.4.8-3.8.8h0ZM64.7,136.1v-3.3h2.1v3.3h-2.1ZM64.7,159.3v-3.3h2.1v3.3h-2.1Z"/>
        </g>
      </g>
    </g>
  </g>
  <g id="Moeda_2">
    <path class="st4" d="M256.9,264.6c0,13.8-11.2,25-25,25s-25-11.2-25-25,11.2-25,25-25,25,11.2,25,25Z"/>
    <g class="st10">
      <g class="st10">
        <g class="st10">
          <path d="M231.9,275.9c-1.4,0-2.6-.2-3.7-.7s-2-1.2-2.7-2.1-1.2-2-1.4-3.2l2.1-.4c.3,1.3,1,2.4,2.1,3.2,1.1.8,2.3,1.2,3.8,1.2s2.7-.4,3.7-1.1c.9-.7,1.4-1.7,1.4-2.9s-.3-1.6-.8-2.1-1.4-1-2.6-1.4l-4.6-1.4c-2.8-.9-4.2-2.5-4.2-5s.3-2.1.8-3,1.3-1.5,2.4-2c1-.5,2.2-.7,3.5-.7s2.5.2,3.5.7,1.9,1.2,2.6,2.1c.7.9,1.1,2,1.3,3.2l-2.1.4c-.1-.9-.4-1.7-.9-2.3-.5-.7-1.1-1.2-1.9-1.6-.8-.4-1.6-.6-2.5-.6s-1.7.2-2.4.5-1.2.7-1.6,1.3-.6,1.2-.6,1.9.3,1.4.8,2c.6.5,1.4,1,2.6,1.4l4,1.2c1.7.5,2.9,1.2,3.6,2,.7.8,1.1,2,1.1,3.4s-.3,2.3-.9,3.2c-.6.9-1.4,1.6-2.5,2.1s-2.4.8-3.8.8h-.1ZM230.6,255.1v-3.3h2.1v3.3h-2.1ZM230.6,278.3v-3.3h2.1v3.3h-2.1Z"/>
        </g>
      </g>
      <g class="st10">
        <g class="st10">
          <path class="st1" d="M231.9,275.9c-1.4,0-2.6-.2-3.7-.7s-2-1.2-2.7-2.1-1.2-2-1.4-3.2l2.1-.4c.3,1.3,1,2.4,2.1,3.2,1.1.8,2.3,1.2,3.8,1.2s2.7-.4,3.7-1.1c.9-.7,1.4-1.7,1.4-2.9s-.3-1.6-.8-2.1-1.4-1-2.6-1.4l-4.6-1.4c-2.8-.9-4.2-2.5-4.2-5s.3-2.1.8-3,1.3-1.5,2.4-2c1-.5,2.2-.7,3.5-.7s2.5.2,3.5.7,1.9,1.2,2.6,2.1c.7.9,1.1,2,1.3,3.2l-2.1.4c-.1-.9-.4-1.7-.9-2.3-.5-.7-1.1-1.2-1.9-1.6-.8-.4-1.6-.6-2.5-.6s-1.7.2-2.4.5-1.2.7-1.6,1.3-.6,1.2-.6,1.9.3,1.4.8,2c.6.5,1.4,1,2.6,1.4l4,1.2c1.7.5,2.9,1.2,3.6,2,.7.8,1.1,2,1.1,3.4s-.3,2.3-.9,3.2c-.6.9-1.4,1.6-2.5,2.1s-2.4.8-3.8.8h-.1ZM230.6,255.1v-3.3h2.1v3.3h-2.1ZM230.6,278.3v-3.3h2.1v3.3h-2.1Z"/>
        </g>
      </g>
    </g>
  </g>
  <g id="Moeda_1">
    <path class="st4" d="M416.8,124.7c6.4,12.3,1.7,27.4-10.6,33.8s-27.4,1.7-33.8-10.6-1.7-27.4,10.6-33.8,27.4-1.7,33.8,10.6Z"/>
    <g class="st10">
      <g class="st10">
        <g class="st10">
          <path d="M399.9,146.2c-1.2.6-2.4,1-3.6,1.1-1.2,0-2.3-.1-3.4-.6s-2-1.2-2.7-2.2l1.7-1.3c.9,1,2,1.6,3.3,1.8s2.6,0,3.9-.7,2.3-1.6,2.7-2.7c.5-1.1.5-2.2-.1-3.2-.4-.8-1-1.3-1.7-1.5s-1.7-.2-3,0l-4.8.9c-2.9.5-4.9-.3-6-2.5-.5-1-.7-2-.6-3,0-1,.5-2,1.2-2.9s1.6-1.6,2.8-2.3c1.2-.6,2.3-.9,3.5-1,1.2,0,2.2.2,3.3.7,1,.5,1.9,1.2,2.7,2.2l-1.7,1.3c-.5-.7-1.2-1.3-1.9-1.6-.7-.4-1.5-.5-2.4-.5s-1.7.2-2.5.7c-.8.4-1.4.9-1.9,1.5s-.8,1.2-.9,1.9,0,1.3.3,1.9c.4.7.9,1.1,1.6,1.4.7.2,1.7.2,3,0l4.1-.8c1.7-.3,3.1-.3,4.2.1,1.1.4,1.9,1.2,2.6,2.5.6,1.1.8,2.2.7,3.3-.1,1.1-.5,2.1-1.2,3.1s-1.7,1.8-3,2.4h-.2ZM389.1,128.4l-1.5-2.9,1.9-1,1.5,2.9-1.9,1ZM399.9,148.9l-1.5-2.9,1.9-1,1.5,2.9-1.9,1Z"/>
        </g>
      </g>
      <g class="st10">
        <g class="st10">
          <path class="st1" d="M399.9,146.2c-1.2.6-2.4,1-3.6,1.1-1.2,0-2.3-.1-3.4-.6s-2-1.2-2.7-2.2l1.7-1.3c.9,1,2,1.6,3.3,1.8s2.6,0,3.9-.7,2.3-1.6,2.7-2.7c.5-1.1.5-2.2-.1-3.2-.4-.8-1-1.3-1.7-1.5s-1.7-.2-3,0l-4.8.9c-2.9.5-4.9-.3-6-2.5-.5-1-.7-2-.6-3,0-1,.5-2,1.2-2.9s1.6-1.6,2.8-2.3c1.2-.6,2.3-.9,3.5-1,1.2,0,2.2.2,3.3.7,1,.5,1.9,1.2,2.7,2.2l-1.7,1.3c-.5-.7-1.2-1.3-1.9-1.6-.7-.4-1.5-.5-2.4-.5s-1.7.2-2.5.7c-.8.4-1.4.9-1.9,1.5s-.8,1.2-.9,1.9,0,1.3.3,1.9c.4.7.9,1.1,1.6,1.4.7.2,1.7.2,3,0l4.1-.8c1.7-.3,3.1-.3,4.2.1,1.1.4,1.9,1.2,2.6,2.5.6,1.1.8,2.2.7,3.3-.1,1.1-.5,2.1-1.2,3.1s-1.7,1.8-3,2.4h-.2ZM389.1,128.4l-1.5-2.9,1.9-1,1.5,2.9-1.9,1ZM399.9,148.9l-1.5-2.9,1.9-1,1.5,2.9-1.9,1Z"/>
        </g>
      </g>
    </g>
  </g>
  <path id="Brilho_2" d="M476.2,69c-41.3,2.8-43.6,5.2-46.5,46.5-2.9-41.3-5.2-43.6-46.5-46.5,41.3-2.8,43.6-5.2,46.5-46.5,2.9,41.3,5.2,43.6,46.5,46.5Z"/>
  <path id="Brilho_1" d="M82.7,221.6c-33.8,2.3-35.7,4.2-38,38-2.3-33.8-4.2-35.7-38-38,33.8-2.3,35.7-4.2,38-38,2.3,33.8,4.2,35.7,38,38Z"/>
</svg>