<?xml version="1.0" encoding="UTF-8"?>
<svg id="Porquin" xmlns="http://www.w3.org/2000/svg" version="1.1" xmlns:xlink="http://www.w3.org/1999/xlink" viewBox="0 0 552.9 509">
  <!-- Generator: Adobe Illustrator 30.0.0, SVG Export Plug-In . SVG Version: 2.1.1 Build 123)  -->
  <defs>
    <style>
      .st0 {
        mask: url(#mask-1);
      }

      .st1, .st2 {
        fill: #dffe35;
        stroke-width: 2px;
      }

      .st1, .st2, .st3, .st4, .st5, .st6, .st7, .st8 {
        stroke-miterlimit: 10;
      }

      .st1, .st2, .st4, .st9, .st10, .st6, .st7 {
        stroke-linecap: round;
      }

      .st1, .st2, .st4, .st6 {
        stroke: #000;
      }

      .st1, .st9, .st10, .st6 {
        fill-opacity: 0;
      }

      .st11 {
        fill: #020202;
      }

      .st12 {
        fill: #fff;
      }

      .st13 {
        mask: url(#mask);
      }

      .st14, .st3, .st7 {
        fill: none;
      }

      .st3 {
        stroke: #191919;
        stroke-width: 5px;
      }

      .st15 {
        mask: url(#mask-2);
      }

      .st16, .st17 {
        fill: #f04c4c;
      }

      .st4, .st5, .st6, .st8 {
        fill: #e6f77f;
      }

      .st4, .st6, .st7 {
        stroke-width: 3px;
      }

      .st5 {
        opacity: .5;
      }

      .st5, .st8 {
        stroke: #e6f77f;
      }

      .st9 {
        stroke: #fff;
      }

      .st9, .st10 {
        stroke-linejoin: round;
        stroke-width: 1.7px;
      }

      .st10 {
        stroke: #020202;
      }

      .st17, .st18 {
        opacity: .2;
      }

      .st19 {
        fill: #191919;
      }

      .st20 {
        display: none;
      }

      .st18, .st21 {
        fill: #3cb167;
      }

      .st7 {
        stroke: #dffe35;
      }

      .st22 {
        fill: #fdfcfd;
      }

      .st23 {
        mask: url(#mask-3);
      }
    </style>
    <mask id="mask" x="348.2" y="8" width="160.7" height="193" maskUnits="userSpaceOnUse">
      <g id="__lottie_element_66_1">
        <g id="__lottie_element_66">
          <path class="st12" d="M508.9,8v118.6h-160.7V8h160.7Z"/>
        </g>
      </g>
    </mask>
    <mask id="mask-1" x="347.3" y="125.9" width="160.7" height="141.5" maskUnits="userSpaceOnUse">
      <g id="__lottie_element_60_1">
        <g id="__lottie_element_60">
          <path class="st12" d="M508,168.8v98.7h-160.7v-98.7h160.7Z"/>
        </g>
      </g>
    </mask>
    <mask id="mask-2" x="370.5" y="79.1" width="124" height="142" maskUnits="userSpaceOnUse">
      <g id="__lottie_element_24_1">
        <g id="__lottie_element_24">
          <path class="st12" d="M494.4,79.1v139.9h-124V79.1h124Z"/>
        </g>
      </g>
    </mask>
    <mask id="mask-3" x="370.5" y="79.1" width="124" height="220.6" maskUnits="userSpaceOnUse">
      <g id="__lottie_element_18_1">
        <g id="__lottie_element_18">
          <path class="st12" d="M494.4,79.1v139.9h-124V79.1h124Z"/>
        </g>
      </g>
    </mask>
  </defs>
  <g id="maquininha">
    <g>
      <path class="st12" d="M251.2,453.3c3.7,0,7.2-.1,10.7-.1.7,0,1.4,0,2.1,0,11.6,0,23.2,0,34.8,0h2.5c35.1,0,83.7,0,129.2,0h1.9c17.6-.1,35.2-.1,52.7,0,.9,0,1.9,0,2.8,0,8.3,0,16.6,0,24.8,0h1.6c27.1,0,44.9,0,44.9,0"/>
      <path class="st10" d="M251.2,453.3c3.7,0,7.2-.1,10.7-.1.7,0,1.4,0,2.1,0,11.6,0,23.2,0,34.8,0h2.5c35.1,0,83.7,0,129.2,0h1.9c17.6-.1,35.2-.1,52.7,0,.9,0,1.9,0,2.8,0,8.3,0,16.6,0,24.8,0h1.6c27.1,0,44.9,0,44.9,0"/>
    </g>
    <g class="st13">
      <path class="st11" d="M357.3,165.2v-3c.3-10.2-1.2-20.7.5-30.9.3-.8.8-1.5,1.4-2.1,1.2-1.2,2.8-1.9,4.6-1.9h0c.9,0,48.4.2,49.2.5.8.3,1.5.8,2.1,1.4.4,1.2.8,2.4,1.1,3.6.3,1.2.5,2.5.7,3.8,0,2.7.8,5.3.5,7.8,0,1.3,0,2.6,0,4-.2,6.7-.9,13.4-.3,19.8v2.9c0,10.6,0,29.9,0,29.9h-48.3s-11.4,0-11.4,0c0,0,0-22.8,0-35.9Z"/>
    </g>
    <g class="st0">
      <g>
        <path class="st12" d="M370.3,223.4s0-31.3,0-53.9v-2.9c.7-12.9,1.7-38.7-5.5-39.1-.4,0-.6,0-.6,0h4.7c.9,0,51.5,0,52.6,0,18.7-4.9,12.3,16.5,12.5,27.6v2.6c0,28.1,0,65.7,0,65.7,0,3.9-3.1,7-7,7h0c-3.9,0-56.7-3.1-56.7-7Z"/>
        <path class="st10" d="M370.3,223.4s0-31.3,0-53.9v-2.9c.7-12.9,1.7-38.7-5.5-39.1-.4,0-.6,0-.6,0h4.7c.9,0,51.5,0,52.6,0,18.7-4.9,12.3,16.5,12.5,27.6v2.6c0,28.1,0,65.7,0,65.7,0,3.9-3.1,7-7,7h0c-3.9,0-56.7-3.1-56.7-7Z"/>
      </g>
    </g>
    <path class="st11" d="M384.4,159.1c0-.9,0-1.8,0-2.7.1-12.4.1-24.3,0-36.7,0-1.3,0-2.5.1-3.8.4-4.5,5.6-7.9,9.4-6,3.7,1.9,5.5,4.9,6.3,8.4.3,1.2.4,2.4.5,3.7-.4,10.4-1.6,21.3-.7,31.8v2.6c0,32.7,0,74,0,74h-15.6s0-39.1,0-71.3Z"/>
    <g>
      <g>
        <path class="st11" d="M483.6,440.9c4.8-54.7,3.4-147.6,0-224.3,0-4.6-3.7-8.3-8.3-8.3-3.2-.6-6.5-1.2-10-1.7-1.2-.2-2.3-.3-3.5-.4-10.6-1.2-21.4-1.5-31.8-1.5-1.4,0-2.9,0-4.4,0-6.2.3-12.2,0-18.5.5-1.3,0-2.5.1-3.8.2-12.8.6-26.3,1.6-40.2,2.9-4.6,0-8.3,3.7-8.3,8.3-4.6,53-3.1,146.8,0,224.3,0,4.6,3.7,8.3,8.3,8.3,32.8,5.3,71.3,4,112.1,0,4.6,0,8.3-3.7,8.3-8.3Z"/>
        <path class="st10" d="M483.6,440.9c4.8-54.7,3.4-147.6,0-224.3,0-4.6-3.7-8.3-8.3-8.3-3.2-.6-6.5-1.2-10-1.7-1.2-.2-2.3-.3-3.5-.4-10.6-1.2-21.4-1.5-31.8-1.5-1.4,0-2.9,0-4.4,0-6.2.3-12.2,0-18.5.5-1.3,0-2.5.1-3.8.2-12.8.6-26.3,1.6-40.2,2.9-4.6,0-8.3,3.7-8.3,8.3-4.6,53-3.1,146.8,0,224.3,0,4.6,3.7,8.3,8.3,8.3,32.8,5.3,71.3,4,112.1,0,4.6,0,8.3-3.7,8.3-8.3Z"/>
      </g>
      <g>
        <path class="st12" d="M496.7,440.9c4.8-54.7,3.4-147.6,0-224.3,0-4.6-3.7-8.3-8.3-8.3-6.3-1.3-13.3-2.2-20.9-2.8-1.3,0-2.5-.2-3.8-.3-9.8-.9-19.5-.6-29.4-.5-1.5,0-3,0-4.5.1-1.2,0-2.4,0-3.6.1-6,0-12.4.8-18.5.9-1.3,0-2.5.2-3.8.2-8.9.6-18.2,1.3-27.5,2.1-4.6,0-8.3,3.7-8.3,8.3-4.6,53-3.1,146.8,0,224.3,0,4.6,3.7,8.3,8.3,8.3,32.8,5.3,71.3,4,112.1,0,4.6,0,8.3-3.7,8.3-8.3Z"/>
        <path class="st10" d="M496.7,440.9c4.8-54.7,3.4-147.6,0-224.3,0-4.6-3.7-8.3-8.3-8.3-6.3-1.3-13.3-2.2-20.9-2.8-1.3,0-2.5-.2-3.8-.3-9.8-.9-19.5-.6-29.4-.5-1.5,0-3,0-4.5.1-1.2,0-2.4,0-3.6.1-6,0-12.4.8-18.5.9-1.3,0-2.5.2-3.8.2-8.9.6-18.2,1.3-27.5,2.1-4.6,0-8.3,3.7-8.3,8.3-4.6,53-3.1,146.8,0,224.3,0,4.6,3.7,8.3,8.3,8.3,32.8,5.3,71.3,4,112.1,0,4.6,0,8.3-3.7,8.3-8.3Z"/>
      </g>
      <g>
        <path class="st12" d="M481.6,304.3c3.5-18.6,2.5-42.7,0-68.8,0-1.6-2.7-2.8-6-2.8-19.7-1.9-48.9-1.3-80.9,0-3.3,0-6,1.3-6,2.8-3.3,18-2.3,42.5,0,68.8,0,1.6,2.7,2.8,6,2.8,23.7,1.8,51.4,1.4,80.9,0,3.3,0,6-1.3,6-2.8Z"/>
        <path class="st10" d="M481.6,304.3c3.5-18.6,2.5-42.7,0-68.8,0-1.6-2.7-2.8-6-2.8-19.7-1.9-48.9-1.3-80.9,0-3.3,0-6,1.3-6,2.8-3.3,18-2.3,42.5,0,68.8,0,1.6,2.7,2.8,6,2.8,23.7,1.8,51.4,1.4,80.9,0,3.3,0,6-1.3,6-2.8Z"/>
      </g>
      <g>
        <path class="st11" d="M480.6,221.1v-3.7c0-.5-.4-.8-.8-.8-23.6-2-78.7-.8-92.3,0-.5,0-.8.4-.8.8v3.7c0,.5.4.8.8.8,25.8,1.1,60.5.8,92.3,0,.5,0,.8-.4.8-.8Z"/>
        <path class="st10" d="M480.6,221.1v-3.7c0-.5-.4-.8-.8-.8-23.6-2-78.7-.8-92.3,0-.5,0-.8.4-.8.8v3.7c0,.5.4.8.8.8,25.8,1.1,60.5.8,92.3,0,.5,0,.8-.4.8-.8Z"/>
      </g>
      <g>
        <path class="st11" d="M480.6,439.5c.3-1.3.4-2.8.1-3.8-.2-.6-.5-.8-1-.8-24.6-.9-79.4-.2-92.3,0-.5,0-.7.4-.8.8-.1,1.2-.1,2.5,0,3.7.1.5.5.8.8.8,25.8,2.3,59.9,1.2,92.3,0,.3,0,.7-.4.8-.8Z"/>
        <path class="st10" d="M480.6,439.5c.3-1.3.4-2.8.1-3.8-.2-.6-.5-.8-1-.8-24.6-.9-79.4-.2-92.3,0-.5,0-.7.4-.8.8-.1,1.2-.1,2.5,0,3.7.1.5.5.8.8.8,25.8,2.3,59.9,1.2,92.3,0,.3,0,.7-.4.8-.8Z"/>
      </g>
      <g>
        <path class="st12" d="M413.6,334.7c0-3.8.7-8.1.2-12.6,0-.7-.6-1.3-1.3-1.4-5.6-1.1-13.4-.6-21.5.1-.8,0-1.4.7-1.4,1.5-.2,5.3-.7,8.1-.1,12.6,0,.6.6,1.2,1.2,1.3,5.5,1.3,13.2.8,21.6-.1.8,0,1.4-.8,1.4-1.5Z"/>
        <path class="st10" d="M413.6,334.7c0-3.8.7-8.1.2-12.6,0-.7-.6-1.3-1.3-1.4-5.6-1.1-13.4-.6-21.5.1-.8,0-1.4.7-1.4,1.5-.2,5.3-.7,8.1-.1,12.6,0,.6.6,1.2,1.2,1.3,5.5,1.3,13.2.8,21.6-.1.8,0,1.4-.8,1.4-1.5Z"/>
      </g>
      <g>
        <path class="st12" d="M447.3,334.7c0-3.8.7-8.1.2-12.6,0-.7-.6-1.4-1.3-1.4-5.5-.2-14.5-1.4-21.5.1-.8.2-1.4.7-1.4,1.5-.2,5.3-.7,8.1-.1,12.6,0,.6.5,1.3,1.2,1.3,6.7.8,13.2.8,21.6-.1.8,0,1.4-.8,1.4-1.5Z"/>
        <path class="st10" d="M447.3,334.7c0-3.8.7-8.1.2-12.6,0-.7-.6-1.4-1.3-1.4-5.5-.2-14.5-1.4-21.5.1-.8.2-1.4.7-1.4,1.5-.2,5.3-.7,8.1-.1,12.6,0,.6.5,1.3,1.2,1.3,6.7.8,13.2.8,21.6-.1.8,0,1.4-.8,1.4-1.5Z"/>
      </g>
      <g>
        <path class="st12" d="M481,334.7c0-3.8.7-8.1.2-12.6,0-.7-.6-1.3-1.3-1.4-5.6-1.1-13.4-.6-21.5.1-.8,0-1.4.7-1.4,1.5-.2,5.3-.7,8.1-.1,12.6,0,.6.5,1.3,1.2,1.3,6.8.2,13.2.8,21.6-.1.8,0,1.4-.8,1.4-1.5Z"/>
        <path class="st10" d="M481,334.7c0-3.8.7-8.1.2-12.6,0-.7-.6-1.3-1.3-1.4-5.6-1.1-13.4-.6-21.5.1-.8,0-1.4.7-1.4,1.5-.2,5.3-.7,8.1-.1,12.6,0,.6.5,1.3,1.2,1.3,6.8.2,13.2.8,21.6-.1.8,0,1.4-.8,1.4-1.5Z"/>
      </g>
      <g>
        <path class="st12" d="M413.6,362.3c0-3.8.7-8.1.2-12.6,0-.7-.6-1.4-1.3-1.4-6.7-.1-13.4-.6-21.5.1-.8,0-1.4.7-1.4,1.5-.2,5.3-.7,8.1-.1,12.6,0,.6.6,1.2,1.2,1.3,5.5,1.3,13.5-.3,21.6-.1.8,0,1.4-.8,1.4-1.5Z"/>
        <path class="st10" d="M413.6,362.3c0-3.8.7-8.1.2-12.6,0-.7-.6-1.4-1.3-1.4-6.7-.1-13.4-.6-21.5.1-.8,0-1.4.7-1.4,1.5-.2,5.3-.7,8.1-.1,12.6,0,.6.6,1.2,1.2,1.3,5.5,1.3,13.5-.3,21.6-.1.8,0,1.4-.8,1.4-1.5Z"/>
      </g>
      <g>
        <path class="st12" d="M447.3,362.3c.4-3.7.7-8.1.2-12.6,0-.7-.6-1.3-1.3-1.4-5.6-1.1-13.4-.6-21.5.1-.8,0-1.4.7-1.4,1.5-.4,5.3-.7,8.1-.1,12.6,0,.6.6,1.2,1.2,1.3,5.5,1.3,13.2.8,21.6-.1.8,0,1.3-.8,1.4-1.5Z"/>
        <path class="st10" d="M447.3,362.3c.4-3.7.7-8.1.2-12.6,0-.7-.6-1.3-1.3-1.4-5.6-1.1-13.4-.6-21.5.1-.8,0-1.4.7-1.4,1.5-.4,5.3-.7,8.1-.1,12.6,0,.6.6,1.2,1.2,1.3,5.5,1.3,13.2.8,21.6-.1.8,0,1.3-.8,1.4-1.5Z"/>
      </g>
      <g>
        <path class="st12" d="M481,362.3c0-3.8.7-8.1.2-12.6,0-.7-.6-1.3-1.3-1.4-5.6-1.1-13.4-.6-21.5.1-.8,0-1.3.7-1.4,1.5-.9,4.4-.7,8.1-.1,12.6,0,.6.6,1.2,1.2,1.3,5.5,1.3,17.2.8,21.6-.1.8-.2,1.4-.8,1.4-1.5Z"/>
        <path class="st10" d="M481,362.3c0-3.8.7-8.1.2-12.6,0-.7-.6-1.3-1.3-1.4-5.6-1.1-13.4-.6-21.5.1-.8,0-1.3.7-1.4,1.5-.9,4.4-.7,8.1-.1,12.6,0,.6.6,1.2,1.2,1.3,5.5,1.3,17.2.8,21.6-.1.8-.2,1.4-.8,1.4-1.5Z"/>
      </g>
      <g>
        <path class="st12" d="M413.6,389.9c0-3.8.9-7.7.2-12.6-.1-.7-.6-1.3-1.3-1.4-5.6-1.1-13.4-.6-21.5.1-.8,0-1.4.7-1.4,1.5-.2,5.3-.7,8.1-.1,12.6,0,.6.5,1.3,1.2,1.3,5.5,0,13.2.8,21.6-.1.8,0,1.4-.8,1.4-1.5Z"/>
        <path class="st10" d="M413.6,389.9c0-3.8.9-7.7.2-12.6-.1-.7-.6-1.3-1.3-1.4-5.6-1.1-13.4-.6-21.5.1-.8,0-1.4.7-1.4,1.5-.2,5.3-.7,8.1-.1,12.6,0,.6.5,1.3,1.2,1.3,5.5,0,13.2.8,21.6-.1.8,0,1.4-.8,1.4-1.5Z"/>
      </g>
      <g>
        <path class="st12" d="M447.3,389.9c0-3.8.7-8.1.2-12.6,0-.7-.6-1.3-1.3-1.4-5.6-1.1-13.4-.6-21.5.1-.8,0-1.4.7-1.4,1.5-.2,5.3-.7,8.1-.1,12.6,0,.6.6,1.2,1.2,1.3,5.5,1.3,13.2.8,21.6-.1.8,0,1.4-.8,1.4-1.5Z"/>
        <path class="st10" d="M447.3,389.9c0-3.8.7-8.1.2-12.6,0-.7-.6-1.3-1.3-1.4-5.6-1.1-13.4-.6-21.5.1-.8,0-1.4.7-1.4,1.5-.2,5.3-.7,8.1-.1,12.6,0,.6.6,1.2,1.2,1.3,5.5,1.3,13.2.8,21.6-.1.8,0,1.4-.8,1.4-1.5Z"/>
      </g>
      <g>
        <path class="st12" d="M481,389.9c0-3.8.7-8.1.2-12.6,0-.7-.6-1.3-1.3-1.4-5.6-1.1-18.8-1.2-21.5.1-.7.4-1.4.7-1.4,1.5-.2,5.3-.7,8.1-.1,12.6,0,.6.5,1.3,1.2,1.3,7.3,0,18.1,1.4,21.6-.1.7-.3,1.4-.8,1.4-1.5Z"/>
        <path class="st10" d="M481,389.9c0-3.8.7-8.1.2-12.6,0-.7-.6-1.3-1.3-1.4-5.6-1.1-18.8-1.2-21.5.1-.7.4-1.4.7-1.4,1.5-.2,5.3-.7,8.1-.1,12.6,0,.6.5,1.3,1.2,1.3,7.3,0,18.1,1.4,21.6-.1.7-.3,1.4-.8,1.4-1.5Z"/>
      </g>
      <g>
        <path class="st12" d="M447.3,417.6c0-3.8,1.3-8.1.2-12.6-.2-.7-.6-1.3-1.3-1.4-5.6-1.1-13.4-.6-21.5.1-.8,0-1.4.7-1.4,1.5-.5,3.8-.7,8.1-.1,12.6,0,.6.6,1.2,1.2,1.3,5.5,1.3,13.2.8,21.6-.1.8,0,1.4-.8,1.4-1.5Z"/>
        <path class="st10" d="M447.3,417.6c0-3.8,1.3-8.1.2-12.6-.2-.7-.6-1.3-1.3-1.4-5.6-1.1-13.4-.6-21.5.1-.8,0-1.4.7-1.4,1.5-.5,3.8-.7,8.1-.1,12.6,0,.6.6,1.2,1.2,1.3,5.5,1.3,13.2.8,21.6-.1.8,0,1.4-.8,1.4-1.5Z"/>
      </g>
      <g>
        <path class="st12" d="M481.1,417.6c0-3.8,1.3-8.1.2-12.6-.2-.7-.6-1.3-1.3-1.4-5.6-1.1-13.4-.6-21.5.1-.8,0-1.4.7-1.4,1.5-.5,3.8-.7,8.1-.1,12.6,0,.6.6,1.2,1.2,1.3,5.5,1.3,13.2.8,21.6-.1.8,0,1.4-.8,1.4-1.5Z"/>
        <path class="st10" d="M481.1,417.6c0-3.8,1.3-8.1.2-12.6-.2-.7-.6-1.3-1.3-1.4-5.6-1.1-13.4-.6-21.5.1-.8,0-1.4.7-1.4,1.5-.5,3.8-.7,8.1-.1,12.6,0,.6.6,1.2,1.2,1.3,5.5,1.3,13.2.8,21.6-.1.8,0,1.4-.8,1.4-1.5Z"/>
      </g>
      <g>
        <path class="st9" d="M435.2,269.8"/>
        <path class="st9" d="M435.2,269.8"/>
      </g>
    </g>
    <path class="st10" d="M413.6,417.6c0-3.8.7-8.1.2-12.6,0-.7-.6-1.3-1.3-1.4-5.6-1.1-13.4-.6-21.5.1-.8,0-1.4.7-1.4,1.5-.2,5.3-.7,8.1-.1,12.6,0,.6.6,1.2,1.2,1.3,5.5,1.3,13.2.8,21.6-.1.8,0,1.4-.8,1.4-1.5Z"/>
    <g class="st20">
      <path class="st10" d="M666.1-395.8"/>
      <path class="st10" d="M666.1-395.8"/>
    </g>
    <g class="st20">
      <path class="st10" d="M666.1-395.8"/>
      <path class="st10" d="M666.1-395.8"/>
    </g>
    <g class="st20">
      <path class="st10" d="M666.1-395.8"/>
      <path class="st10" d="M666.1-395.8"/>
    </g>
    <g class="st20">
      <path class="st10" d="M666.1-395.8"/>
      <path class="st10" d="M666.1-395.8"/>
    </g>
    <g>
      <path class="st11" d="M435.6,251.6c9.9,0,17.9,7.8,17.9,17.9,0,9.9-8,17.9-17.9,17.9-13.1,0-17.9-8-17.9-17.9,0-9.9,6-17.9,17.9-17.9Z"/>
      <path class="st10" d="M435.6,251.6c9.9,0,17.9,7.8,17.9,17.9,0,9.9-8,17.9-17.9,17.9-13.1,0-17.9-8-17.9-17.9,0-9.9,6-17.9,17.9-17.9Z"/>
    </g>
    <path class="st7" d="M426.5,267.8l7.3,7.3,11.1-11.1"/>
    <g class="st20">
      <path class="st9" d="M666.1-395.8"/>
    </g>
    <g class="st15">
      <g>
        <path class="st4" d="M392.1,111.4c0,1.2,0,2.3,0,3.5s0,2.3,0,3.5c0,12.9,0,26,0,38.6v2.7c0,29,0,59.9,0,59.9h80.9s0-17.7,0-38.4v-3.1c.5-13,.5-26.5,0-39.6v-2.6c0-.9,0-1.8,0-2.7v-2.5c-1-6.5,2.7-15.1-4-19.2-6-4.1-12.7-1.9-19.6-1.8-1.3,0-2.6,0-3.9,0-.8,0-1.6,0-2.4,0-14,0-31.4,0-41.8,0h-6.7c-1.6,0-2.5,0-2.5,0v1.9Z"/>
        <path class="st6" d="M392.1,111.4c0,1.2,0,2.3,0,3.5s0,2.3,0,3.5c0,12.9,0,26,0,38.6v2.7c0,29,0,59.9,0,59.9h80.9s0-17.7,0-38.4v-3.1c.5-13,.5-26.5,0-39.6v-2.6c0-.9,0-1.8,0-2.7v-2.5c-1-6.5,2.7-15.1-4-19.2-6-4.1-12.7-1.9-19.6-1.8-1.3,0-2.6,0-3.9,0-.8,0-1.6,0-2.4,0-14,0-31.4,0-41.8,0h-6.7c-1.6,0-2.5,0-2.5,0v1.9Z"/>
      </g>
    </g>
    <g class="st23">
      <g>
        <g>
          <path class="st12" d="M415.7,226.1c7.7-4.4,19-.6,27.9-1.6h3.5c.8,0,1.3,0,1.3,0,.9,0,1.7.7,1.7,1.7h0c0,.9-.7,1.7-1.7,1.7h-1.3c-.8,0-2.1,0-3.5,0-8.6-.1-17.5-.1-26.2,0-.9,0-1.7-.7-1.7-1.6Z"/>
          <path class="st10" d="M415.7,226.1c7.7-4.4,19-.6,27.9-1.6h3.5c.8,0,1.3,0,1.3,0,.9,0,1.7.7,1.7,1.7h0c0,.9-.7,1.7-1.7,1.7h-1.3c-.8,0-2.1,0-3.5,0-8.6-.1-17.5-.1-26.2,0-.9,0-1.7-.7-1.7-1.6Z"/>
        </g>
        <g>
          <g>
            <path class="st12" d="M405.4,242.7c0-1.1.5-1.5,1.7-1.7h1.7c1.1,0,2.6,0,4.4,0,9.5-.9,18.9-.2,28.1-.1,1.2,0,2.3,0,3.5.1,1.2,0,2.3,0,3.5,0,1.3,0,2.6,0,3.8,0,1.3,0,2.5,0,3.8,0h2.9c.9,0,1.7.7,1.7,1.7h0c0,.9-.7,1.7-1.7,1.7h-2.9c-1.3,0-2.5,0-3.8,0-1.3,0-2.5,0-3.8,0-2.3,0-4.7-.2-7-.2-1.2,0-2.3,0-3.5,0-8.3-.5-16.2.2-24.6.4-1.9,0-3.4,0-4.5,0h-1.7c-.9,0-1.7-.7-1.7-1.7Z"/>
            <path class="st10" d="M405.4,242.7c0-1.1.5-1.5,1.7-1.7h1.7c1.1,0,2.6,0,4.4,0,9.5-.9,18.9-.2,28.1-.1,1.2,0,2.3,0,3.5.1,1.2,0,2.3,0,3.5,0,1.3,0,2.6,0,3.8,0,1.3,0,2.5,0,3.8,0h2.9c.9,0,1.7.7,1.7,1.7h0c0,.9-.7,1.7-1.7,1.7h-2.9c-1.3,0-2.5,0-3.8,0-1.3,0-2.5,0-3.8,0-2.3,0-4.7-.2-7-.2-1.2,0-2.3,0-3.5,0-8.3-.5-16.2.2-24.6.4-1.9,0-3.4,0-4.5,0h-1.7c-.9,0-1.7-.7-1.7-1.7Z"/>
          </g>
          <g>
            <path class="st12" d="M405.4,250.5h0c0-.9.7-1.7,1.7-1.7h2.4c.8,0,1.7,0,2.8,0,10.8-.2,21.3-.5,32.2,0,1.4,0,2.7,0,4.1,0s2.7,0,4.1,0h3.2c2-.5,5.7.2,4.2,2.8-1.1,1.9-2.6,0-4.2.5-.9,0-2,0-3.2,0-1.4,0-2.7,0-4.1,0s-2.7,0-4.1,0c-9.5,0-19.2,0-28.6,0-1.3,0-2.5,0-3.6,0-1.1,0-2,0-2.8,0h-2.4c-.9,0-1.7-.7-1.7-1.7Z"/>
            <path class="st10" d="M405.4,250.5h0c0-.9.7-1.7,1.7-1.7h2.4c.8,0,1.7,0,2.8,0,10.8-.2,21.3-.5,32.2,0,1.4,0,2.7,0,4.1,0s2.7,0,4.1,0h3.2c2-.5,5.7.2,4.2,2.8-1.1,1.9-2.6,0-4.2.5-.9,0-2,0-3.2,0-1.4,0-2.7,0-4.1,0s-2.7,0-4.1,0c-9.5,0-19.2,0-28.6,0-1.3,0-2.5,0-3.6,0-1.1,0-2,0-2.8,0h-2.4c-.9,0-1.7-.7-1.7-1.7Z"/>
          </g>
          <g>
            <path class="st12" d="M405.4,258.3h0c0-.9.7-1.7,1.7-1.7h3.7c1.7,0,4,0,6.6,0,.9,0,1.8,0,2.7,0,6.4-.1,12.3-.1,18.5,0,1.2,0,2.3,0,3.5,0,1.2,0,2.3,0,3.5,0,2.3,0,4.7,0,7,0,1.2,0,2.3,0,3.3,0,1.9.2,6.1.2,3.8,3.2-.7,1.1-2.2.4-3.8.1-.9,0-2,0-3.3,0h-3.8c-1.4,0-2.8,0-4.4,0-2.3,0-4.5,0-6.7,0-1.1,0-2.2,0-3.3,0-3.2,0-6.6,0-9.8,0-1.6,0-3.2,0-4.7,0-7.5,0-13,0-13,0-.9,0-1.7-.7-1.7-1.7Z"/>
            <path class="st10" d="M405.4,258.3h0c0-.9.7-1.7,1.7-1.7h3.7c1.7,0,4,0,6.6,0,.9,0,1.8,0,2.7,0,6.4-.1,12.3-.1,18.5,0,1.2,0,2.3,0,3.5,0,1.2,0,2.3,0,3.5,0,2.3,0,4.7,0,7,0,1.2,0,2.3,0,3.3,0,1.9.2,6.1.2,3.8,3.2-.7,1.1-2.2.4-3.8.1-.9,0-2,0-3.3,0h-3.8c-1.4,0-2.8,0-4.4,0-2.3,0-4.5,0-6.7,0-1.1,0-2.2,0-3.3,0-3.2,0-6.6,0-9.8,0-1.6,0-3.2,0-4.7,0-7.5,0-13,0-13,0-.9,0-1.7-.7-1.7-1.7Z"/>
          </g>
          <g>
            <path class="st12" d="M416.4,266.1h0c0-.9.7-1.7,1.7-1.7,0,0,19.9,0,31.9,0,1.7,0,3.3,0,4.6,0,1.8,0,7.4-.8,5.2,2.6-.7,1.5-3.4.7-5.2.8h-4.6c-12,0-31.9,0-31.9,0-.9,0-1.7-.7-1.7-1.7Z"/>
            <path class="st10" d="M416.4,266.1h0c0-.9.7-1.7,1.7-1.7,0,0,19.9,0,31.9,0,1.7,0,3.3,0,4.6,0,1.8,0,7.4-.8,5.2,2.6-.7,1.5-3.4.7-5.2.8h-4.6c-12,0-31.9,0-31.9,0-.9,0-1.7-.7-1.7-1.7Z"/>
          </g>
        </g>
        <g>
          <path class="st11" d="M424.2,287c.3,1,0,1.8-.8,2.5-1.5.7-3,1.1-4.5,0-1.9-1.9-1.5-5.2.7-6.4,1.9-.7,4.9.4,4.5,3.1v.7ZM422.7,286.3c0-1.3-.8-2-1.5-2-2.2,0-2.8,3.3-1.5,3.7,3.7,1.4,2.9-.6,3-.9v-.8ZM418.7,294.3c-2-3-3.5-6.3-5.8-9,.4-.4.7-1.5,1.5-.4,1.5,4.1,7.9,9,6.3,12.4,0,0-.9-1.3-2-3.1ZM416.8,295.5c-.1,2.9-1.6,2.9-3.1,3.3-.7,0-1.5-.4-2.2-1.1-1.5-1.9-1.1-5.2,1.1-6,1.9-.4,4.5.4,4.2,3.1v.7ZM415.3,294.8c-.2-1.6-2-2.7-2.8-1.6-.7,1.1-.7,2.6,0,3.7,1.1,1.1,3,0,2.8-1.4v-.8Z"/>
          <path class="st10" d="M440.1,297.1c2.4-3.9,5.4-1.6,7.7.6.7-1.1,1.9-2.6,1.5-4.1,1.1,1.9,2.2,3.4,3,5.2,1.5-5.6,1.5-10.8.4-16.5-.7,4.9-.4,10.5,1.8,15.1"/>
        </g>
      </g>
    </g>
    <g>
      <path class="st2" d="M366.1,439h-2.2c-.5,0-1,0-1.6,0-8.1,0-16.4,0-24.4,0h-1.8c-1.3,0-2.6,0-3.9,0-.7,0-1.3,0-2,0-5.2,0-10.2,0-15.4,0h-1.3c-1.3,0-2.6,0-3.8,0h-1.8c-7.4.3-14.8-.3-22.3,0-.5,0-.8,0-.8,0v14.4s9.3,0,21.6,0h1.6c8.9,0,18,0,26.9,0,.8,0,1.5,0,2.3,0s1.5,0,2.3,0h1.7c1.7,0,3.4,0,5.1,0h1.6c2.9,0,5.8,0,8.6,0h2.4c4.5,0,7.2,0,7.2,0v-14.4Z"/>
      <path class="st1" d="M366.1,439h-2.2c-.5,0-1,0-1.6,0-8.1,0-16.4,0-24.4,0h-1.8c-1.3,0-2.6,0-3.9,0-.7,0-1.3,0-2,0-5.2,0-10.2,0-15.4,0h-1.3c-1.3,0-2.6,0-3.8,0h-1.8c-7.4.3-14.8-.3-22.3,0-.5,0-.8,0-.8,0v14.4s9.3,0,21.6,0h1.6c8.9,0,18,0,26.9,0,.8,0,1.5,0,2.3,0s1.5,0,2.3,0h1.7c1.7,0,3.4,0,5.1,0h1.6c2.9,0,5.8,0,8.6,0h2.4c4.5,0,7.2,0,7.2,0v-14.4Z"/>
    </g>
    <g>
      <path class="st2" d="M356.5,436.7c0-1.2-.5-2.4-.4-3.6,0-.4,0-.9,0-1.3,0-3.6,0-7.2,0-7.2h-4.1c-.5,0-1.1,0-1.7,0-9,.4-17.9,0-27,0h-1.6c-3.8,0-7.7,0-11.6,0h-1.8c-.7,0-1.4,0-2.1,0-.7,0-1.4,0-2.1,0-8.2-.4-16,0-24,0h-2.3c-2,0-3.1,0-3.1,0v14.4s3.1,0,8,0h2.2c7.8-.3,15.7.3,23.6,0h1.8c.8,0,1.7,0,2.5,0h2.5c5,0,10.1,0,15,0,.7,0,1.5,0,2.2,0,2.2,0,4.4,0,6.5,0,.5,0,1,0,1.5,0,5.4,0,11,0,16.4,0,0,0-.2-.9-.5-2.3Z"/>
      <path class="st1" d="M356.5,436.7c0-1.2-.5-2.4-.4-3.6,0-.4,0-.9,0-1.3,0-3.6,0-7.2,0-7.2h-4.1c-.5,0-1.1,0-1.7,0-9,.4-17.9,0-27,0h-1.6c-3.8,0-7.7,0-11.6,0h-1.8c-.7,0-1.4,0-2.1,0-.7,0-1.4,0-2.1,0-8.2-.4-16,0-24,0h-2.3c-2,0-3.1,0-3.1,0v14.4s3.1,0,8,0h2.2c7.8-.3,15.7.3,23.6,0h1.8c.8,0,1.7,0,2.5,0h2.5c5,0,10.1,0,15,0,.7,0,1.5,0,2.2,0,2.2,0,4.4,0,6.5,0,.5,0,1,0,1.5,0,5.4,0,11,0,16.4,0,0,0-.2-.9-.5-2.3Z"/>
    </g>
    <g>
      <path class="st2" d="M359.7,410.2s-3.7,0-9.6,0c-.5,0-.9,0-1.4,0-.7,0-1.4,0-2.1,0-.7,0-1.4,0-2.1,0-6.5-.4-12.7-.4-19.1,0-.7,0-1.4,0-2.1,0-.7,0-1.4,0-2.1,0-.7,0-1.4,0-2.1,0-8.1-.8-15.9-1-24-.3-.7,0-1.5,0-2.2.1-3.8.2-7.5.3-11.3.2h-2.3c-.5,0-.8,0-.8,0v4.5c0,.8,0,1.7,0,2.6s0,1.8,0,2.6c0,2.5,0,4.5,0,4.5h1.8c8,0,16.1-.5,24.1,0,.7,0,1.4,0,2.1,0,.7,0,1.4,0,2.1,0h1.8c3.6,0,7.4,0,11.1,0h1.6c9.2,0,18.6.4,27.8,0,.7,0,1.4,0,2,0,4.4,0,7.1,0,7.1,0v-14.4Z"/>
      <path class="st1" d="M359.7,410.2s-3.7,0-9.6,0c-.5,0-.9,0-1.4,0-.7,0-1.4,0-2.1,0-.7,0-1.4,0-2.1,0-6.5-.4-12.7-.4-19.1,0-.7,0-1.4,0-2.1,0-.7,0-1.4,0-2.1,0-.7,0-1.4,0-2.1,0-8.1-.8-15.9-1-24-.3-.7,0-1.5,0-2.2.1-3.8.2-7.5.3-11.3.2h-2.3c-.5,0-.8,0-.8,0v4.5c0,.8,0,1.7,0,2.6s0,1.8,0,2.6c0,2.5,0,4.5,0,4.5h1.8c8,0,16.1-.5,24.1,0,.7,0,1.4,0,2.1,0,.7,0,1.4,0,2.1,0h1.8c3.6,0,7.4,0,11.1,0h1.6c9.2,0,18.6.4,27.8,0,.7,0,1.4,0,2,0,4.4,0,7.1,0,7.1,0v-14.4Z"/>
    </g>
    <g>
      <path class="st2" d="M366.1,395.8h-11.5c-.5,0-1,0-1.5,0-1.4,0-2.8,0-4.2-.1-.7,0-1.4,0-2.1,0-7.3-.2-14.3.2-21.5.5-1.2,0-2.6,0-3.9,0-6.5.1-13.1.2-19.7-.1-1.6,0-3.2-.1-4.8-.2h-1.3c-6.6,0-10.8,0-10.8,0v9.8c0,.8,0,1.6,0,2.3,0,.9-.2,2.1.2,2.1,3,.2,6,.2,9.1,0,.8,0,1.5,0,2.3-.1,5.4-.7,11-.3,16.4-.1,2.7,0,5.2.6,7.8.4.7,0,1.5,0,2.2,0,.7,0,1.5,0,2.2,0,6.8-.4,13.4-.4,20.2,0,.8,0,1.5,0,2.3,0,.8,0,1.5,0,2.3,0,.5,0,1.1,0,1.6,0,8.8,0,14.9,0,14.9,0v-14.4Z"/>
      <path class="st1" d="M366.1,395.8h-11.5c-.5,0-1,0-1.5,0-1.4,0-2.8,0-4.2-.1-.7,0-1.4,0-2.1,0-7.3-.2-14.3.2-21.5.5-1.2,0-2.6,0-3.9,0-6.5.1-13.1.2-19.7-.1-1.6,0-3.2-.1-4.8-.2h-1.3c-6.6,0-10.8,0-10.8,0v9.8c0,.8,0,1.6,0,2.3,0,.9-.2,2.1.2,2.1,3,.2,6,.2,9.1,0,.8,0,1.5,0,2.3-.1,5.4-.7,11-.3,16.4-.1,2.7,0,5.2.6,7.8.4.7,0,1.5,0,2.2,0,.7,0,1.5,0,2.2,0,6.8-.4,13.4-.4,20.2,0,.8,0,1.5,0,2.3,0,.8,0,1.5,0,2.3,0,.5,0,1.1,0,1.6,0,8.8,0,14.9,0,14.9,0v-14.4Z"/>
    </g>
    <g>
      <path class="st2" d="M356.8,381.4h-35.3c-.6,0-1.2,0-1.8,0-10.1-.8-20-1.8-30.2,0-.5,0-.9,0-1.4,0-7.6,0-12.7,0-12.7,0v14.4s8.3,0,19.6,0h1.5c1.6,0,3.2.1,4.8.2,7.3.2,14.5.2,21.7,0,.7,0,1.4,0,2.1,0,7.5-.3,14.9-.9,22.3-.3.7,0,1.3,0,2,0,1.3,0,2.6,0,3.9,0h1.9c1,0,1.6,0,1.6,0v-14.4Z"/>
      <path class="st1" d="M356.8,381.4h-35.3c-.6,0-1.2,0-1.8,0-10.1-.8-20-1.8-30.2,0-.5,0-.9,0-1.4,0-7.6,0-12.7,0-12.7,0v14.4s8.3,0,19.6,0h1.5c1.6,0,3.2.1,4.8.2,7.3.2,14.5.2,21.7,0,.7,0,1.4,0,2.1,0,7.5-.3,14.9-.9,22.3-.3.7,0,1.3,0,2,0,1.3,0,2.6,0,3.9,0h1.9c1,0,1.6,0,1.6,0v-14.4Z"/>
    </g>
  </g>
  <g>
    <path class="st22" d="M395.7,371.3l-1.6-4.9c-1.2.4-2.8.9-4.7,1.1-3.4.4-6.3-.2-8-.7,1.4-1.2,3.5-3.6,4.3-7,1.3-5.3-1-11.3-5.1-14-.8-.5-2.8-1.8-5.1-1.3-2.2.5-3.5,2.5-4,3.3-4.2,6.7.8,15.6-1.2,18.2,0,0,0,0,0,0,0,.1-.2.2-.3.3-1.1.9-3.6.6-9.4-3.4-.3-.2-.7-.5-1-.7.1-.2.3-.5.4-.7,1.1-2,2.4-4.8,3.1-8.3,1.9-8.8-.3-17-1.1-19.7-1.6-5.6-3.3-7.4-2.9-10.2,0-.3.1-.5.2-.8,0,0,0-.2,0-.3,1.2-3.6,4.5-3.8,7.3-7.1,8.4-9.6.6-30.5-5.2-37.3-2.1-2.5-4.7-4.8-4.7-4.8-2.9-2.6-4.8-3.8-6.2-4.7-.3-.2-.5-.4-.8-.6-.4-.3-.7-.6-.9-.9-3.3-3.5-2.2-8.4-4.8-18.5-1.9-7.1-4.5-12.3-8.6-20.5-2.6-5.2-5.4-10.2-6.9-12.7-1.8-3-3.3-5.6-4.4-7.5l-1-1c-1.5-1.6-2.4-2.5-3-3.3-.2-.2-.3-.5-.5-.7-.2-.3-.3-.6-.5-1.1h0c-.4-1-.6-2.5-.3-4.6-.3-1.9-.7-3.7-1.2-5.7-3.1-11.3-9.7-19.5-14.8-24.4-.6-.5-.9-.9-1.2-1.3-.3-.4-.6-.9-.6-1-.2,0-.4.3-.4.3l.4-1.3-1.6,3c-1.4,2.8-2.1,4.2-2.5,4.8-1.7,3.5-3,6.1-4.1,7.8-.6.8-1.1,1.5-1.6,1.9-.4.3-.8.5-1.2.6-2.4.5-4.9-1.5-6.5-3.3-.8-.8-1.3-1.6-1.6-2,0-.1-.2-.2-.2-.3-1.9-2.7-2.7-5.3-3-6.9,0-.5,0-1.3-.2-2.2-.3-.9-.7-1.6-1.8-3-1-1.4-1.5-2-2.3-2.8-1.8-1.9-5.2-5.1-9.7-9.1-1.4,2.2-2.2,4.1-2.7,5.2-.1.3-.2.6-.4.9l-.2.5c-2,4.9-6.1,15.7-7.3,17.6,0,.2-.2.2-.2.3-.2.2-.4.3-.6.4-.2,0-.3.3-.5.3-2.4,1.4-6.9,3-9.6,4.4-.3.2-.6.3-.8.5-.9.5-1.7,1-2.3,1.5-4.2,3.1-5,5.4-10.2,7.3-7.2,2.6-10-2.5-16.7-.9-13.1,3-19.6,26.2-15.8,33.3,1.2,2.1,2.9,3.9,2.9,3.9,1.9,1.7,3.8,2.1,6.3,4.2,0,0,0,0,0,0,.4.4.8.7,1.2,1.1,1,1.1,2,2.3,3,3.5.8,1,1.7,2.1,2.8,3,.9.8,1.8,1.5,2.9,2.1.5,1.4,1.1,2.9,1.8,4.4.2.5.5,1.1.8,1.6,2.7,5.5,6.4,11,10.8,14.7,1.1.9,6.9,4.1,7,4.6,0,.1,0,.2,0,.4,0,.1,0,.2,0,.4-.6,2.1-4.8,5.7-5.9,7.4-9.5,13.3-12.9,28.6-3.5,43,1.3,2.1,2.9,2.6,3.6,4,0,0,0,.2.1.3.3.8.4,1.9,0,3.6-2,9.8-6.2,15.2-4.1,26.7.4,2.4,2.2,5.5,3.2,7.8.1.3.3.7.4,1,.1.3.2.7.2.9.7,4.4-3.9,16.6-4.7,22-.4,3.1-.3,6.4-.6,9.6-.2,1.6-.2,2.7-.4,4.1,0,.1,0,.2,0,.3-.1.5-.2,1.1-.4,1.7-1.8,5.7-7.3,15.8-5,18.4.7.8,2.3,1.2,6.3-.2.9-.5,1.9-1,2.9-1.5.8,4.1,2.5,5.5,3.6,6.1,7.3,4.2,20.7-11.1,21.8-13.2.5-1,.8-2,.8-2,0-.3.2-.6.2-.9.2-.7.2-1.3.2-1.5,0-.3,0-.9.1-1.5h0c.2-2.4.9-6.6,2-9.8,1.1-3.1,2.3-6.6,5.4-8.3.9-.5,1.8-.8,2.6-1.1,1.1-.4,2.2-1,3-2.3.5-.8.5-1.1,1-2.7,0,0,0,0,0,0,.1-.6,1.6-4.7,4.2-8.7.4-.6,1-1.5,1.8-2.4.4-.5.9-1.1,1.5-1.7.2,0,.4,0,.7.2.8.4.8,1.6.8,2.1.2,2.6-3,5-3.9,8.7-.5,2,.2,2.4.4,6.2,0,.3,0,.6,0,.9.2,3.5,0,6.3-.3,8.1-.5,4.1.2,7.7.8,11.4.2.9.3,1.9.4,2.8.2,1.8.3,3.7,0,5.6-.1,1-.3,1.9-.6,2.9-1,3.8-7.8,13.7-2.5,16.5,3,1.6,5.3-1.2,6.8-.9,0,0,0,0,0,0,.3,0,.5.4.8.9,1,1.4,2.4,4.1,7.2,3.5,2.9-.4,10.6-5,12.6-8.9.4-.7.5-1.4.5-2.1l1.3-1.3c.4,0,.8-.1,1.1-.2,1-.3,1.7-1,2.4-2,.4-.5,1-1.3,1.5-2.3,0-.1.8-1.3,1.4-3,.2-.5.4-1.1.5-1.6.7-2.6.6-4.7.4-6.7-.2-2.3-.4-4.4.6-6.9.7-1.5,1.7-3,3.2-4.7,5.9-6,14.2-7.6,18.8-8.6.4,0,.7-.2,1-.2,1.7-.4,3.6-1,5.6-1.9,5-2.2,10.8-6.2,16.9-13.7,1-1.1,1.9-2.4,2.9-3.7,0,0,.2.1.3.2,2.4,1.5,5.8,3.1,10.1,3.4,3.1.2,5.3-.5,6.7-.8,0,0,0,0,0,0,.2,0,.3,0,.5-.1,4.1-.9,10.1-1.3,19,1.1,0,0,0,0,.1,0h0ZM285,415.8c.5.2,1.1.3,1.7.5-.6-.1-1.2-.3-1.7-.5ZM283.6,415.2c-.8-.3-1.4-.8-2-1.2.7.4,1.4.8,2,1.2ZM278.3,410.4c-.3-.5-.6-1-.8-1.6.3.6.5,1.1.8,1.6ZM376.3,363.9c-1.4-1-2.5-2.3-3-3.6-.8-2.3-.4-5.8.9-8.3.7-1.3,1.5-2,2.3-2.2h.4c1.4,0,3.6,1.5,4.3,3.3,1.5,3.3-1.4,8.2-5,10.8ZM301.4,164.6s0-.2-.3-.2c0,0,.3.3.3.2Z"/>
    <g>
      <path class="st14" d="M209.1,247.2c6.5,1.1,11,.2,14.1-1.1,2.8-1.1,4.2-2.4,15.7-9,1-.6,2-1.2,2.2-1.3,4.7-2.7,15.3-3.4,40.5,4"/>
      <path class="st19" d="M333.5,331.7c1.8,0,3.6,0,5.5-.4,14-1.9,30.2-11.6,32.8-25.7,1.4-7.5-1.8-14.5-4-19.6-3.6-8.1-10.1-13.5-14.4-16.9-.8-.6-1.4-1.2-2-1.7-1.2-1-2.9-.9-3.9.3-1,1.2-.9,2.9.3,3.9.6.5,1.4,1.2,2.2,1.9,3.9,3.1,9.8,8,12.8,14.8,2.1,4.7,4.7,10.7,3.6,16.4-2,11.1-15.8,19.5-28.1,21.2-11.2,1.5-20.2-2.6-30.7-7.5-6.1-2.8-9.7-5.2-13.3-7.7-4.1-2.8-8-5.3-14.7-8.1-8.2-3.3-17-5.3-26.2-5.9-1.5,0-2.9,1-3,2.5s1,2.9,2.5,3c8.6.6,16.8,2.5,24.5,5.6,6.3,2.5,9.8,5,13.7,7.5,3.7,2.5,7.6,5.2,14.1,8.1,9.2,4.2,18.1,8.3,28.4,8.3h0Z"/>
      <path class="st19" d="M256.6,330.2c10.6,0,22.5-3,34.4-8.8,1.4-.7,1.9-2.4,1.3-3.7s-2.4-1.9-3.7-1.3c-21.9,10.8-43.9,11.1-54.4.5-4.8-4.7-6.4-10.8-6.9-12.5-3.9-17.6,13-32.9,13.7-33.4,1.2-1,1.3-2.8.3-3.9-1-1.2-2.8-1.3-3.9-.3-2,1.9-20,18.4-15.4,38.8.5,2.1,2.5,9.5,8.4,15.3,6.3,6.2,15.7,9.3,26.5,9.3h-.2Z"/>
      <path class="st3" d="M299.5,313.5"/>
      <g>
        <path class="st19" d="M316.3,298.9c10.6,5.7,15.1,8.8,16.8,7.3s1.2-2.8-1.2-8.2c3.4,0,7.3-.3,7.8-2.1.8-2.6-6.3-7.8-13.1-10.2-2.1-.8-4.2-1.3-6.4-1.6l-4,14.8h.2Z"/>
        <path class="st19" d="M327.6,283.1c-1.3-.4-2.6-.8-4-1.2-.7-.2-1.4-.3-2-.4h0c-.3,0-.6,0-.9-.1l-2.5-.3h0s-3.8,14.4-3.8,14.4l-1.2,4.3-.2.6,1.9,1c1,.5,2,1.1,3,1.6,1.1.6,2.2,1.2,3.1,1.7,5.2,3,8.6,4.7,11,4.7s2-.3,2.9-1.1c2-1.9,1.9-4.7.9-7.8,3.1-.4,5.8-1.4,6.5-3.9,1.7-5.7-9.2-11.6-14.8-13.5ZM336.5,294.8c-.8.2-2.2.4-4.6.4h-4.1l1.6,3.8c1,2.3,1.4,3.6,1.5,4.5-1.5-.7-4.2-2.1-7.1-3.7-1.3-.7-2.7-1.4-4.2-2.3l2.7-10.2c1.2.3,2.4.6,3.5,1,5.1,1.9,9.2,4.8,10.8,6.5Z"/>
      </g>
      <path class="st19" d="M321.5,281.5h-1c-.8-.3-1.6-.4-2.4-.4-9.1-.9-17.1,1.3-20.5,3.9-1.4,1.1-2,2.3-2.2,3.2,0,.2,0,.3,0,.5-.3,3,2,4.1,6.9,6.3.2,0,.4.2.6.3,2.5,1.2,5.7,2.7,10.1,5,.4.2.8.4,1.2.6h-.2l3.8,1.9h0s.2-.8.2-.8l.5-2,.6-2.4,3.5-13.2.7-2.7h0c0-.1-2.1-.4-2.1-.4ZM316.7,286.5l-2.2,8.4c-4.3-2.3-7.4-3.7-9.7-4.8-.9-.4-1.9-.9-2.6-1.3h0c2.4-1.2,7.9-2.7,14.6-2.3Z"/>
      <path class="st19" d="M341,385.8c.4,0,.8-.2,1.3-.4,5.1-3.6,14.4-11.4,19.3-24.7,6.2-16.5,0-32.8-1.9-38.1l-.3-.7c-.4-1.2-1.7-1.8-2.9-1.4s-1.8,1.7-1.4,2.9l.3.8c1.9,4.9,7.5,20,1.9,35-4.6,12.2-13,19.4-17.7,22.6-1,.7-1.3,2.1-.6,3,.4.6,1.1.9,1.9.9h0Z"/>
      <path class="st19" d="M233.3,359.2c-5.6-15,0-30.1,1.9-35l.3-.8c.4-1.2-.2-2.5-1.4-2.9-1.2-.4-2.5.2-2.9,1.4l-.3.7c-2,5.3-8.1,21.6-1.9,38.1l4.2-1.5Z"/>
      <g>
        <path d="M306.6,417.5c-1.5,3.6-3.6,7-6.8,10-4.8,4.7-12.7,9.1-15.4,6.8-1.9-1.5-.7-5.7-2.5-6.3-1.7-.6-3.4,2.7-6.3,2.4-1.5-.2-2.7-1.3-3.6-2.3,0,0,5-11.2,5.5-13.3,8.9.9,20.3,1.9,29,2.7h0Z"/>
        <path class="st19" d="M309,415.5h-1.3c0-.1-.9-.2-.9-.2-4.6-.5-9.8-1-15-1.4-4.3-.4-8.6-.8-12.6-1.2-.5,0-1,0-1.5-.1h-1.2c0-.1-.6-.2-.6-.2l-.4,1.9c-.3,1.4-3.5,8.7-5.3,13l-.6,1.3.8,1.1c1.4,1.9,3.1,2.9,5,3,2.1.2,3.7-.8,4.8-1.6.1,0,.2-.2.3-.2,0,0,.3-.3.3-.3,0,.3,0,.5,0,.7,0,.2,0,.4,0,.7.2,1.4.6,3.1,1.9,4.2.9.8,2.1,1.1,3.5,1.1h.2c4.9,0,11.6-4.9,14.7-8,3-2.9,5.4-6.5,7.2-10.7l1.2-2.8h-.8ZM303.3,419.3c-1.4,2.5-3,4.7-4.9,6.5-5.2,5.1-11.6,7.5-12.6,6.7-.3-.3-.4-1.4-.5-2-.3-1.5-.6-3.9-2.7-4.7-.4-.2-.8-.2-1.2-.2v-.2c-1.3,0-2.4.8-3.2,1.4-.9.8-1.6,1.1-2.3,1.1s-.8-.3-1.2-.5c1.2-2.6,3.3-7.6,4.4-10.5,3.5.4,7.3.8,11.1,1.1.4,0,.9,0,1.3.1,4,.3,8,.8,11.7,1.1,0,0,0,0,0,0Z"/>
      </g>
      <g>
        <path d="M219.8,414.8c.8,1,2,2.1,3.6,2.3,2.9.3,4.7-3,6.3-2.3,1.9.7.7,4.7,2.5,6.3,2.7,2.3,10.8-1.9,15.7-6.4,2.4-2.2,4.3-4.7,5.8-7.4-8.6-2.5-19.4-5.1-28.1-7.7v1.9c0,1-5.8,13.3-5.8,13.3h0Z"/>
        <path class="st19" d="M255.7,406.3l-1.5-.4-.5-.2c-4.4-1.4-9.5-2.7-14.4-4-4.7-1.2-9.5-2.5-13.7-3.7h0s-.1,0-.1,0l-2.7-.8v4.7c-.4,1.4-3.1,7.4-5.6,12.6l-.6,1.3.8,1.1c1.4,1.9,3.1,3,5,3.1,2.3.3,4.1-1,5.2-1.8,0,0,.3-.3.3-.3,0,.3,0,.5,0,.7.2,1.5.4,3.6,2,4.8h.2c.9.8,2.1,1.1,3.5,1.1,4.9,0,11.8-4.7,15-7.7,2.5-2.3,4.5-4.9,6.2-8l1.4-2.4-.6-.2ZM238.1,406.1h0c2.8.7,5.6,1.5,8.2,2.2.6.2,1.3.4,1.9.5h0c.5.1.9.3,1.4.4-1.2,1.7-2.5,3.1-3.9,4.5-5.3,4.9-11.9,7.2-12.9,6.3-.3-.2-.5-1.4-.5-1.9-.2-1.5-.4-3.9-2.6-4.7-1.8-.7-3.4.4-4.5,1.2-1,.7-1.7,1-2.4,1-.4,0-.8-.3-1.2-.6,3.6-8,4.8-10.8,5.2-12,3.6,1,7.5,2,11.2,3Z"/>
      </g>
      <path class="st19" d="M397,368.3c-.3-1.4-1.8-2.5-3.3-2.1-4.5,1-8.5.9-11.8.2,4.2-4.2,6.6-10.3,4.3-15.5-1.7-3.8-6.4-7.4-10.9-6.4-2.4.5-4.5,2.2-6,4.9-2.2,3.9-2.7,9.1-1.4,12.9.5,1.4,1.4,2.7,2.4,3.9h0s0,0,0,0c-1.1,0-2.4,0-3.6-.3-2.5-.8-4.1-2.3-5.2-3.4-.2-.2-.3-.3-.5-.4-.3-.2-.6-.4-1-.4-.8-.2-1.7,0-2.4.6-.9.8-1.1,2-.8,3,.1.3.3.6.5.9.3.4.7.8,1.2,1.2.2.2.4.4.7.6,1.5,1.3,3.5,2.5,6,3.2,4.5,1.3,8.5.2,10.8-.7,0,0,0,0,0,0,.1,0,.2,0,.3-.1h0c0,0,.1,0,.2,0,3.2,1.4,6.9,2.1,11,2.1s4.8-.3,7.4-.8c.2,0,.4-.1.7-.2,0,0,0,0,.1,0,1-.6,1.6-1.8,1.4-3ZM376.3,363.9c-1.4-1-2.5-2.3-3-3.6-.8-2.3-.4-5.8.9-8.3.7-1.3,1.5-2,2.3-2.2h.4c1.4,0,3.6,1.5,4.3,3.3,1.5,3.3-1.4,8.2-5,10.8Z"/>
      <path class="st19" d="M330.5,308.7c.8,0,1.5-.4,1.9-1.1.6-1,.3-2.4-.8-3-11.9-7.1-23.6-12.5-35-16-4.2-1.3-9.2-2.6-15.5-1.8-8.8,1.2-14.9,5.8-17.7,8.5-.9.8-.9,2.2,0,3.1s2.2.9,3.1,0c2.5-2.3,7.7-6.3,15.2-7.4,5.3-.7,9.7.4,13.5,1.6,11,3.4,22.4,8.6,34,15.6.3.3.8.3,1.1.3h.2Z"/>
      <path class="st19" d="M320.3,284.7c.3,0,.5-.2.5-.4l.5-1.9c0-.3,0-.6-.4-.7-.3,0-.6,0-.7.4l-.5,1.9c0,.3,0,.6.4.7h.2,0Z"/>
      <g>
        <ellipse class="st19" cx="209.3" cy="208.7" rx="5.6" ry="2.7" transform="translate(-52.7 345.6) rotate(-72.5)"/>
        <g>
          <path class="st14" d="M207.8,245.7c6.5,1.1,11,.2,14.1-1.1,2.8-1.1,4.2-2.4,15.7-9,1-.6,2-1.2,2.2-1.3,4.7-2.7,15.3-3.4,40.5,4"/>
          <path class="st19" d="M347.7,270.6c.3,0,.4,0,.7,0,1.5-.4,2.4-1.9,2-3.4-.3-1.4-.8-3-1.2-4.7-1.9-8.2-4.4-18.4-9.6-28.2-1-1.9-1.9-3.8-3-5.8-5.3-10.4-10.4-20.3-15.5-26.2-1-1.2-2.8-1.3-3.9-.3-1.2,1-1.3,2.8-.3,3.9,4.7,5.3,9.8,15.4,14.7,25.1,1,1.9,2,3.9,3,5.8,4.8,9.2,7.2,19,9.1,27,.4,1.7.8,3.3,1.2,4.7.3,1.3,1.4,2.1,2.7,2.1h0Z"/>
          <path class="st19" d="M304.8,225.2c.5,0,.9,0,1.4-.3,3.6-2.1,8.5-5.9,11.5-12.2,3.9-8.1,2.4-15.8,1.4-20.8-2.5-12.5-9.5-21.5-15-26.8l-2.6-2.5-16.5,30.3c-.8,1.4-.3,3,1.1,3.7,1.4.8,3,.3,3.7-1.1l13-23.8c4.3,4.9,9.1,12,10.8,21.3.9,4.9,2.1,10.9-.9,17.4-2.4,5.1-6.3,8.1-9.3,9.8-1.4.8-1.8,2.5-1,3.8.5.8,1.4,1.4,2.4,1.4h.2Z"/>
          <path class="st19" d="M281,180.3c.3,0,.5,0,.8,0,1.4-.4,2.3-1.9,1.9-3.5-1.2-4.1-3-8.2-5.3-11.9-2.8-4.5-6.3-8.6-10.6-11.9l-3-2.4-9.9,25.2c-.6,1.4.2,3,1.6,3.6,1.4.6,3-.2,3.6-1.6l7.1-18.1c2.5,2.4,4.7,5,6.4,8,2,3.2,3.6,6.8,4.7,10.5.3,1.2,1.4,2,2.6,2h.2Z"/>
          <path class="st19" d="M293.8,179.6c-.3-.1-.6-.2-.9-.4-.2,0-.3-.1-.5-.2-2.2-.8-5.3-1.7-8.8-2.5-.6-.1-1.2-.3-1.8-.4-1.4-.3-2.9-.6-4.4-.8-3.4-.6-6.8-.9-9.7-.9-2.4,0-4.5.2-6.4.5-2.9.4-5,.9-6.4,1.3-.1,0-.3,0-.4.1-.4.1-.7.2-.9.3-3.1,1.2-6.6,3.1-10,5.1-1.1.7-2.2,1.3-3.2,2-1.8,1.2-3.5,2.3-5,3.3-1.9,1.3-3.6,2.5-4.3,2.8-1.8.8-4.1.8-4.1.8h-.8c-1.7,0-4.7-.8-6.9-1.4-2.2-.6-3.6-.9-4.6-.9-7-.2-13.6,6-16.8,11.9-4.9,9.4-4.2,23.4,5.5,29.6h0c1,.6,2.2,1.1,3.3,1.6.4.1.8.3,1.2.4,1.8.6,3.8.8,5.7.8s1.1,0,1.6,0c5.1-.4,10.1-2.5,14-6.3,8-7.7,7.9-19,4.5-26.2-.8-1.6-1.7-3.1-2.9-4.5.8-.2,1.6-.4,2.5-.8,1-.5,2.7-1.6,5-3.1,4.6-3,11.6-7.7,17-9.7,1.1-.4,5.3-1.9,12.3-1.9,7-.1,17,2.3,22.1,4,.7.3,1.4.5,1.9.7,1.4.6,3,0,3.6-1.4.6-1.4,0-3-1.4-3.6ZM225.5,222.5c-5.3,5.2-13.5,6.3-19,2.8-7.5-4.8-6.9-16.1-3.6-22.4,2.4-4.5,7.3-9.1,11.6-9,.4,0,2.1.4,3.4.8h0c2,.6,4.3,1.2,6.3,1.4.2.5.4.9.8,1.4,1.6,1.5,2.9,3.2,3.7,5.1,2.6,5.8,2.4,14.4-3.3,19.9Z"/>
          <ellipse class="st19" cx="219.1" cy="211.9" rx="5.6" ry="2.7" transform="translate(-48.9 357.2) rotate(-72.5)"/>
          <path class="st19" d="M258.2,274.7c1.4,0,2.5-1,2.7-2.5.2-1.5-.8-2.9-2.4-3.1-5.1-.7-9.9-2.1-14.4-4.2-15.1-7.3-22.4-20.8-25.4-28.4-.6-1.4-2.2-2.1-3.6-1.5s-2.1,2.2-1.5,3.6c3.3,8.2,11.3,23.2,28.2,31.2,5,2.4,10.4,4,16.1,4.7h.3Z"/>
          <circle class="st19" cx="263" cy="208.9" r="6.1"/>
          <path d="M258.5,236.4c.2,1.1.4,3,0,5.1-.3,1.9-1.6,6.3-5.7,8.9-3.1,1.9-6.3,1.9-7.6,1.9-8.1-.5-12.4-9-12.7-9.5,8.6-2.1,17.3-4.2,26-6.3Z"/>
          <path class="st19" d="M234.5,245c1.2,0,2.4,0,3.6-.2,7.7-.9,15.2-3.6,22.1-8.1,1.3-.8,1.7-2.5.8-3.8s-2.5-1.7-3.8-.8c-6.2,4-12.9,6.4-19.7,7.3-4.1.5-8.2,0-13-1.7-5.9-2-9.9-5.2-11.6-7.4-.9-1.2-2.7-1.4-3.9-.4-1.2.9-1.4,2.7-.4,3.9,1.1,1.4,5.3,6.2,14.2,9.1,4.2,1.4,8.1,2.2,11.9,2.2h-.3Z"/>
          <path class="st19" d="M265.3,238.9h0c1.5,0,2.8-1.3,2.8-2.8s-1.3-2.8-2.8-2.8h0c-.5,0-2.9,0-4.4-1.9-.9-1-1.2-2.2-1.4-3-.2-1.5-1.6-2.6-3.1-2.4-1.5.2-2.6,1.6-2.4,3.1.2,1.6.8,3.9,2.6,6,3,3.6,7.4,3.8,8.6,3.8h0Z"/>
          <g>
            <path class="st12" d="M255.5,242c-2.1-2.5-13.1,4-12.3,7.6,3.1,2.8,13.2-4,12.3-7.6Z"/>
            <path d="M245.2,251.1c-1,0-1.9-.3-2.6-.9l-.2-.2v-.3c-.7-2.7,3-5.9,6.7-7.8,1.6-.8,5.4-2.5,7-.6v.2c.1,0,.2.2.2.2.6,2.5-2.2,5.5-5.4,7.4-1.8,1.1-3.9,1.9-5.7,1.9ZM244,249.1c1.1.7,3.5,0,6-1.4,2.7-1.7,4.7-4,4.6-5.3-.6-.3-2.4,0-4.8,1.1-3.2,1.6-5.8,4.2-5.9,5.6Z"/>
          </g>
        </g>
      </g>
      <path class="st19" d="M301.4,422.5c0,0-.2,0-.3,0-3.4,0-6.5-.3-10.5-1.3-3-.7-6-1.7-8.7-3-3-1.3-5.5-3.8-6.8-6.9-2.5-5.9-5-15.1-2.9-26,3.3-17.1,15.9-26.6,21.1-29.9,1.4-.9,3.2-.5,4.1.9.9,1.4.5,3.2-.9,4.1-4.6,2.9-15.6,11.2-18.5,26-1.8,9.4.4,17.5,2.5,22.6.7,1.6,2.1,3.1,3.7,3.8,2.5,1.1,5.1,2,7.7,2.6,3.5.8,6.1,1,9.3,1.1,2,0,3.7-1.3,4-3.3,1.7-9.3,5.4-16.5,11-21.4,4.2-3.7,8.2-5.1,12.4-6.5,3.2-1.1,6.6-2.3,10.6-4.7,8.2-5,13.1-13.2,17-20.4.8-1.4,2.6-2,4-1.2,1.4.8,2,2.6,1.2,4-4.3,8-9.6,17-19.1,22.7-4.5,2.7-8.3,4-11.7,5.2-4,1.4-7.1,2.4-10.4,5.3-4.6,4-7.6,10.1-9.1,18-.8,4.8-4.9,8.2-9.8,8.2Z"/>
      <path class="st19" d="M248.6,411.4c-.7,0-1.3-.1-2-.4-3-1-6-2.1-9.1-3.1-3-1-6.1-2.1-9.1-3.1-3.2-1.1-5.3-4-5.4-7.3-.3-8,.3-15.6,2.1-23,.6-2.7,1-4.6,1.4-6.1.8-3.5,1.1-5,2.3-8.2.5-1.3,1.9-2,3.3-1.5,1.3.5,2,1.9,1.5,3.3-1.1,2.9-1.3,4.2-2.1,7.6-.3,1.5-.8,3.5-1.4,6.2-1.6,7-2.3,14.1-2,21.7,0,1.2.8,2.3,2,2.7,3,1,6,2.1,9.1,3.1,3,1,6.1,2.1,9.1,3.1.6.2,2-.2,4.2-2.1,1.4-1.2,1.7-2.6,2.2-5.3.4-2,.8-4.6,2.1-7.4,1.4-3,2.8-4.4,4.6-6.1,1.1-1,2.3-2.2,3.8-4,3.7-4.3,6.7-9.5,9.1-15.4.5-1.3,2-1.9,3.3-1.4,1.3.5,1.9,2,1.4,3.3-2.6,6.4-5.9,12-9.9,16.8-1.7,2.1-3.1,3.3-4.2,4.4-1.6,1.5-2.5,2.4-3.5,4.5-1.1,2.3-1.4,4.3-1.7,6.2-.5,2.8-1,5.7-3.8,8.2-1.1.9-3.9,3.5-7.2,3.5Z"/>
      <path class="st19" d="M244.8,372c-.4,0-.9-.1-1.3-.4-.9-.7-1.6-1.2-2.1-1.5-2-1.5-2.1-1.5-5.1-4-1-.8-2.3-1.9-4.2-3.4-7.2-5.8-5.8-17.9-5.1-23.1,0-.5.1-.8.1-1.2.1-1.2,1.1-2,2.3-1.9,1.2.1,2,1.1,1.9,2.3,0,.3,0,.8-.1,1.2-.5,4.1-1.8,14.9,3.6,19.3,1.9,1.5,3.2,2.6,4.2,3.4q3,2.5,5,3.9c.5.4,1.2.9,2.1,1.5.9.7,1.1,2,.5,3-.4.6-1.1.9-1.7.9Z"/>
    </g>
  </g>
  <g id="popup_salario">
    <rect class="st5" x="96.3" y="92.6" width="160.4" height="60.3" rx="9.8" ry="9.8"/>
    <rect class="st18" x="161.9" y="127.1" width="47.3" height="13.5" rx="4.6" ry="4.6"/>
    <rect class="st8" x="105.7" y="102" width="41.5" height="41.5" rx="9" ry="9"/>
    <g>
      <path d="M167.8,114.6c0-.4-.2-.7-.5-.9-.3-.2-.7-.3-1.2-.3s-.7,0-.9.2-.5.3-.6.4-.2.4-.2.6c0,.2,0,.4.1.5,0,.1.2.3.4.4.2.1.3.2.5.3s.4.1.6.2l.9.2c.4,0,.7.2,1,.3.3.1.6.3.9.5.3.2.5.5.6.8s.2.7.2,1.1-.1,1-.4,1.5-.7.7-1.2,1c-.5.2-1.2.4-1.9.4s-1.4-.1-1.9-.3c-.5-.2-1-.6-1.3-1-.3-.4-.5-1-.5-1.6h1.7c0,.3.1.6.3.8.2.2.4.4.7.5.3.1.6.2,1,.2s.7,0,1-.2c.3-.1.5-.3.7-.5.2-.2.2-.4.2-.7,0-.2,0-.5-.2-.6-.1-.2-.3-.3-.6-.4s-.6-.2-.9-.3l-1.1-.3c-.8-.2-1.4-.5-1.8-.9-.5-.4-.7-1-.7-1.6s.2-1,.5-1.5.7-.7,1.2-1c.5-.2,1.1-.3,1.8-.3s1.3.1,1.8.3.9.6,1.2,1c.3.4.4.9.4,1.4h-1.6Z"/>
      <path d="M173,121.6c-.4,0-.9,0-1.2-.2-.4-.2-.6-.4-.8-.7-.2-.3-.3-.7-.3-1.2s0-.7.2-1c.1-.3.3-.5.6-.6.3-.2.5-.3.9-.4.3,0,.7-.1,1-.2.4,0,.8,0,1-.1.3,0,.4,0,.6-.2.1,0,.2-.2.2-.4h0c0-.4-.1-.6-.3-.8s-.5-.3-.9-.3-.7,0-1,.3c-.2.2-.4.4-.5.6l-1.6-.2c.1-.4.3-.8.6-1.1.3-.3.6-.5,1-.7.4-.1.9-.2,1.4-.2s.7,0,1,.1c.3,0,.6.2.9.4.3.2.5.4.7.7.2.3.3.7.3,1.2v4.7h-1.6v-1h0c-.1.2-.2.4-.4.6-.2.2-.4.3-.7.4-.3.1-.6.2-1,.2ZM173.5,120.4c.3,0,.6,0,.9-.2.2-.1.4-.3.6-.5.1-.2.2-.5.2-.7v-.8c0,0-.1,0-.3.1-.1,0-.3,0-.4,0-.2,0-.3,0-.5,0-.2,0-.3,0-.4,0-.2,0-.5,0-.7.2-.2,0-.4.2-.5.3s-.2.3-.2.5c0,.3.1.5.3.7.2.2.5.2.9.2Z"/>
      <path d="M180.1,112v9.5h-1.7v-9.5h1.7Z"/>
      <path d="M183.9,121.6c-.4,0-.9,0-1.2-.2-.4-.2-.6-.4-.8-.7-.2-.3-.3-.7-.3-1.2s0-.7.2-1c.1-.3.3-.5.6-.6.3-.2.5-.3.9-.4.3,0,.7-.1,1-.2.4,0,.8,0,1-.1.3,0,.4,0,.6-.2.1,0,.2-.2.2-.4h0c0-.4-.1-.6-.3-.8s-.5-.3-.9-.3-.7,0-1,.3c-.2.2-.4.4-.5.6l-1.6-.2c.1-.4.3-.8.6-1.1.3-.3.6-.5,1-.7.4-.1.9-.2,1.4-.2s.7,0,1,.1c.3,0,.6.2.9.4.3.2.5.4.7.7.2.3.3.7.3,1.2v4.7h-1.6v-1h0c-.1.2-.2.4-.4.6-.2.2-.4.3-.7.4-.3.1-.6.2-1,.2ZM184.3,120.4c.3,0,.6,0,.9-.2.2-.1.4-.3.6-.5.1-.2.2-.5.2-.7v-.8c0,0-.1,0-.3.1-.1,0-.3,0-.4,0-.2,0-.3,0-.5,0-.2,0-.3,0-.4,0-.2,0-.5,0-.7.2-.2,0-.4.2-.5.3s-.2.3-.2.5c0,.3.1.5.3.7.2.2.5.2.9.2ZM184.2,113.4l1-2.1h1.6l-1.4,2.1h-1.3Z"/>
      <path d="M189.3,121.4v-7.1h1.6v1.2h0c.1-.4.4-.7.7-.9.3-.2.7-.3,1.1-.3s.2,0,.3,0c.1,0,.2,0,.3,0v1.5c0,0-.2,0-.3,0-.2,0-.3,0-.4,0-.3,0-.6,0-.8.2s-.4.3-.6.5c-.1.2-.2.5-.2.8v4.2h-1.7Z"/>
      <path d="M195.3,113.3c-.3,0-.5,0-.7-.3-.2-.2-.3-.4-.3-.6s0-.5.3-.6c.2-.2.4-.3.7-.3s.5,0,.7.3c.2.2.3.4.3.6s0,.5-.3.6c-.2.2-.4.3-.7.3ZM194.5,121.4v-7.1h1.7v7.1h-1.7Z"/>
      <path d="M201,121.6c-.7,0-1.3-.2-1.8-.5s-.9-.7-1.2-1.3c-.3-.5-.4-1.2-.4-1.9s.1-1.4.4-1.9c.3-.6.7-1,1.2-1.3s1.1-.5,1.8-.5,1.3.2,1.8.5.9.7,1.2,1.3c.3.6.4,1.2.4,1.9s-.1,1.4-.4,1.9c-.3.5-.7,1-1.2,1.3s-1.1.5-1.8.5ZM201,120.2c.4,0,.7-.1.9-.3.3-.2.4-.5.6-.8s.2-.7.2-1.2,0-.8-.2-1.2-.3-.6-.6-.8c-.3-.2-.6-.3-.9-.3s-.7.1-1,.3c-.3.2-.4.5-.6.8-.1.4-.2.7-.2,1.2s0,.8.2,1.2c.1.4.3.6.6.8s.6.3,1,.3Z"/>
    </g>
    <g>
      <path class="st21" d="M169,137v-6.8h2.7c.5,0,.9,0,1.3.3.4.2.6.4.8.8.2.3.3.7.3,1.2s0,.8-.3,1.2c-.2.3-.5.6-.8.7-.4.2-.8.3-1.3.3h-1.8v-1.1h1.6c.3,0,.5,0,.7-.1.2,0,.3-.2.4-.3,0-.1.1-.3.1-.6s0-.4-.1-.6c0-.2-.2-.3-.4-.4-.2,0-.4-.1-.7-.1h-1v5.6h-1.4ZM172.7,133.9l1.7,3.1h-1.6l-1.6-3.1h1.5Z"/>
      <path class="st21" d="M177.3,137.1c-.5,0-1-.1-1.3-.3-.4-.2-.7-.5-.9-.9-.2-.4-.3-.9-.3-1.4s.1-1,.3-1.4c.2-.4.5-.7.9-.9.4-.2.8-.3,1.3-.3s.6,0,.9.2.5.3.8.5c.2.2.4.5.5.8.1.3.2.7.2,1.1v.4h-4.3v-.9h3c0-.2,0-.4-.1-.5,0-.2-.2-.3-.4-.4-.2,0-.3-.1-.5-.1s-.4,0-.6.1-.3.2-.4.4-.1.3-.1.5v.8c0,.3,0,.5.1.6s.2.3.4.4c.2,0,.4.1.6.1s.3,0,.4,0c.1,0,.2-.1.3-.2,0,0,.2-.2.2-.3h1.3c0,.4-.2.7-.4.9-.2.2-.5.4-.8.5-.3.1-.7.2-1.1.2Z"/>
      <path class="st21" d="M182.9,137.1c-.5,0-1-.1-1.3-.3-.4-.2-.7-.5-.9-.9-.2-.4-.3-.8-.3-1.4s.1-1,.3-1.4c.2-.4.5-.7.9-.9.4-.2.8-.3,1.3-.3s.8,0,1.2.2c.3.2.6.4.8.7.2.3.3.6.3,1h-1.3c0-.3-.1-.5-.3-.6-.2-.2-.4-.2-.6-.2s-.4,0-.6.2-.3.3-.4.5c0,.2-.1.5-.1.8s0,.6.1.8c0,.2.2.4.4.5.2.1.4.2.6.2s.3,0,.4,0,.2-.2.3-.3c0-.1.1-.3.2-.5h1.3c0,.4-.1.7-.3,1-.2.3-.4.5-.8.7-.3.2-.7.2-1.2.2Z"/>
      <path class="st21" d="M188.3,137.1c-.5,0-1-.1-1.3-.3-.4-.2-.7-.5-.9-.9-.2-.4-.3-.9-.3-1.4s.1-1,.3-1.4c.2-.4.5-.7.9-.9.4-.2.8-.3,1.3-.3s.6,0,.9.2.5.3.8.5c.2.2.4.5.5.8.1.3.2.7.2,1.1v.4h-4.3v-.9h3c0-.2,0-.4-.1-.5,0-.2-.2-.3-.4-.4-.2,0-.3-.1-.5-.1s-.4,0-.6.1-.3.2-.4.4-.1.3-.1.5v.8c0,.3,0,.5.1.6s.2.3.4.4c.2,0,.4.1.6.1s.3,0,.4,0c.1,0,.2-.1.3-.2,0,0,.2-.2.2-.3h1.3c0,.4-.2.7-.4.9-.2.2-.5.4-.8.5-.3.1-.7.2-1.1.2Z"/>
      <path class="st21" d="M192.3,131.2c-.2,0-.4,0-.5-.2-.1-.1-.2-.3-.2-.5s0-.4.2-.5c.1-.1.3-.2.5-.2s.4,0,.5.2.2.3.2.5,0,.4-.2.5c-.1.1-.3.2-.5.2ZM191.6,137v-5.1h1.4v5.1h-1.4Z"/>
      <path class="st21" d="M196.8,131.9v1.1h-3.1v-1.1h3.1ZM194.4,130.7h1.4v4.7c0,.1,0,.2,0,.3,0,0,0,.1.2.2,0,0,.2,0,.2,0s.1,0,.2,0c0,0,.1,0,.2,0l.2,1c0,0-.2,0-.3,0-.1,0-.3,0-.5,0-.3,0-.6,0-.9-.1-.3-.1-.5-.3-.6-.5-.1-.2-.2-.5-.2-.8v-4.9Z"/>
      <path class="st21" d="M199.2,137.1c-.3,0-.6,0-.9-.2s-.5-.3-.6-.5-.2-.5-.2-.8,0-.5.2-.7c.1-.2.2-.3.4-.5.2-.1.4-.2.6-.3.2,0,.5-.1.7-.1.3,0,.5,0,.7,0,.2,0,.3,0,.4-.1,0,0,.1-.1.1-.2h0c0-.2,0-.4-.2-.5s-.3-.2-.6-.2-.5,0-.6.2-.2.3-.3.4h-1.3c0-.4.2-.7.4-.9.2-.2.4-.4.8-.5.3-.1.7-.2,1.1-.2s.6,0,.8,0c.3,0,.5.2.7.3.2.1.4.3.5.5.1.2.2.5.2.8v3.4h-1.3v-.7h0c0,.2-.2.3-.3.4-.1.1-.3.2-.5.3-.2,0-.4.1-.7.1ZM199.6,136.1c.2,0,.4,0,.5-.1.2,0,.3-.2.4-.3s.1-.3.1-.5v-.5s-.1,0-.2,0c0,0-.2,0-.3,0s-.2,0-.3,0c0,0-.2,0-.3,0-.2,0-.3,0-.4.1-.1,0-.2.1-.3.2,0,0-.1.2-.1.3,0,.2,0,.3.2.4.1,0,.3.1.5.1Z"/>
    </g>
    <g>
      <path d="M127.3,115.3c1.2-1.2,2.4-2.9,2.8-4.6.1-.5.3-1.1,0-1.6-.5-.2-1.1,0-1.6,0-1.5.3-3.3,1.2-4.8.8-.9-.3-3.3-1.8-3.8-.4-.6,1.5,1.3,4.3,2.5,5.3.2.2.5.3.6.5,0,0,0,0,0,.1-.3.1-.6.3-.9.5-4.6,2.9-9.9,10.9-8.1,16.5,1.4,4.4,6.9,5.4,10.9,5.5.8,0,1.7,0,2.5,0,1.5,0,3.2-.3,4.6-.7,11.8-3.5,2.4-18.9-4.9-21.9ZM126.4,131.6c0,.6,0,1.4-.7,1.5-.9,0-.7-.9-.7-1.5-1-.2-2-.8-2.5-1.7-.3-.5-.5-1.4.3-1.6.8-.2.8.6,1.1,1.1.2.4.7.6,1.1.8h.1v-2.7c-.4-.2-.9-.3-1.4-.5-2.6-1.4-1.2-4.6,1.4-4.8,0-.5-.2-1.4.5-1.5.9-.1.9.8.9,1.5,1.2.1,2.5.9,2.8,2.1.2.9-.8,1.3-1.2.7-.1-.2-.1-.3-.2-.5-.2-.5-.9-.8-1.4-.8v2.6c.5.2,1,.3,1.4.5,2.9,1.4,1.4,5-1.4,5Z"/>
      <path d="M128,128.9c0,.8-.9,1.2-1.6,1.3v-2.6c.7.2,1.6.4,1.6,1.3Z"/>
      <path d="M125,123.5v2.2c0,.1-.3,0-.4,0-.3-.1-.8-.3-.8-.6-.3-.9.5-1.5,1.3-1.6Z"/>
    </g>
  </g>
  <g id="popup_comida">
    <rect class="st5" x="50.8" y="255.7" width="160.7" height="60.3" rx="9.8" ry="9.8"/>
    <rect class="st17" x="116.3" y="290.2" width="47.3" height="13.5" rx="4.6" ry="4.6"/>
    <rect class="st8" x="63.9" y="265.1" width="41.5" height="41.5" rx="8.1" ry="8.1"/>
    <g>
      <path d="M125.1,278.3h-1.7c0-.3-.1-.5-.3-.8-.1-.2-.3-.4-.5-.6-.2-.2-.4-.3-.7-.3-.3,0-.5-.1-.8-.1-.5,0-1,.1-1.4.4s-.7.6-.9,1.1c-.2.5-.3,1.1-.3,1.8s.1,1.3.3,1.8c.2.5.5.9.9,1.1s.8.4,1.4.4.5,0,.8-.1c.2,0,.5-.2.7-.3.2-.1.4-.3.5-.5.1-.2.2-.5.3-.7h1.7c0,.5-.2.9-.4,1.3-.2.4-.5.7-.8,1s-.7.5-1.2.7c-.5.2-1,.3-1.5.3-.8,0-1.6-.2-2.2-.6-.7-.4-1.2-.9-1.5-1.7s-.6-1.6-.6-2.6.2-1.9.6-2.6.9-1.3,1.5-1.7c.7-.4,1.4-.6,2.2-.6s1,0,1.5.2c.5.1.9.4,1.2.6.4.3.6.6.9,1,.2.4.4.9.5,1.4Z"/>
      <path d="M129.7,284.7c-.7,0-1.3-.2-1.8-.5s-.9-.7-1.2-1.3c-.3-.5-.4-1.2-.4-1.9s.1-1.4.4-1.9c.3-.6.7-1,1.2-1.3s1.1-.5,1.8-.5,1.3.2,1.8.5.9.7,1.2,1.3c.3.6.4,1.2.4,1.9s-.1,1.4-.4,1.9c-.3.5-.7,1-1.2,1.3s-1.1.5-1.8.5ZM129.7,283.4c.4,0,.7-.1.9-.3.3-.2.4-.5.6-.8s.2-.7.2-1.2,0-.8-.2-1.2-.3-.6-.6-.8c-.3-.2-.6-.3-.9-.3s-.7.1-1,.3c-.3.2-.4.5-.6.8-.1.4-.2.7-.2,1.2s0,.8.2,1.2c.1.4.3.6.6.8s.6.3,1,.3Z"/>
      <path d="M134.5,284.6v-7.1h1.6v1.2h0c.1-.4.4-.7.7-1,.3-.2.7-.3,1.2-.3s.9.1,1.2.3c.3.2.6.5.7.9h0c.2-.4.4-.7.8-.9.4-.2.8-.4,1.3-.4s1.2.2,1.6.6c.4.4.6,1,.6,1.8v4.8h-1.7v-4.5c0-.4-.1-.8-.4-1-.2-.2-.5-.3-.9-.3s-.7.1-.9.4c-.2.3-.3.6-.3,1v4.4h-1.6v-4.6c0-.4-.1-.7-.3-.9-.2-.2-.5-.3-.9-.3s-.5,0-.7.2c-.2.1-.4.3-.5.5-.1.2-.2.5-.2.8v4.3h-1.7Z"/>
      <path d="M147.1,276.5c-.3,0-.5,0-.7-.3-.2-.2-.3-.4-.3-.6s0-.5.3-.6c.2-.2.4-.3.7-.3s.5,0,.7.3c.2.2.3.4.3.6s0,.5-.3.6c-.2.2-.4.3-.7.3ZM146.2,284.6v-7.1h1.7v7.1h-1.7Z"/>
      <path d="M152.2,284.7c-.6,0-1.1-.1-1.5-.4-.4-.3-.8-.7-1-1.2-.3-.5-.4-1.2-.4-2s.1-1.5.4-2c.3-.5.6-1,1.1-1.2.4-.3.9-.4,1.5-.4s.8,0,1,.2c.3.1.5.3.6.5.2.2.3.4.4.6h0v-3.5h1.7v9.5h-1.6v-1.1h-.1c0,.2-.2.4-.4.5s-.4.4-.6.5c-.3.1-.6.2-1,.2ZM152.7,283.3c.4,0,.7,0,.9-.3.2-.2.4-.5.6-.8.1-.3.2-.7.2-1.2s0-.9-.2-1.2c-.1-.3-.3-.6-.6-.8-.2-.2-.6-.3-.9-.3s-.7,0-.9.3c-.2.2-.4.5-.6.8-.1.3-.2.7-.2,1.2s0,.8.2,1.2c.1.3.3.6.6.8.3.2.6.3.9.3Z"/>
      <path d="M159.8,284.7c-.4,0-.9,0-1.2-.2-.4-.2-.6-.4-.8-.7-.2-.3-.3-.7-.3-1.2s0-.7.2-1c.1-.3.3-.5.6-.6.3-.2.5-.3.9-.4.3,0,.7-.1,1-.2.4,0,.8,0,1-.1.3,0,.4,0,.6-.2.1,0,.2-.2.2-.4h0c0-.4-.1-.6-.3-.8s-.5-.3-.9-.3-.7,0-1,.3c-.2.2-.4.4-.5.6l-1.6-.2c.1-.4.3-.8.6-1.1.3-.3.6-.5,1-.7.4-.1.9-.2,1.4-.2s.7,0,1,.1c.3,0,.6.2.9.4.3.2.5.4.7.7.2.3.3.7.3,1.2v4.7h-1.6v-1h0c-.1.2-.2.4-.4.6-.2.2-.4.3-.7.4-.3.1-.6.2-1,.2ZM160.3,283.5c.3,0,.6,0,.9-.2.2-.1.4-.3.6-.5.1-.2.2-.5.2-.7v-.8c0,0-.1,0-.3.1-.1,0-.3,0-.4,0-.2,0-.3,0-.5,0-.2,0-.3,0-.4,0-.2,0-.5,0-.7.2-.2,0-.4.2-.5.3s-.2.3-.2.5c0,.3.1.5.3.7.2.2.5.2.9.2Z"/>
    </g>
    <g>
      <path class="st16" d="M123.4,299.9h-2.4v-6.2h2.4c.7,0,1.3.1,1.7.4.5.2.9.6,1.1,1.1.3.5.4,1,.4,1.7s-.1,1.2-.4,1.7-.6.8-1.1,1.1-1.1.4-1.8.4ZM122.4,298.8h.9c.4,0,.8,0,1.1-.2s.5-.4.6-.6c.1-.3.2-.7.2-1.1s0-.8-.2-1.1c-.1-.3-.4-.5-.6-.6-.3-.1-.6-.2-1.1-.2h-.9v4Z"/>
      <path class="st16" d="M130,300c-.5,0-1,0-1.3-.3s-.7-.5-.9-.8c-.2-.4-.3-.8-.3-1.3s.1-.9.3-1.3c.2-.4.5-.6.9-.8.4-.2.8-.3,1.3-.3s.6,0,.9.1c.3,0,.5.2.8.4.2.2.4.4.5.7.1.3.2.6.2,1v.4h-4.3v-.8h2.9c0-.2,0-.4-.1-.5,0-.1-.2-.3-.4-.3s-.3-.1-.5-.1-.4,0-.6.1c-.2,0-.3.2-.4.4,0,.2-.1.3-.1.5v.8c0,.2,0,.4.1.6,0,.2.2.3.4.4.2,0,.4.1.6.1s.3,0,.4,0c.1,0,.2-.1.3-.2s.2-.2.2-.3h1.3c0,.4-.2.6-.4.8-.2.2-.5.4-.8.5-.3.1-.7.2-1.1.2Z"/>
      <path class="st16" d="M137.4,296.6h-1.3s0-.1-.1-.2c0,0-.2-.1-.3-.2s-.3,0-.4,0-.4,0-.5.1-.2.2-.2.3,0,.2.1.3c0,0,.3.1.5.2l.9.2c.5,0,.9.2,1.1.5.2.2.4.5.4.8s0,.6-.3.8c-.2.2-.5.4-.8.5-.3.1-.7.2-1.2.2-.7,0-1.2-.1-1.6-.4-.4-.3-.6-.6-.7-1.1h1.4c0,.1.1.3.3.4.2,0,.4.1.6.1s.4,0,.6-.1.2-.2.2-.3c0-.1,0-.2-.2-.3-.1,0-.3-.1-.5-.2l-.9-.2c-.5,0-.9-.2-1.1-.5-.2-.2-.4-.5-.4-.9s0-.6.3-.8c.2-.2.4-.4.7-.5.3-.1.7-.2,1.1-.2.6,0,1.1.1,1.5.4.4.2.6.6.6,1Z"/>
      <path class="st16" d="M138.4,301.6v-6.4h1.4v.8h0c0-.1.2-.3.3-.4s.3-.2.5-.3.4-.1.7-.1.7,0,1,.3.6.4.7.8.3.8.3,1.3,0,1-.3,1.3c-.2.4-.4.6-.7.8s-.7.3-1,.3-.5,0-.7-.1-.3-.2-.5-.3c-.1-.1-.2-.3-.3-.4h0v2.5h-1.4ZM139.8,297.6c0,.3,0,.5.1.7,0,.2.2.4.4.5.2.1.3.2.6.2s.4,0,.6-.2c.2-.1.3-.3.4-.5s.1-.4.1-.7,0-.5-.1-.7c0-.2-.2-.4-.4-.5-.2-.1-.4-.2-.6-.2s-.4,0-.6.2c-.2.1-.3.3-.4.5,0,.2-.1.4-.1.7Z"/>
      <path class="st16" d="M146.5,300c-.5,0-1,0-1.3-.3s-.7-.5-.9-.8c-.2-.4-.3-.8-.3-1.3s.1-.9.3-1.3c.2-.4.5-.6.9-.8.4-.2.8-.3,1.3-.3s.6,0,.9.1c.3,0,.5.2.8.4.2.2.4.4.5.7.1.3.2.6.2,1v.4h-4.3v-.8h2.9c0-.2,0-.4-.1-.5,0-.1-.2-.3-.4-.3s-.3-.1-.5-.1-.4,0-.6.1c-.2,0-.3.2-.4.4,0,.2-.1.3-.1.5v.8c0,.2,0,.4.1.6,0,.2.2.3.4.4.2,0,.4.1.6.1s.3,0,.4,0c.1,0,.2-.1.3-.2s.2-.2.2-.3h1.3c0,.4-.2.6-.4.8-.2.2-.5.4-.8.5-.3.1-.7.2-1.1.2Z"/>
      <path class="st16" d="M154,296.6h-1.3s0-.1-.1-.2c0,0-.2-.1-.3-.2s-.3,0-.4,0-.4,0-.5.1-.2.2-.2.3,0,.2.1.3c0,0,.3.1.5.2l.9.2c.5,0,.9.2,1.1.5.2.2.4.5.4.8s0,.6-.3.8c-.2.2-.5.4-.8.5-.3.1-.7.2-1.2.2-.7,0-1.2-.1-1.6-.4-.4-.3-.6-.6-.7-1.1h1.4c0,.1.1.3.3.4.2,0,.4.1.6.1s.4,0,.6-.1.2-.2.2-.3c0-.1,0-.2-.2-.3-.1,0-.3-.1-.5-.2l-.9-.2c-.5,0-.9-.2-1.1-.5-.2-.2-.4-.5-.4-.9s0-.6.3-.8c.2-.2.4-.4.7-.5.3-.1.7-.2,1.1-.2.6,0,1.1.1,1.5.4.4.2.6.6.6,1Z"/>
      <path class="st16" d="M156.4,300c-.3,0-.6,0-.9-.2s-.5-.3-.6-.5c-.1-.2-.2-.5-.2-.8s0-.5.2-.7c.1-.2.2-.3.4-.4s.4-.2.6-.2.5,0,.7-.1c.3,0,.5,0,.7,0,.2,0,.3,0,.4-.1,0,0,.1-.1.1-.2h0c0-.2,0-.4-.2-.5-.1-.1-.3-.2-.6-.2s-.5,0-.6.2c-.1.1-.2.2-.3.4h-1.3c0-.4.2-.6.4-.8.2-.2.4-.4.7-.5.3-.1.7-.2,1.1-.2s.5,0,.8,0c.3,0,.5.2.7.3.2.1.4.3.5.5.1.2.2.4.2.7v3.2h-1.3v-.6h0c0,.1-.2.3-.3.4s-.3.2-.5.3c-.2,0-.4,0-.7,0ZM156.8,299.1c.2,0,.4,0,.5-.1.2,0,.3-.2.4-.3s.1-.3.1-.4v-.5s-.1,0-.2,0c0,0-.2,0-.3,0,0,0-.2,0-.3,0,0,0-.2,0-.3,0-.2,0-.3,0-.4.1s-.2.1-.3.2-.1.2-.1.3c0,.2,0,.3.2.4.1,0,.3.1.5.1Z"/>
    </g>
    <g>
      <path d="M96.4,292h-23.5c-.7,0-1.2-.6-1.4-1.3v-.5c.2-.7.7-1.2,1.4-1.3h23.5c1.9.2,1.9,2.9,0,3.1Z"/>
      <path d="M78.1,287.4h-5.3c0,0-.4-.1-.5-.2-.4-.2-.7-.7-.8-1.1v-.5c.4-1.7,2.2-1.2,3.6-1.3l3.1,3.1Z"/>
      <path d="M89.2,274.1c-4.9-1.5-11.5-.5-14.5,3.9-.9,1.4-1.5,3.1-1.6,4.7h23.2c-.2-4.2-3.1-7.4-7.1-8.6ZM79.3,280.4c-.4,0-.8-.3-.8-.8s.3-.8.8-.8.8.3.8.8-.3.8-.8.8ZM82.4,278.1c-.4,0-.8-.3-.8-.8s.3-.8.8-.8.8.3.8.8-.3.8-.8.8ZM84.7,280.4c-.4,0-.8-.3-.8-.8s.3-.8.8-.8.8.3.8.8-.3.8-.8.8ZM87,278.1c-.4,0-.8-.3-.8-.8s.3-.8.8-.8.8.3.8.8-.3.8-.8.8ZM90.1,280.4c-.4,0-.8-.3-.8-.8s.3-.8.8-.8.8.3.8.8-.3.8-.8.8Z"/>
      <path d="M96.2,293.5c0,1.3-.8,2.4-1.7,3.2-1.3,1-2.9,1.3-4.5,1.4-3.5-.1-7.1.2-10.5,0-1.4,0-3.1-.4-4.3-1.2-1.1-.8-1.9-2-2-3.4h23.1Z"/>
      <path d="M97.2,287.1c-.1,0-.5.2-.6.2h-5.3l3-3c0,0,.1,0,.2,0,.5,0,1.7,0,2.1,0,1.4.2,1.8,2.1.6,2.8Z"/>
      <polygon points="82.8 284.3 80.1 287 77.3 284.3 82.8 284.3"/>
      <polygon points="92 284.3 89.3 287 86.6 284.3 92 284.3"/>
      <polygon points="87.4 287.4 81.9 287.4 84.7 284.6 87.4 287.4"/>
    </g>
  </g>
</svg>