<?xml version="1.0" encoding="UTF-8"?>
<svg id="Porquin" xmlns="http://www.w3.org/2000/svg" version="1.1" viewBox="0 0 552.9 509">
  <!-- Generator: Adobe Illustrator 30.0.0, SVG Export Plug-In . SVG Version: 2.1.1 Build 123)  -->
  <defs>
    <style>
      .st0, .st1, .st2, .st3, .st4, .st5, .st6, .st7, .st8, .st9, .st10, .st11, .st12, .st13, .st14 {
        stroke-linecap: round;
      }

      .st0, .st1, .st2, .st4, .st5, .st6, .st15, .st7, .st8, .st10, .st12, .st13, .st14 {
        stroke: #000;
      }

      .st0, .st2, .st3, .st4, .st16, .st17, .st7, .st11 {
        fill: none;
      }

      .st0, .st2, .st3, .st4, .st17, .st6, .st15, .st7, .st8, .st9, .st10, .st11, .st12, .st13, .st14 {
        stroke-miterlimit: 10;
      }

      .st0, .st3, .st6, .st8, .st9, .st14 {
        stroke-width: 3px;
      }

      .st1 {
        stroke-width: 2px;
      }

      .st1, .st18, .st5, .st15, .st12, .st14 {
        fill: #fff;
      }

      .st1, .st5 {
        stroke-miterlimit: 10;
      }

      .st2, .st15, .st10, .st11, .st12 {
        stroke-width: 2px;
      }

      .st3, .st11 {
        stroke: #dfdfdf;
      }

      .st4, .st13 {
        stroke-width: 9px;
      }

      .st5 {
        stroke-width: 3px;
      }

      .st17 {
        stroke: #191919;
        stroke-width: 5px;
      }

      .st6 {
        fill: #dffe35;
      }

      .st7 {
        stroke-width: 10px;
      }

      .st8, .st10 {
        fill: #e6f77f;
      }

      .st9 {
        stroke: #dffe35;
      }

      .st19 {
        fill: #191919;
      }
    </style>
  </defs>
  <g id="Porco">
    <path class="st18" d="M411.1,125.7c-2-9.3-9.4-17.1-18.5-19.5-4.2-1.8-8.9-2.6-13.8-1.9-3.1.4-6.9,3.6-8.7,3.9-3.3.5-7.3-.7-11.7-2.6-4.7-4.5-9.8-9.9-14.1-12.4-3.7-2.2-18.5-6.8-19.2-7.5-.3-.3-10.9-18.9-15-31.1-.3-1-.8-1.7-1.2-2.3l-.5-1.3c-.2,0-.5.2-.7.4-4-2-10.2,5.8-12.6,9.1-3,4.2-11.5,24.1-13.2,26.3-2.6.5-5.2,1.3-7.7,2.3-3,.7-6.1,1.4-8.1,2.7l-10-16.5c-.2-.4-.5-.8-.7-1.2l-2.8-4.6c-.8.8-1.6,1.7-2.4,2.6-1.3.3-2.9,1-4.9,2.2-14.5,9.3-14,33-18.7,46.8-1.5,4.4-14.1,20.7-17.5,26.7-9.6,16.9-17.7,35.4-23.8,53.9-1.2,3.8-2.5,13.8-3.9,16.5-.6,1.2-12.7,11.2-15,14.1-9,10.7-12.9,23.9-12.9,37.9-.7,5.8.3,11.2,2.9,16.7,2.9,7.3,5.7,13.3,12.6,18.2-.7,1.2-2,3-2,3.5s.5.4.8.8c-.6,1.5-1.1,3-1.6,4.5-5.7,14.4-.5,41.1,4.3,55.2,3,8.7,2.9,15.3,8.4,29.8l15.4,45.6c-.1,1.2-4.2,5.4-4.4,6.5,0,0-1.1-.1-1.5,1.2-1.3,4.7-6.1,13.7-5.3,18.9-.6.4-1.5.6-1.5,1s.8.7,1.6,1.6c0,.2,2.5-.8,2.5-.8,1.3,1.6,1.5-.6,3.9-.3,3.9.4,4.5-1.4,6.8-1.8.6.7,2.6,5.8,3.8,7.5,0,.2.2.3.2.5.2,2,4-2.1,5.4-.9,4.3,3.5,9.6,2.3,17.3-4.8,4.9-4.5,12.4-9,14.9-14.4h0c2.2-4.8,3.6-9.7,4.6-14.3,1.9-7.4,2.4-14.9,2.4-23.4,3.7-4.8,10.6-4.5,16.9-4.3,8.8.2,18.5-.4,23.6,3.9v5.7c0,1.7-.2,3.5,0,5.1.3,2.9.7,5.9,1.3,9,.8,4.7,2,9.2,3.9,13.6,1,2.8,2.3,5.7,3.9,8.4h0c2.3,4.1,11.2,4.8,14.9,8.2,7.7,7.1,10.4,10.3,14.7,6.8,1.5-1.2,5.7,3.2,6,1.2,1.3-1.7,3.1-6.6,3.9-7.4,2.3.7,4.3-.8,8-1.2,2.4-.3,2.6,4.7,3.9,3.1,0,0,1.5,1,1.3.4v-1c1.6-5.5-5.5-17.8-6.4-24.7-.2-1.7-.2-3.9,0-6.3l4.5-41c1.6-5.1,9.7-16.4,11-19.8,2.9-4.4,5.6-9.4,7.7-15.1.4-1.1.8-2.3,1.2-3.4,1.2-2.9,2.3-6,2.9-9.7,2.5-15,.3-23-3-33.5-.4-1.3-.8-2.6-1.2-3.8-.7-2.3-1.4-4.8-2.2-7.5-.3-1.2-.7-2.3-.9-3.3.6-.5,1.2-1.1,1.8-1.7,3.8-3.7,6.4-7.9,8.2-11.6v-.2c2.6-3.7,4.6-7.8,5.9-12.6,0-.3.7-2.6-.5-2.2,4.3-15.1-20.2-31.2-30.2-42-.7-.8-5.1-3.4-6.5-4.4-1.8-1.9,4.2-5.9,2.3-7.6,0-.3,6.8-2.3,6.8-2.6,4.5-2.8,8.8-3.7,12.3-7,5-4.2,20.8-22.9,21.2-25.1.7-1.6,1.3-3.2,1.9-4.8.4-1,.8-2,1.2-2.7h0c.5-.8,1-1.6,1.6-2.5,3.3-2.3,0-3.5,1.5-5.3l3.3-1c.9-.9,1.9-2,3.1-3.1.5-.2-3.3-.2-2.8-.4,2.3-.6,5.6-3.7,7.6-5,5.3-3.4,11.5-6.7,13.1-12.4,2.8-7.6,2-16.3-1.3-24l-.2-.4ZM236.2,457.5c0-.1,0-1.1,0-1.2.5,0-.1-.9,0-1.2.2-.5,4.1,2.2,1.5.6l-.4,2.3c2.8,1,.1,0,0,0l-1.1-.5ZM296.5,461.4c.2.4.4.7.7,1.1-.1,0-.3,0-.4.1l-.3-1.2h0Z"/>
    <path class="st16" d="M397.6,186.4c-10,1.8-17,.2-21.6-1.6-4.3-1.7-6.6-3.7-24.1-13.8-1.5-.9-3.1-1.8-3.3-1.9-7.2-4.1-23.6-5.2-62.3,6.1"/>
    <path class="st17" d="M258.6,288.5"/>
    <path class="st19" d="M239.7,456c-.5,0-.9-.1-1.4-.2h-1.1c0-.1.6-5.2.6-5.2h1c.5.2,1,.2,1.4.3l-.7,5.1h.2Z"/>
    <path class="st19" d="M191.2,450.9c-.8,0-1.6-.2-2.3-.3l-1.3-.2.6-5.1,1.4.2c.7,0,1.5.2,2.3.3l-.6,5.1h0Z"/>
    <path class="st19" d="M339,447.3l-1.4-4.9c1-.3,2-.6,2.9-.9l1.5,4.9c-1,.3-2,.6-3,.9Z"/>
    <path class="st19" d="M293.1,459.9l-1.4-4.9.7-.2c.3-.1.7-.2,1-.3l1.4,4.9c-.3,0-.6.2-.9.3l-.8.2h0Z"/>
    <path class="st19" d="M194.8,399.7c-.7,0-1.3-.2-1.9-.6-7.8-5.4-22.1-17.5-29.8-38-9.5-25.5-.1-50.4,3-58.6l.4-1.1c.7-1.8,2.6-2.7,4.4-2,1.8.6,2.7,2.6,2,4.4l-.4,1.1c-2.9,7.6-11.6,30.8-3,53.8,7,18.7,20.1,29.8,27.2,34.8,1.6,1.1,1.9,3.2.9,4.7-.7,1-1.7,1.5-2.8,1.5h0Z"/>
    <path class="st19" d="M335.1,399.7c-1.1,0-2.1-.5-2.8-1.5-1.1-1.5-.7-3.7.9-4.7,7.2-5,20.2-16.1,27.2-34.8,8.6-23.1-.1-46.2-3-53.8l-.4-1.1c-.6-1.8.3-3.7,2-4.4,1.8-.6,3.7.3,4.4,2l.4,1.1c3.1,8.2,12.5,33.2,3,58.6-7.7,20.5-21.9,32.6-29.8,38-.6.4-1.3.6-1.9.6h0Z"/>
    <g>
      <path d="M237.6,453.2c-2.5,5.4-6,10.7-10.9,15.2-7.7,7.1-20.4,13.6-24.7,10.1-2.9-2.4-1-8.7-3.9-9.8-2.7-1-5.4,4.1-10,3.6-2.4-.3-4.3-2-5.6-3.6,0,0,8.1-17.1,9-20.4,14.1,1.6,32.2,3.2,46.1,4.8h0Z"/>
      <path class="st19" d="M205.4,482.9c-2.1,0-4-.5-5.5-1.8-2.5-2-2.9-5.2-3.2-7.5,0-.3,0-.7-.1-1-.2.1-.4.2-.5.4-1.8,1.2-4.6,3.1-8.3,2.8-2.9-.3-5.6-1.9-7.9-4.8l-1.3-1.7.9-1.9c3.1-6.5,8.2-17.6,8.8-19.8l.8-2.8,2.9.3c6.8.8,14.7,1.6,22.3,2.3,8.2.8,16.6,1.7,23.8,2.5l4.7.5-2,4.3c-2.9,6.4-6.9,11.9-11.7,16.3-5.1,4.6-15.8,12-23.6,12h0ZM197.4,465.2c.6,0,1.2.1,1.9.3,3.4,1.2,3.9,4.8,4.2,7.2.1,1,.4,2.8.7,3.1,1.7,1.4,11.8-2.3,20.2-10,3.1-2.8,5.7-6.1,7.9-9.9-5.9-.6-12.4-1.3-18.7-1.9-6.7-.7-13.5-1.4-19.7-2-1.8,4.4-5.3,12-7.2,16,.6.4,1.2.8,1.9.9,1.1.1,2.1-.5,3.7-1.6,1.4-.9,3.1-2.1,5.2-2.1h0Z"/>
    </g>
    <path class="st19" d="M237.6,456.6c-.5,0-1,0-1.4-.3-1.7-.8-2.5-2.8-1.7-4.5,4-8.8,6-19.7,5.9-31.6,0-1.9,1.5-3.4,3.4-3.5h0c1.9,0,3.4,1.5,3.4,3.4.2,12.9-2.1,24.9-6.5,34.6-.6,1.3-1.8,2-3.1,2h0Z"/>
    <path class="st19" d="M191.5,451.8c-.3,0-.6,0-.9-.1-1.8-.5-2.8-2.3-2.4-4,0-2.9-.4-16.8-1.8-21.8-1.6-5.7-14.8-47.1-14.9-47.5-.6-1.8.4-3.7,2.2-4.3,1.8-.6,3.7.4,4.3,2.2.5,1.7,13.4,41.9,15,47.7,1.8,6.7,2.1,23.8,2.1,24,0,.5,0,.9-.2,1.3-.4,1.5-1.8,2.5-3.3,2.5h-.1Z"/>
    <g>
      <path d="M347.3,468.7c-1.3,1.6-3.2,3.3-5.6,3.6-4.6.5-7.3-4.6-10-3.6-2.9,1.1-1,7.4-3.9,9.8-4.3,3.5-17-3-24.7-10.1-3.8-3.5-6.7-7.4-9-11.5,13.5-4,30.5-8,44.2-12v3.1c0,1.6,9.1,20.8,9.1,20.8h-.1Z"/>
      <path class="st19" d="M324.5,482.9c-7.8,0-18.6-7.3-23.6-12-3.8-3.5-7.1-7.6-9.7-12.4l-2.1-3.7,4.1-1.2c6.9-2.1,14.9-4.1,22.6-6.1,7.3-1.9,14.9-3.9,21.6-5.8l4.5-1.3v4.7c-.1,1.2-.1,2.1-.1,2.7.6,2.1,4.9,11.4,8.8,19.7l.9,1.9-1.3,1.7c-2.3,2.9-5,4.5-7.9,4.8-3.7.4-6.4-1.5-8.3-2.8-.2-.1-.3-.2-.5-.4,0,.3,0,.7-.1,1-.3,2.3-.7,5.5-3.2,7.5-1.5,1.3-3.4,1.8-5.5,1.8h-.2ZM299.4,458.9c1.8,2.6,3.8,4.9,6.1,7,8.4,7.7,18.5,11.3,20.2,10,.4-.3.6-2.1.7-3.1.3-2.4.8-6,4.2-7.2,2.9-1.1,5.3.6,7.1,1.8,1.6,1.1,2.6,1.7,3.7,1.6.7,0,1.3-.4,1.9-.9-5.8-12.3-7.6-16.8-8.2-18.7-5.6,1.6-11.7,3.2-17.6,4.7-6.1,1.6-12.3,3.2-18.1,4.8h0Z"/>
    </g>
    <path class="st19" d="M294.1,460.3c-1.2,0-2.4-.6-3-1.7-6.1-11-9.2-25.1-9-40.8,0-1.9,1.6-3.4,3.5-3.4s3.4,1.6,3.4,3.5c-.2,10.1,1.1,24.8,8.1,37.3.9,1.6.3,3.7-1.3,4.6-.5.3-1.1.4-1.7.4h0Z"/>
    <path class="st19" d="M338.3,448.3h-.1c-1.9,0-3.4-1.6-3.3-3.5.2-7,.8-16.3,2-20.8.8-2.8,1.5-5.5,2.2-8.1,2.4-9,4.9-18.4,11.1-37.9.6-1.8,2.5-2.8,4.3-2.2,1.8.6,2.8,2.5,2.2,4.3-6.1,19.4-8.6,28.6-11,37.6-.7,2.7-1.4,5.3-2.2,8.2-.8,3-1.5,10-1.8,19.2,0,1.8-1.6,3.3-3.4,3.3h0Z"/>
    <path class="st19" d="M263.8,421.7h-2.1c-12.6-.3-25-2.9-36.7-7.8-2.2-.9-3.2-3.4-2.3-5.6s3.4-3.2,5.6-2.3c10.7,4.5,22,6.9,33.6,7.1,12.8.3,25.7-2.2,37.6-7.1,2.2-.9,4.7.1,5.6,2.3s-.1,4.7-2.3,5.6c-12.3,5.1-25.7,7.8-38.9,7.8h-.1Z"/>
    <path class="st19" d="M123.2,379c-3.7,0-7.5-.4-11.4-1.2-2.3-.5-3.8-2.7-3.3-5s2.7-3.8,5-3.3c6.9,1.4,13.1,1.3,18.1.2-6.5-6.5-10.2-15.9-6.7-23.9,2.7-5.9,9.8-11.4,16.8-9.9,3.7.8,6.9,3.5,9.2,7.6,3.3,6,4.2,14,2,19.8-.8,2.2-2,4.2-3.6,6,1.7.1,3.6,0,5.6-.5,3.9-1.1,6.5-3.4,8-5.2,1.5-1.8,4.2-2,6-.5s2,4.2.5,6c-2.3,2.6-6.2,6.1-12.1,7.8-7.3,2.1-13.7.2-17-1.3-4.9,2.2-10.8,3.3-17.2,3.3h.1ZM139.5,344.2c-2.3,0-5.5,2.4-6.7,5.1-2.3,5.2,2,12.6,7.7,16.7,2.3-1.6,3.8-3.5,4.6-5.6,1.3-3.6.7-8.9-1.5-12.8-1.1-1.9-2.3-3.1-3.5-3.4h-.6Z"/>
    <path class="st19" d="M182.2,224.7c-.4,0-.7,0-1.1-.1-2.3-.6-3.7-2.9-3.1-5.2.6-2.2,1.2-4.6,1.8-7.2,3-12.6,6.8-28.3,14.7-43.4,1.5-2.9,3.1-5.9,4.6-8.9,8.2-16.1,16-31.2,23.8-40.3,1.5-1.8,4.2-2,6-.4,1.8,1.5,2,4.2.4,6-7.1,8.2-15.1,23.7-22.7,38.6-1.5,3-3.1,6-4.6,8.9-7.4,14.2-11,29.3-14,41.5-.6,2.6-1.2,5.1-1.8,7.3-.5,1.9-2.2,3.2-4.1,3.2h.1Z"/>
    <g id="Cartão1">
      <rect class="st8" x="264.7" y="268" width="86.9" height="60" rx="12.8" ry="12.8"/>
      <path class="st8" d="M274,317.6h14.2"/>
      <path class="st8" d="M273.7,311.2h36.9"/>
      <path class="st8" d="M296.8,317.6h14.2"/>
      <g>
        <rect class="st10" x="274" y="284.8" width="20.5" height="15" rx="6.5" ry="6.5"/>
        <g>
          <path class="st10" d="M281,298.8c.1-5,0-8.8,0-13.7"/>
          <path class="st10" d="M274.6,290.3c5.8.1-.3-.1,5.5,0"/>
          <path class="st10" d="M274.6,294.7c5.8.1-.3-.1,5.5,0"/>
        </g>
        <g>
          <path class="st10" d="M287.7,298.8c-.1-5,0-3.5,0-8.5"/>
          <path class="st10" d="M294.1,290.3c-5.8.1-.6-.1-6.4,0"/>
          <path class="st10" d="M294.1,294.7c-5.8.1.3-.1-5.5,0"/>
        </g>
      </g>
    </g>
    <path class="st19" d="M248.3,154.9c-.7,0-1.5-.2-2.1-.6-5.5-3.2-13-9.1-17.7-18.8-6-12.5-3.7-24.3-2.1-32.1,3.8-19.2,14.6-33,23.1-41.2l4-3.9,25.4,46.6c1.1,2.1.4,4.7-1.7,5.8-2.1,1.1-4.7.4-5.8-1.7l-20-36.5c-6.7,7.5-13.9,18.4-16.7,32.7-1.5,7.5-3.3,16.8,1.5,26.8,3.7,7.8,9.8,12.5,14.3,15.1,2,1.2,2.7,3.8,1.5,5.8-.8,1.4-2.2,2.1-3.7,2.1h0Z"/>
    <path class="st19" d="M284.9,85.8c-.4,0-.8,0-1.2-.2-2.3-.7-3.6-3-2.9-5.3,1.9-6.4,4.6-12.6,8.2-18.2,4.3-7,9.8-13.1,16.3-18.2l4.5-3.6,15.2,38.9c.9,2.2-.2,4.7-2.4,5.5-2.2.9-4.7-.2-5.5-2.4l-10.9-27.8c-3.8,3.6-7.1,7.7-9.9,12.2-3.1,5-5.5,10.4-7.2,16.1-.5,1.9-2.2,3.1-4.1,3.1h-.1Z"/>
    <path class="st19" d="M388.6,166.6c-8.6,0-17.5-3.4-24.1-9.8-12.1-11.8-12.1-29.2-6.9-40.3,1.2-2.5,2.6-4.8,4.4-6.9-1.2-.3-2.5-.8-3.8-1.4-1.6-.8-4.2-2.5-7.7-4.9-7.1-4.7-17.8-11.9-26.2-15-1.7-.6-8.2-2.8-18.9-2.9-12.4-.2-30.6,4.7-36.9,7.4-2.2.9-4.7,0-5.6-2.3-.9-2.2,0-4.7,2.3-5.6,7-3,26.6-8.2,40.3-8,11.8.2,19.2,2.5,21.8,3.5,9.3,3.5,20.5,10.9,27.9,15.9,2.9,1.9,5.7,3.8,6.7,4.3,2.8,1.4,6.3,1.4,6.3,1.3h1.1c2.7,0,7.1-1.2,10.7-2.1,3.5-.9,5.5-1.4,7.1-1.5,10.8-.4,20.9,9.2,25.7,18.3,7.6,14.3,6.5,35.8-8.5,45.5-4.6,3-10.1,4.5-15.8,4.5h.1ZM372.5,110.1c-.2.8-.6,1.5-1.3,2.1-2.5,2.3-4.4,4.9-5.8,7.8-4.1,8.8-3.7,22.1,5.1,30.6,8.2,8,20.8,9.8,29.3,4.3,11.6-7.5,10.7-24.8,5.6-34.4-3.6-6.9-11.2-14.1-17.9-13.8-.7,0-3.3.7-5.2,1.2-3.2.8-6.6,1.7-9.7,2.1h-.1Z"/>
    <ellipse class="st19" cx="380" cy="134.8" rx="4.2" ry="8.7" transform="translate(-22.9 120.5) rotate(-17.5)"/>
    <ellipse class="st19" cx="396.4" cy="128.5" rx="4.2" ry="8.7" transform="translate(-20.3 125.1) rotate(-17.5)"/>
    <path class="st19" d="M320.1,230.9c-2.1,0-3.9-1.6-4.2-3.7-.3-2.3,1.3-4.5,3.7-4.8,7.8-1,15.2-3.2,22.1-6.5,23.2-11.2,34.5-32.1,39.1-43.6.9-2.2,3.4-3.2,5.5-2.4,2.2.9,3.2,3.4,2.4,5.5-5.1,12.6-17.5,35.7-43.3,48.1-7.7,3.7-16,6.2-24.7,7.3h-.6Z"/>
    <circle class="st19" cx="312.7" cy="129.5" r="9.4"/>
    <path d="M319.6,172.1c-.3,1.7-.6,4.5,0,7.8.6,3,2.5,9.6,8.8,13.6,4.8,3,9.7,3.1,11.7,2.9,12.5-.8,19.1-13.8,19.5-14.6-13.3-3.2-26.6-6.5-39.9-9.7h-.1Z"/>
    <path class="st19" d="M356.6,185.2c-1.8,0-3.6-.1-5.4-.3-11.9-1.4-23.3-5.6-34-12.5-2-1.3-2.5-3.9-1.3-5.9,1.3-2,3.9-2.5,5.9-1.3,9.5,6.2,19.8,9.9,30.4,11.2,6.2.7,12.6-.1,20-2.6,9.1-3.1,15.2-7.9,17.9-11.3,1.5-1.8,4.1-2.2,6-.7,1.8,1.5,2.2,4.1.7,6-1.7,2.1-8.2,9.4-21.8,14.1-6.6,2.3-12.5,3.4-18.3,3.4h-.1Z"/>
    <path class="st19" d="M309.2,175.9h0c-2.4,0-4.3-1.9-4.3-4.3s1.9-4.3,4.3-4.3h0c.7,0,4.4-.1,6.8-2.9,1.4-1.6,1.9-3.4,2-4.7.3-2.3,2.4-4,4.8-3.7,2.3.3,4,2.4,3.7,4.8-.3,2.4-1.3,6-4.1,9.2-4.7,5.4-11.3,5.9-13.2,5.9h0Z"/>
    <path class="st15" d="M324.2,180.7c3.2-3.7,20.2,6.1,18.8,11.7-4.8,4.3-20.3-6.1-18.8-11.7Z"/>
    <path class="st16" d="M242.1,285.8c-.6,8.8-1.3,17.5-1.9,26.3"/>
    <path class="st4" d="M335.2,227c6.2,2.8,28,13.5,39.9,39,8.9,18.9,7.8,36.3,6.8,43.8"/>
    <path class="st13" d="M349.5,309.3c-.2,4.8,8,9.2,16.2,12.3,6.1,2.3,12.8-.9,15-6.9,1.7-4.7,3.1-10,2.9-14.1-.2-4.4-2.7-12.1-4-15.3-14.6,1-25.6-.4-27.5,4.5-.8,2-.2,5.5,5.8,11.7-4,1.8-8.3,4.4-8.4,7.8Z"/>
    <g>
      <path class="st13" d="M273.6,304.7c.3,7-17.4,13.2-26.6,15.6-1.6-2.8-7.9-16-7.5-24.4.2-4.4,2.7-12.1,4-15.3,14.6,1,25.6-.4,27.5,4.5.8,2,.2,5.5-5.8,11.7,4,1.8,8.3,4.4,8.4,7.8h0Z"/>
      <path class="st7" d="M183.3,220.2c-20.2,14.6-30.6,36.8-26.6,57.2,3.5,17.8,16.8,28,22.7,32.5,27.2,20.8,59.9,12.4,67.6,10.4"/>
      <path class="st4" d="M193.7,263.1c8.1,5.7,19.9,12.4,35.1,15.6,5.1,1.1,10.1,1.6,14.7,2"/>
    </g>
  </g>
  <g id="Cartão11">
    <rect class="st5" x="80.3" y="102.6" width="86.9" height="60" rx="12.8" ry="12.8" transform="translate(-52.7 174.7) rotate(-60.4)"/>
    <path class="st14" d="M123.9,171.9l7-12.3"/>
    <path class="st14" d="M118.2,169.1l18.2-32.1"/>
    <path class="st14" d="M135.1,152.2l7-12.3"/>
    <g>
      <rect class="st1" x="96.7" y="143" width="20.5" height="15" rx="6.5" ry="6.5" transform="translate(-76.8 169.2) rotate(-60.4)"/>
      <g>
        <path class="st12" d="M111,156.6c-4.3-2.6-7.7-4.3-11.9-6.8"/>
        <path class="st12" d="M100.5,158c3-5-.3.2,2.7-4.8"/>
        <path class="st12" d="M104.3,160.2c3-5-.3.2,2.7-4.8"/>
      </g>
      <g>
        <path class="st12" d="M114.3,150.8c-4.4-2.3-3-1.8-7.4-4.2"/>
        <path class="st12" d="M110.1,141c-2.8,5.1-.4.5-3.2,5.6"/>
        <path class="st12" d="M114,143.2c-2.8,5.1,0-.3-2.7,4.8"/>
      </g>
    </g>
  </g>
  <g id="Cartão2">
    <path class="st6" d="M401.8,401.5l30.3,52.8c3.5,6.1,11.3,8.2,17.4,4.8l30-16.9c6.1-3.5,8.3-11.2,4.8-17.3l-30.3-52.8c-3.5-6.1-11.3-8.2-17.4-4.8l-30,16.9c-6.1,3.5-8.3,11.2-4.8,17.3Z"/>
    <path class="st0" d="M442.9,452.2c-2.3-4.1-4.7-8.1-7-12.2"/>
    <path class="st0" d="M448.6,449.4c-6.1-10.6-12.2-21.2-18.2-31.8"/>
    <path class="st0" d="M431.6,432.6c-2.3-4.1-4.7-8.1-7-12.2"/>
    <g>
      <path class="st2" d="M451.5,431.4l3.7,6.4c1.8,3.1,5.8,4.2,8.9,2.4l1.7-.9c3.1-1.8,4.2-5.7,2.5-8.8l-3.7-6.4c-1.8-3.1-5.8-4.2-8.9-2.4l-1.7.9c-3.1,1.8-4.2,5.7-2.5,8.8Z"/>
      <g>
        <path class="st2" d="M455.8,437c4.3-2.6,7.7-4.2,11.9-6.8"/>
        <path class="st2" d="M466.3,438.3c-3-4.9.3.2-2.7-4.7"/>
        <path class="st2" d="M462.5,440.5c-3-4.9.3.2-2.7-4.7"/>
      </g>
      <g>
        <path class="st2" d="M452.5,431.2c4.4-2.3,3-1.8,7.4-4.1"/>
        <path class="st2" d="M456.7,421.6c2.8,5.1.4.5,3.2,5.5"/>
        <path class="st2" d="M452.8,423.7c2.8,5.1,0-.3,2.7,4.7"/>
      </g>
    </g>
  </g>
  <g id="Cartão3">
    <path class="st9" d="M504.6,191.8l-30.3,52.8c-3.5,6.1-11.3,8.2-17.4,4.8l-30-16.9c-6.1-3.5-8.3-11.2-4.8-17.3l30.3-52.8c3.5-6.1,11.3-8.2,17.4-4.8l30,16.9c6.1,3.5,8.3,11.2,4.8,17.3Z"/>
    <path class="st3" d="M463.6,242.4c2.3-4.1,4.7-8.1,7-12.2"/>
    <path class="st3" d="M457.9,239.7c6.1-10.6,12.2-21.2,18.2-31.8"/>
    <path class="st3" d="M474.8,222.9c2.3-4.1,4.7-8.1,7-12.2"/>
    <g>
      <path class="st11" d="M455,221.7l-3.7,6.4c-1.8,3.1-5.8,4.2-8.9,2.4l-1.7-.9c-3.1-1.8-4.2-5.7-2.5-8.8l3.7-6.4c1.8-3.1,5.8-4.2,8.9-2.4l1.7.9c3.1,1.8,4.2,5.7,2.5,8.8Z"/>
      <g>
        <path class="st11" d="M450.7,227.3c-4.3-2.6-7.7-4.2-11.9-6.8"/>
        <path class="st11" d="M440.1,228.6c3-4.9-.3.2,2.7-4.7"/>
        <path class="st11" d="M444,230.8c3-4.9-.3.2,2.7-4.7"/>
      </g>
      <g>
        <path class="st11" d="M454,221.5c-4.4-2.3-3-1.8-7.4-4.1"/>
        <path class="st11" d="M449.7,211.8c-2.8,5.1-.4.5-3.2,5.5"/>
        <path class="st11" d="M453.6,214c-2.8,5.1,0-.3-2.7,4.7"/>
      </g>
    </g>
  </g>
</svg>