<svg preserveAspectRatio="none" width="100%" height="100%" overflow="visible" style="display: block;" viewBox="0 0 24 24" fill="none" xmlns="http://www.w3.org/2000/svg">
<path id="icon" d="M19 4H18.492L16.308 1.168C16.0265 0.805806 15.6663 0.512417 15.2547 0.310054C14.843 0.107691 14.3907 0.00166304 13.932 0L10.068 0C9.6093 0.00166304 9.15699 0.107691 8.74533 0.310054C8.33368 0.512417 7.97347 0.805806 7.692 1.168L5.508 4H5C3.6744 4.00159 2.40356 4.52888 1.46622 5.46622C0.528882 6.40356 0.00158786 7.6744 0 9L0 19C0.00158786 20.3256 0.528882 21.5964 1.46622 22.5338C2.40356 23.4711 3.6744 23.9984 5 24H19C20.3256 23.9984 21.5964 23.4711 22.5338 22.5338C23.4711 21.5964 23.9984 20.3256 24 19V9C23.9984 7.6744 23.4711 6.40356 22.5338 5.46622C21.5964 4.52888 20.3256 4.00159 19 4V4ZM9.276 2.39C9.36967 2.26905 9.48969 2.17106 9.62693 2.10348C9.76418 2.0359 9.91502 2.00051 10.068 2H13.932C14.085 2.00066 14.2357 2.03611 14.373 2.10368C14.5102 2.17125 14.6302 2.26916 14.724 2.39L15.966 4H8.034L9.276 2.39ZM22 19C22 19.7956 21.6839 20.5587 21.1213 21.1213C20.5587 21.6839 19.7956 22 19 22H5C4.20435 22 3.44129 21.6839 2.87868 21.1213C2.31607 20.5587 2 19.7956 2 19V9C2 8.20435 2.31607 7.44129 2.87868 6.87868C3.44129 6.31607 4.20435 6 5 6H19C19.7956 6 20.5587 6.31607 21.1213 6.87868C21.6839 7.44129 22 8.20435 22 9V19Z" fill="var(--fill-0, #9CA3AF)" style="fill:#9CA3AF;fill:color(display-p3 0.6118 0.6392 0.6863);fill-opacity:1;"/>
</svg>
