<svg preserveAspectRatio="none" width="100%" height="100%" overflow="visible" style="display: block;" viewBox="0 0 24 17" fill="none" xmlns="http://www.w3.org/2000/svg">
<g id="icon">
<path d="M1 2H23C23.2652 2 23.5196 1.89464 23.7071 1.7071C23.8946 1.51957 24 1.26521 24 0.999998C24 0.734782 23.8946 0.480429 23.7071 0.292893C23.5196 0.105357 23.2652 0 23 0H1C0.734784 0 0.48043 0.105357 0.292893 0.292893C0.105357 0.480429 0 0.734782 0 0.999998C0 1.26521 0.105357 1.51957 0.292893 1.7071C0.48043 1.89464 0.734784 2 1 2Z" fill="var(--fill-0, #080B12)" style="fill:#080B12;fill:color(display-p3 0.0314 0.0431 0.0706);fill-opacity:1;"/>
<path d="M23 4.99999H1C0.734784 4.99999 0.48043 5.10534 0.292893 5.29288C0.105357 5.48041 0 5.73477 0 5.99998C0 6.2652 0.105357 6.51955 0.292893 6.70709C0.48043 6.89462 0.734784 6.99998 1 6.99998H23C23.2652 6.99998 23.5196 6.89462 23.7071 6.70709C23.8946 6.51955 24 6.2652 24 5.99998C24 5.73477 23.8946 5.48041 23.7071 5.29288C23.5196 5.10534 23.2652 4.99999 23 4.99999Z" fill="var(--fill-0, #080B12)" style="fill:#080B12;fill:color(display-p3 0.0314 0.0431 0.0706);fill-opacity:1;"/>
<path d="M23 15H1C0.734784 15 0.48043 15.1053 0.292893 15.2929C0.105357 15.4804 0 15.7347 0 16C0 16.2652 0.105357 16.5195 0.292893 16.7071C0.48043 16.8946 0.734784 17 1 17H23C23.2652 17 23.5196 16.8946 23.7071 16.7071C23.8946 16.5195 24 16.2652 24 16C24 15.7347 23.8946 15.4804 23.7071 15.2929C23.5196 15.1053 23.2652 15 23 15Z" fill="var(--fill-0, #080B12)" style="fill:#080B12;fill:color(display-p3 0.0314 0.0431 0.0706);fill-opacity:1;"/>
<path d="M23 10H1C0.734784 10 0.48043 10.1054 0.292893 10.2929C0.105357 10.4804 0 10.7348 0 11C0 11.2652 0.105357 11.5196 0.292893 11.7071C0.48043 11.8947 0.734784 12 1 12H23C23.2652 12 23.5196 11.8947 23.7071 11.7071C23.8946 11.5196 24 11.2652 24 11C24 10.7348 23.8946 10.4804 23.7071 10.2929C23.5196 10.1054 23.2652 10 23 10Z" fill="var(--fill-0, #080B12)" style="fill:#080B12;fill:color(display-p3 0.0314 0.0431 0.0706);fill-opacity:1;"/>
</g>
</svg>
