<svg preserveAspectRatio="none" width="100%" height="100%" overflow="visible" style="display: block;" viewBox="0 0 14 11.9913" fill="none" xmlns="http://www.w3.org/2000/svg">
<path id="icon" d="M13 5.00079H3L6.29 1.71079C6.38373 1.61783 6.45812 1.50723 6.50889 1.38537C6.55966 1.26351 6.5858 1.1328 6.5858 1.00079C6.5858 0.86878 6.55966 0.738074 6.50889 0.616215C6.45812 0.494356 6.38373 0.383755 6.29 0.290792C6.10264 0.104541 5.84919 0 5.585 0C5.32081 0 5.06736 0.104541 4.88 0.290792L0.59 4.59079C0.214412 4.96414 0.00223279 5.47121 0 6.00079V6.00079C0.00486659 6.52689 0.216844 7.02989 0.59 7.40078L4.88 11.7008C4.97324 11.7934 5.0838 11.8667 5.20537 11.9165C5.32694 11.9664 5.45714 11.9918 5.58854 11.9913C5.71993 11.9909 5.84995 11.9645 5.97116 11.9138C6.09238 11.8631 6.20242 11.789 6.295 11.6958C6.38758 11.6025 6.46089 11.492 6.51075 11.3704C6.5606 11.2488 6.58602 11.1186 6.58556 10.9872C6.58509 10.8558 6.55875 10.7258 6.50804 10.6046C6.45733 10.4834 6.38324 10.3734 6.29 10.2808L3 7.00078H13C13.2652 7.00078 13.5196 6.89543 13.7071 6.70789C13.8946 6.52035 14 6.266 14 6.00079C14 5.73557 13.8946 5.48122 13.7071 5.29368C13.5196 5.10614 13.2652 5.00079 13 5.00079Z" fill="var(--fill-0, #080B12)" style="fill:#080B12;fill:color(display-p3 0.0314 0.0431 0.0706);fill-opacity:1;"/>
</svg>
