<svg preserveAspectRatio="none" width="100%" height="100%" overflow="visible" style="display: block;" viewBox="0 0 12 12" fill="none" xmlns="http://www.w3.org/2000/svg">
<path id="icon" d="M6 0C4.81332 0 3.65328 0.351894 2.66658 1.01118C1.67989 1.67047 0.910851 2.60754 0.456726 3.7039C0.00259972 4.80026 -0.11622 6.00666 0.115291 7.17054C0.346802 8.33443 0.918247 9.40353 1.75736 10.2426C2.59648 11.0818 3.66558 11.6532 4.82946 11.8847C5.99335 12.1162 7.19975 11.9974 8.2961 11.5433C9.39246 11.0892 10.3295 10.3201 10.9888 9.33342C11.6481 8.34673 12 7.18669 12 6C11.9984 4.40919 11.3658 2.88399 10.2409 1.75911C9.11602 0.634239 7.59081 0.00158843 6 0V0ZM6 10C5.20888 10 4.43552 9.7654 3.77772 9.32588C3.11993 8.88635 2.60723 8.26164 2.30448 7.53074C2.00173 6.79983 1.92252 5.99556 2.07686 5.21964C2.2312 4.44372 2.61217 3.73098 3.17158 3.17157C3.73099 2.61216 4.44372 2.2312 5.21964 2.07686C5.99557 1.92252 6.79983 2.00173 7.53074 2.30448C8.26164 2.60723 8.88636 3.11992 9.32588 3.77772C9.76541 4.43552 10 5.20888 10 6C10 7.06087 9.57858 8.07828 8.82843 8.82843C8.07828 9.57857 7.06087 10 6 10Z" fill="var(--fill-0, #9CA3AF)" style="fill:#9CA3AF;fill:color(display-p3 0.6118 0.6392 0.6863);fill-opacity:1;"/>
</svg>
