<svg preserveAspectRatio="none" width="100%" height="100%" overflow="visible" style="display: block;" viewBox="0 0 14.0016 7.17314" fill="none" xmlns="http://www.w3.org/2000/svg">
<path id="icon" d="M13.7108 0.295798C13.6178 0.202069 13.5072 0.127675 13.3854 0.0769065C13.2635 0.026138 13.1328 0 13.0008 0C12.8688 0 12.7381 0.026138 12.6162 0.0769065C12.4944 0.127675 12.3838 0.202069 12.2908 0.295798L7.71079 4.87579C7.61783 4.96952 7.50723 5.04391 7.38537 5.09468C7.26351 5.14545 7.1328 5.17159 7.00079 5.17159C6.86878 5.17159 6.73808 5.14545 6.61622 5.09468C6.49436 5.04391 6.38376 4.96952 6.29079 4.87579L1.71079 0.295798C1.61783 0.202069 1.50723 0.127675 1.38537 0.0769065C1.26351 0.026138 1.1328 0 1.00079 0C0.868781 0 0.738075 0.026138 0.616216 0.0769065C0.494356 0.127675 0.383755 0.202069 0.290792 0.295798C0.104542 0.48316 0 0.736611 0 1.0008C0 1.26498 0.104542 1.51843 0.290792 1.70579L4.88079 6.29579C5.44329 6.85759 6.20579 7.17314 7.00079 7.17314C7.7958 7.17314 8.55829 6.85759 9.12079 6.29579L13.7108 1.70579C13.897 1.51843 14.0016 1.26498 14.0016 1.0008C14.0016 0.736611 13.897 0.48316 13.7108 0.295798V0.295798Z" fill="var(--fill-0, #6B7280)" style="fill:#6B7280;fill:color(display-p3 0.4196 0.4471 0.5020);fill-opacity:1;"/>
</svg>
