<svg preserveAspectRatio="none" width="100%" height="100%" overflow="visible" style="display: block;" viewBox="0 0 342 342" fill="none" xmlns="http://www.w3.org/2000/svg">
<g id="porquinho busca 1">
<g id="Group">
<path id="Vector" d="M146.822 157.276C142.341 152.229 121.484 164.64 106.395 176.536C102.997 179.214 80.8008 197.29 83.0667 207.023C83.6332 209.495 87.2896 206.92 97.1257 214.027C105.262 219.898 102.121 224.017 105.211 223.503C107.477 223.142 107.837 219.537 114.069 211.606C119.27 205.015 125.192 203.779 127.149 202.903C134.307 199.659 140.539 205.633 143.68 202.594C146.461 199.916 142.547 194.354 141.62 185.497C139.921 169.275 150.169 161.087 146.822 157.224V157.276Z" fill="var(--fill-0, white)" style="fill:white;fill-opacity:1;"/>
<g id="Group_2">
<path id="Vector_2" d="M118.601 205.787C117.519 206.56 116.644 207.332 115.871 208.105C110.361 213.615 108.404 222.267 104.181 222.267C101.349 222.267 101.658 215.778 95.9413 211.658C89.71 207.229 86.0021 211.503 84.6117 208.98C82.2427 204.654 89.4525 195.024 95.1688 189.102L118.652 205.787H118.601Z" fill="var(--fill-0, #0A0A0A)" style="fill:#0A0A0A;fill:color(display-p3 0.0392 0.0392 0.0392);fill-opacity:1;"/>
<path id="Vector (Stroke)" d="M125.915 208.105H119.368C118.663 208.649 118.06 209.193 117.51 209.743C115.015 212.239 113.332 215.431 111.532 218.442C110.68 219.865 109.75 221.328 108.684 222.436C107.597 223.565 106.119 224.584 104.181 224.584C102.365 224.584 101.241 223.452 100.588 222.494C99.9901 221.617 99.4765 220.422 99.0404 219.482C98.082 217.416 96.9369 215.235 94.5927 213.543C92.0644 211.748 90.1939 211.751 88.7056 211.909C88.2562 211.956 87.9275 212.009 87.4523 212.068C87.0428 212.119 86.5277 212.175 86.008 212.156C85.4723 212.137 84.8039 212.036 84.1401 211.677C83.4484 211.303 82.9389 210.746 82.5821 210.098L82.5791 210.093C81.5695 208.25 81.7219 206.13 82.2205 204.279C82.7311 202.384 83.7067 200.381 84.8729 198.444C87.213 194.558 90.5689 190.53 93.5014 187.492L94.8859 186.058L125.915 208.105ZM95.4768 192.163C93.0815 194.793 90.6076 197.904 88.8434 200.835C87.7888 202.586 87.049 204.172 86.6954 205.485C86.431 206.466 86.4311 207.107 86.5174 207.508C86.615 207.499 86.7329 207.487 86.8765 207.469C87.1905 207.43 87.726 207.352 88.2163 207.3C90.4862 207.059 93.5838 207.139 97.2838 209.769L97.2898 209.773L97.2963 209.778C100.664 212.205 102.221 215.326 103.245 217.532C103.8 218.729 104.098 219.414 104.417 219.883C104.422 219.89 104.426 219.896 104.431 219.902C104.633 219.831 104.928 219.655 105.344 219.222C106.005 218.535 106.7 217.49 107.554 216.062C109.165 213.369 111.217 209.481 114.232 206.466C114.42 206.278 114.613 206.091 114.814 205.903L95.4768 192.163Z" fill="var(--fill-0, #191919)" style="fill:#191919;fill:color(display-p3 0.0980 0.0980 0.0980);fill-opacity:1;"/>
<path id="Vector (Stroke)_2" d="M137.632 157.559C139.21 157.138 140.743 156.896 142.113 156.974C143.433 157.05 144.873 157.445 145.931 158.563L146.032 158.674L146.035 158.677L146.038 158.68C147.341 160.161 147.246 161.936 146.933 163.307C146.63 164.632 145.971 166.22 145.324 167.842C143.977 171.219 142.213 175.822 141.45 182.366L141.444 182.366C140.565 189.793 141.451 196.097 142.34 200.198L142.964 203.076L140.02 203.006C129.653 202.758 123.622 205.137 119.981 207.685L118.642 208.623L91.6298 189.43L93.5022 187.491C96.4821 184.407 99.1989 181.949 100.114 181.141C108.374 173.771 118.175 166.867 126.467 162.359C130.599 160.113 134.463 158.404 137.632 157.559ZM141.847 161.601C141.163 161.562 140.163 161.68 138.827 162.036C136.167 162.746 132.672 164.262 128.681 166.431C120.726 170.756 111.215 177.447 103.201 184.599L103.191 184.608C102.537 185.185 100.815 186.738 98.735 188.792L118.71 202.986C122.858 200.477 128.744 198.543 137.27 198.366C136.548 194.062 136.066 188.324 136.847 181.772H136.853C137.691 174.648 139.628 169.613 141.019 166.125C141.743 164.309 142.214 163.154 142.415 162.275C142.479 161.994 142.495 161.82 142.497 161.72C142.4 161.679 142.204 161.622 141.847 161.601Z" fill="var(--fill-0, #191919)" style="fill:#191919;fill:color(display-p3 0.0980 0.0980 0.0980);fill-opacity:1;"/>
</g>
</g>
<g id="Group_3">
<path id="Vector_3" d="M100.525 104.181C101.452 107.683 103.409 110.876 106.704 112.987C107.992 113.811 109.331 114.429 110.773 114.79C111.082 114.944 111.339 115.047 111.648 115.15C112.318 115.82 112.987 116.489 113.554 117.159H112.112C112.987 118.189 114.429 119.63 116.489 121.021C116.85 121.536 117.159 122.051 117.468 122.566C117.674 123.029 117.931 123.596 118.189 124.265C118.549 125.244 118.961 126.274 119.373 127.252C119.63 128.643 128.334 140.487 131.424 143.114C133.587 145.122 136.11 147.028 138.891 148.727C138.839 148.933 138.891 149.19 138.891 149.345C137.706 150.375 139.766 151.559 138.685 152.744C137.861 153.31 138.118 155.885 137.655 156.349C131.424 163.044 129.57 172.88 132.196 182.252C131.424 181.995 132.814 188.381 132.866 188.587C133.69 191.574 132.866 191.007 134.462 193.273C134.462 193.273 136.728 195.384 136.728 195.436C137.861 197.702 129.055 196.466 131.372 198.783C131.733 199.144 132.145 199.504 132.505 199.813C132.402 200.431 132.145 201.101 131.939 201.873C131.475 203.573 131.012 205.118 130.6 206.56C130.342 207.332 130.085 208.156 129.879 208.928C127.87 215.469 126.48 220.413 128.025 229.734C128.437 232 129.055 233.957 129.827 235.759C130.033 236.48 130.291 237.201 130.548 237.871C131.887 241.424 133.535 244.565 135.337 247.243C136.161 249.355 137.14 252.187 138.118 255.38L146.564 284.373C146.667 285.867 146.152 287.978 145.998 289.06C145.431 293.334 139.921 300.801 140.899 304.2C140.899 304.406 140.899 304.612 140.899 304.818C140.745 305.179 140.642 305.385 140.642 305.385C141.414 306.363 142.599 307.445 144.092 307.599C146.41 307.857 147.955 305.797 149.345 305.385C149.86 305.848 150.684 306.981 151.508 308.011C151.662 309.299 151.817 310.689 152.744 311.462C155.37 313.676 163.25 309.608 168.039 305.23C170.408 303.067 172.21 300.647 173.652 298.072C174.631 296.373 175.403 294.622 176.021 292.819C177.154 290.09 177.927 287.257 178.442 284.373C178.802 282.468 179.059 280.614 179.265 278.812C179.368 277.833 179.265 276.752 179.265 275.67C179.265 274.486 179.265 273.301 179.265 272.117C183.385 273.044 188.226 273.713 193.736 273.559C197.65 273.456 201.255 272.992 204.448 272.323C204.448 277.576 204.757 282.262 205.942 286.845C206.508 289.729 207.384 292.768 208.774 295.755C210.319 299.153 212.482 302.398 215.52 305.179C220.31 309.556 228.189 313.624 230.815 311.41C231.691 310.689 231.845 309.402 232 308.166C232 308.063 232.103 308.011 232.154 307.857C232.978 306.775 233.596 305.745 234.008 305.282C235.45 305.591 237.047 307.805 239.467 307.548C240.96 307.393 242.145 306.312 242.917 305.333C242.917 305.333 242.917 305.282 242.866 305.179C243.381 304.664 243.741 304.2 243.741 304.046C243.741 303.788 243.175 303.634 242.814 303.428C243.329 300.235 240.342 294.673 239.518 291.738C239.312 290.914 238.643 291.017 238.591 290.965C238.437 290.296 238.334 289.523 238.282 288.751L245.441 258.573C248.788 249.612 252.445 241.115 254.298 235.708C257.285 226.953 256.822 214.799 253.268 205.839C252.959 204.912 252.651 203.985 252.29 203.058C252.445 202.852 252.805 202.646 252.753 202.594C252.753 202.285 251.93 201.152 251.518 200.431C255.792 197.341 245.904 193.479 247.707 188.947C249.303 185.548 249.715 181.995 249.303 178.442C249.303 199.144 244.102 147.285 243.741 146.564C242.866 144.865 242.093 138.685 241.321 136.316C237.562 124.883 232.515 113.348 226.541 102.894C224.429 99.1857 216.602 89.092 215.675 86.3111C212.791 77.7109 213.1 63.0339 204.088 57.2661C202.903 56.4936 201.925 56.0816 201.101 55.8756C200.586 55.3091 200.122 54.7942 199.607 54.2277L197.908 57.0601C197.753 57.2661 197.599 57.5236 197.444 57.7811L191.265 68.0292C189.977 67.2567 188.072 66.7933 186.218 66.3813C184.673 65.7633 183.076 65.2483 181.428 64.9393C180.347 63.6004 175.146 51.2408 173.24 48.6144C171.747 46.5544 167.884 41.7651 165.412 42.9496C165.258 42.8981 165.103 42.7951 164.949 42.7436L164.64 43.5675C164.331 43.928 164.125 44.3915 163.867 45.0095C161.293 52.5282 154.701 64.1153 154.546 64.2698C154.083 64.7333 144.916 67.6172 142.65 68.9562C140.024 70.5011 136.831 73.9 133.947 76.6809C131.269 77.9169 128.746 78.5864 126.686 78.2774C125.501 78.1229 123.184 76.1144 121.278 75.857C118.24 75.445 115.356 75.857 112.73 77.0414C107.116 78.4834 102.533 83.3757 101.246 89.1435C99.2372 93.9328 98.7737 99.2887 100.473 104.027L100.525 104.181ZM207.281 296.012L207.023 294.57C207.229 294.931 207.229 295.188 207.332 295.446C207.384 295.6 207.332 295.806 207.641 295.755C207.641 295.806 207.641 295.909 207.641 295.961C207.538 295.961 207.435 295.961 207.332 295.961L207.281 296.012ZM172.21 298.329C172.107 298.329 172.056 298.329 171.953 298.278C172.107 298.072 172.262 297.815 172.365 297.609L172.21 298.329Z" fill="var(--fill-0, white)" style="fill:white;fill-opacity:1;"/>
<path id="Vector_4" d="M208.105 296.27C208.362 296.27 208.671 296.218 208.98 296.167L209.649 296.064L209.289 292.922H208.671C208.362 293.025 208.053 293.077 207.796 293.128L208.208 296.27H208.105Z" fill="var(--fill-0, #191919)" style="fill:#191919;fill:color(display-p3 0.0980 0.0980 0.0980);fill-opacity:1;"/>
<path id="Vector_5" d="M238.18 293.128C238.643 293.077 239.158 293.025 239.621 292.974L240.445 292.871L240.085 289.729L239.261 289.832C238.797 289.884 238.334 289.935 237.871 289.987L238.231 293.128H238.18Z" fill="var(--fill-0, #191919)" style="fill:#191919;fill:color(display-p3 0.0980 0.0980 0.0980);fill-opacity:1;"/>
<path id="Vector_6" d="M146.513 290.914L147.388 287.875C146.77 287.721 146.152 287.515 145.586 287.36L144.659 290.399C145.277 290.605 145.895 290.759 146.513 290.965V290.914Z" fill="var(--fill-0, #191919)" style="fill:#191919;fill:color(display-p3 0.0980 0.0980 0.0980);fill-opacity:1;"/>
<path id="Vector_7" d="M174.991 298.69L175.867 295.652L175.403 295.497C175.197 295.446 174.991 295.343 174.734 295.291L173.858 298.329C174.064 298.381 174.27 298.432 174.425 298.484L174.94 298.638L174.991 298.69Z" fill="var(--fill-0, #191919)" style="fill:#191919;fill:color(display-p3 0.0980 0.0980 0.0980);fill-opacity:1;"/>
<path id="Vector_8" d="M236.017 261.354C236.429 261.354 236.841 261.251 237.201 260.993C242.042 257.646 250.9 250.127 255.637 237.407C261.56 221.597 255.689 206.096 253.783 201.049L253.526 200.38C253.114 199.298 251.93 198.732 250.797 199.144C249.715 199.556 249.149 200.74 249.561 201.873L249.818 202.594C251.621 207.332 257.028 221.7 251.672 236.017C247.346 247.655 239.209 254.504 234.781 257.594C233.802 258.264 233.596 259.603 234.266 260.53C234.678 261.148 235.347 261.457 236.017 261.457V261.354Z" fill="var(--fill-0, #191919)" style="fill:#191919;fill:color(display-p3 0.0980 0.0980 0.0980);fill-opacity:1;"/>
<path id="Vector_9" d="M148.933 261.354C149.602 261.354 150.272 261.045 150.684 260.427C151.353 259.448 151.096 258.161 150.169 257.491C145.74 254.401 137.603 247.552 133.278 235.914C127.922 221.597 133.329 207.229 135.131 202.491L135.389 201.77C135.801 200.689 135.234 199.453 134.153 199.041C133.072 198.629 131.836 199.195 131.424 200.277L131.166 200.946C129.261 206.045 123.39 221.546 129.312 237.304C134.05 250.024 142.908 257.543 147.749 260.89C148.109 261.148 148.521 261.251 148.933 261.251V261.354Z" fill="var(--fill-0, #191919)" style="fill:#191919;fill:color(display-p3 0.0980 0.0980 0.0980);fill-opacity:1;"/>
<g id="Group_4">
<path id="Vector_10" d="M209.443 294.519C210.988 297.918 213.151 301.162 216.19 303.943C220.979 308.32 228.858 312.389 231.485 310.174C233.287 308.681 232.103 304.767 233.905 304.097C235.553 303.479 237.304 306.621 240.085 306.312C241.578 306.157 242.763 305.076 243.535 304.097C243.535 304.097 238.488 293.489 237.922 291.48C229.167 292.459 217.941 293.489 209.34 294.467L209.443 294.519Z" fill="var(--fill-0, black)" style="fill:black;fill-opacity:1;"/>
<path id="Vector_11" d="M214.748 305.539C211.761 302.81 209.289 299.359 207.487 295.394L206.251 292.768L209.134 292.407C213.563 291.892 218.816 291.377 223.863 290.862C228.601 290.399 233.493 289.884 237.716 289.42L239.518 289.214L239.982 290.965C240.342 292.304 243.535 299.205 245.441 303.273L246.007 304.458L245.183 305.488C243.741 307.29 242.093 308.32 240.291 308.475C238.025 308.732 236.326 307.548 235.141 306.775C235.038 306.724 234.935 306.621 234.832 306.569C234.832 306.775 234.781 307.033 234.729 307.187C234.523 308.629 234.317 310.586 232.772 311.822C231.845 312.594 230.661 312.955 229.322 312.955C224.481 312.955 217.786 308.423 214.645 305.539H214.748ZM237.613 303.325C238.591 303.994 239.209 304.406 239.93 304.303C240.342 304.303 240.754 304.046 241.063 303.788C239.879 301.316 237.716 296.63 236.583 293.849C232.721 294.261 228.498 294.725 224.326 295.137C220.413 295.549 216.396 295.961 212.688 296.321C214.027 298.638 215.675 300.698 217.58 302.449C222.782 307.187 229.064 309.505 230.094 308.629C230.352 308.423 230.455 307.29 230.558 306.724C230.764 305.23 231.021 303.016 233.133 302.243C233.545 302.089 233.957 302.037 234.317 302.037C235.605 302.037 236.686 302.758 237.562 303.376L237.613 303.325Z" fill="var(--fill-0, #191919)" style="fill:#191919;fill:color(display-p3 0.0980 0.0980 0.0980);fill-opacity:1;"/>
</g>
<path id="Vector_12" d="M209.443 296.63C209.752 296.63 210.061 296.579 210.319 296.424C211.4 295.961 211.864 294.673 211.349 293.643C208.877 288.184 207.59 281.438 207.693 274.022C207.693 272.838 206.766 271.911 205.633 271.859C204.5 271.859 203.521 272.786 203.521 273.971C203.418 282.005 204.809 289.42 207.538 295.394C207.899 296.167 208.671 296.63 209.443 296.63Z" fill="var(--fill-0, #191919)" style="fill:#191919;fill:color(display-p3 0.0980 0.0980 0.0980);fill-opacity:1;"/>
<path id="Vector_13" d="M238.025 293.643C238.231 293.643 238.385 293.643 238.591 293.592C239.673 293.283 240.342 292.201 240.085 291.068C240.085 289.266 240.342 280.666 241.218 277.524C242.196 273.971 250.385 248.325 250.488 248.067C250.848 246.934 250.23 245.75 249.097 245.389C247.964 245.029 246.78 245.647 246.419 246.78C246.059 247.861 238.128 272.786 237.098 276.391C235.965 280.511 235.811 291.171 235.811 291.274C235.811 291.583 235.862 291.841 235.914 292.098C236.171 293.025 237.047 293.643 237.974 293.643H238.025Z" fill="var(--fill-0, #191919)" style="fill:#191919;fill:color(display-p3 0.0980 0.0980 0.0980);fill-opacity:1;"/>
<g id="Group_5">
<path id="Vector_14" d="M141.363 304.2C142.135 305.179 143.32 306.26 144.813 306.415C147.646 306.724 149.345 303.582 150.993 304.2C152.795 304.87 151.611 308.784 153.413 310.277C156.04 312.492 163.919 308.423 168.708 304.046C171.077 301.883 172.88 299.462 174.322 296.888C165.927 294.416 155.422 291.944 146.925 289.472C146.925 290.45 146.925 291.12 146.925 291.377C146.925 292.407 141.26 304.303 141.26 304.303L141.363 304.2Z" fill="var(--fill-0, black)" style="fill:black;fill-opacity:1;"/>
<path id="Vector_15" d="M152.074 311.873C150.529 310.586 150.272 308.629 150.117 307.239C150.117 307.033 150.066 306.827 150.014 306.621C149.911 306.672 149.808 306.775 149.705 306.827C148.573 307.599 146.873 308.732 144.556 308.526C142.753 308.32 141.105 307.342 139.663 305.539L138.839 304.509L139.406 303.325C141.826 298.226 144.453 292.407 144.865 291.12C144.865 290.811 144.865 290.244 144.865 289.472V286.588C144.813 286.588 147.594 287.412 147.594 287.412C151.714 288.596 156.452 289.832 160.984 291.017C165.773 292.253 170.717 293.54 174.991 294.828L177.515 295.6L176.227 297.917C174.579 300.853 172.571 303.428 170.202 305.591C167.06 308.475 160.417 313.006 155.525 313.006C154.237 313.006 153.053 312.697 152.074 311.873ZM159.851 295.085C156.194 294.107 152.435 293.128 148.933 292.15C148.573 293.334 147.491 296.115 143.886 303.737C144.247 303.994 144.607 304.252 145.019 304.252C145.689 304.303 146.358 303.943 147.337 303.273C148.418 302.501 149.963 301.522 151.765 302.14C153.877 302.913 154.186 305.127 154.34 306.621C154.392 307.239 154.546 308.32 154.804 308.526C155.834 309.402 162.117 307.084 167.318 302.346C168.708 301.059 169.996 299.617 171.077 298.02C167.524 296.991 163.61 296.012 159.851 295.034V295.085Z" fill="var(--fill-0, #191919)" style="fill:#191919;fill:color(display-p3 0.0980 0.0980 0.0980);fill-opacity:1;"/>
</g>
<path id="Vector_16" d="M174.373 298.947C175.094 298.947 175.815 298.535 176.227 297.866C180.038 291.068 181.943 282.314 181.789 272.58C181.789 271.396 180.81 270.469 179.626 270.52C178.441 270.52 177.515 271.499 177.566 272.683C177.669 278.966 176.845 288.081 172.519 295.858C171.953 296.888 172.313 298.175 173.343 298.741C173.652 298.947 174.013 298.999 174.373 298.999V298.947Z" fill="var(--fill-0, #191919)" style="fill:#191919;fill:color(display-p3 0.0980 0.0980 0.0980);fill-opacity:1;"/>
<path id="Vector_17" d="M146.976 291.48C146.976 291.48 146.976 291.48 147.028 291.48C148.212 291.48 149.087 290.45 149.087 289.317C148.933 284.991 148.624 279.224 147.852 276.391C147.388 274.64 146.925 272.992 146.461 271.344C144.968 265.731 143.371 259.963 139.612 247.861C139.251 246.728 138.067 246.11 136.934 246.471C135.801 246.831 135.183 248.016 135.543 249.149C139.303 261.148 140.848 266.916 142.341 272.477C142.805 274.125 143.217 275.773 143.732 277.576C144.247 279.43 144.659 283.755 144.813 289.472C144.813 290.605 145.792 291.532 146.925 291.532L146.976 291.48Z" fill="var(--fill-0, #191919)" style="fill:#191919;fill:color(display-p3 0.0980 0.0980 0.0980);fill-opacity:1;"/>
<path id="Vector_18" d="M193.17 275.001C193.634 275.001 194.045 275.001 194.509 275.001C202.337 274.846 210.01 273.198 217.271 270.16C218.61 269.593 219.228 268.049 218.713 266.71C218.147 265.371 216.602 264.701 215.263 265.268C208.619 268.048 201.616 269.542 194.457 269.696C186.527 269.851 178.493 268.357 171.129 265.268C169.79 264.701 168.245 265.319 167.678 266.71C167.112 268.1 167.73 269.593 169.12 270.16C176.742 273.353 185.033 275.001 193.273 275.001H193.17Z" fill="var(--fill-0, #191919)" style="fill:#191919;fill:color(display-p3 0.0980 0.0980 0.0980);fill-opacity:1;"/>
<path id="Vector_19" d="M269.799 246.471C267.74 247.398 263.774 248.582 259.242 247.295C255.586 246.265 253.114 244.102 251.724 242.454C250.797 241.321 250.9 239.673 251.981 238.746C253.114 237.768 254.762 237.922 255.689 239.003C256.616 240.085 258.264 241.527 260.633 242.196C261.869 242.557 263.053 242.608 264.135 242.505C263.156 241.372 262.384 240.136 261.869 238.746C260.53 235.09 261.045 230.146 263.156 226.438C264.598 223.863 266.607 222.215 268.872 221.752C273.198 220.825 277.627 224.223 279.275 227.88C281.49 232.824 279.172 238.643 275.155 242.711C278.297 243.432 282.159 243.484 286.433 242.608C287.875 242.299 289.266 243.226 289.575 244.668C289.884 246.11 288.957 247.501 287.515 247.81C285.094 248.325 282.725 248.531 280.46 248.531C276.494 248.531 272.838 247.81 269.799 246.471ZM269.954 226.953C269.233 227.107 268.409 227.88 267.791 229.064C266.452 231.433 266.092 234.781 266.864 236.995C267.328 238.283 268.306 239.467 269.696 240.445C273.198 237.922 275.876 233.287 274.434 230.094C273.662 228.395 271.705 226.953 270.314 226.953C268.924 226.953 270.057 226.953 269.954 226.953Z" fill="var(--fill-0, #191919)" style="fill:#191919;fill:color(display-p3 0.0980 0.0980 0.0980);fill-opacity:1;"/>
<path id="Vector_20" d="M243.793 152.795C243.999 152.795 244.256 152.795 244.462 152.692C245.853 152.332 246.728 150.89 246.368 149.448C246.007 148.058 245.647 146.564 245.286 144.968C243.381 137.14 241.063 127.407 236.171 118.034C235.244 116.232 234.266 114.378 233.339 112.524C228.24 102.585 223.399 93.1604 218.559 87.5471C217.58 86.4656 215.932 86.3111 214.851 87.2896C213.769 88.268 213.615 89.916 214.593 90.9974C219.022 96.0958 223.914 105.674 228.704 114.944C229.631 116.798 230.609 118.652 231.536 120.454C236.12 129.261 238.385 138.685 240.188 146.204C240.6 147.8 240.96 149.345 241.321 150.735C241.63 151.92 242.711 152.744 243.896 152.744L243.793 152.795Z" fill="var(--fill-0, #191919)" style="fill:#191919;fill:color(display-p3 0.0980 0.0980 0.0980);fill-opacity:1;"/>
<path id="Vector_21" d="M202.8 109.485C203.264 109.485 203.727 109.382 204.139 109.125C207.538 107.116 212.224 103.512 215.108 97.4862C218.816 89.71 217.374 82.3972 216.447 77.5564C214.13 65.6088 207.384 57.0601 202.131 51.9618L199.659 49.5413L183.9 78.4319C183.179 79.7193 183.694 81.3158 184.93 82.0367C186.218 82.7577 187.814 82.2427 188.535 81.0068L200.895 58.3475C205.066 62.9824 209.546 69.7802 211.246 78.6379C212.173 83.2727 213.306 89.092 210.319 95.2718C208.002 100.061 204.242 102.997 201.461 104.644C200.174 105.365 199.762 107.013 200.483 108.249C200.998 109.073 201.873 109.588 202.749 109.588L202.8 109.485Z" fill="var(--fill-0, #191919)" style="fill:#191919;fill:color(display-p3 0.0980 0.0980 0.0980);fill-opacity:1;"/>
<path id="Vector_22" d="M180.089 66.5873C180.347 66.5873 180.604 66.5873 180.81 66.4843C182.201 66.0723 183.025 64.6303 182.613 63.1884C181.428 59.1715 179.729 55.3606 177.566 51.8588C174.888 47.5329 171.489 43.722 167.472 40.5291L164.691 38.2632L155.216 62.3644C154.701 63.7034 155.37 65.2483 156.709 65.8148C158.048 66.3298 159.593 65.6603 160.16 64.3213L166.957 47.0694C169.326 49.3353 171.386 51.8588 173.137 54.6397C175.094 57.7296 176.588 61.1285 177.618 64.6303C177.978 65.7633 179.008 66.5358 180.141 66.5358L180.089 66.5873Z" fill="var(--fill-0, #191919)" style="fill:#191919;fill:color(display-p3 0.0980 0.0980 0.0980);fill-opacity:1;"/>
<path id="Vector_23" d="M105.932 113.966C96.6108 107.94 95.9413 94.6023 100.679 85.6931C103.666 80.0283 109.949 74.106 116.644 74.312C117.622 74.312 118.91 74.6725 121.021 75.239C123.235 75.8055 126.016 76.5264 127.664 76.5264C127.922 76.5264 128.179 76.5264 128.231 76.5264H128.385C128.385 76.5264 130.548 76.5264 132.248 75.7025C132.917 75.3935 134.616 74.2605 136.419 73.076C141.002 69.9861 147.955 65.4028 153.722 63.2399C155.37 62.6219 159.954 61.1799 167.215 61.0769C175.764 60.974 187.866 64.2183 192.243 66.0723C193.582 66.6388 194.2 68.1837 193.634 69.5227C193.067 70.8616 191.522 71.4796 190.183 70.9131C186.269 69.2652 174.991 66.2268 167.318 66.3298C160.675 66.4328 156.658 67.7717 155.576 68.1322C150.375 70.0891 143.732 74.518 139.354 77.4019C137.14 78.8954 135.543 79.9253 134.565 80.3888C133.793 80.7493 132.969 81.0583 132.248 81.2128C133.329 82.5517 134.256 83.9937 134.977 85.4871C138.221 92.3879 138.273 103.203 130.703 110.515C126.583 114.532 121.072 116.592 115.768 116.592C110.464 116.592 108.867 115.665 105.983 113.811L105.932 113.966ZM119.682 80.3373C118.498 80.0283 116.901 79.6163 116.438 79.6163C112.266 79.4103 107.58 83.8907 105.365 88.165C102.224 94.1388 101.658 104.85 108.816 109.485C114.069 112.884 121.896 111.751 126.995 106.807C132.402 101.555 132.66 93.2634 130.136 87.8561C129.312 86.0536 128.076 84.4572 126.531 83.0152C126.119 82.6547 125.862 82.1912 125.759 81.6763C123.802 81.4188 121.69 80.8523 119.733 80.3373H119.682Z" fill="var(--fill-0, #191919)" style="fill:#191919;fill:color(display-p3 0.0980 0.0980 0.0980);fill-opacity:1;"/>
<path id="Vector_24" d="M123.521 97.5776C124.41 94.7566 124.01 92.1161 122.626 91.6799C121.243 91.2437 119.4 93.177 118.511 95.9981C117.622 98.8191 118.022 101.46 119.405 101.896C120.789 102.332 122.631 100.399 123.521 97.5776Z" fill="var(--fill-0, #191919)" style="fill:#191919;fill:color(display-p3 0.0980 0.0980 0.0980);fill-opacity:1;"/>
<path id="Vector_25" d="M113.392 93.5983C114.282 90.7772 113.881 88.1367 112.498 87.7005C111.115 87.2644 109.272 89.1977 108.383 92.0187C107.493 94.8397 107.893 97.4802 109.277 97.9164C110.66 98.3526 112.503 96.4193 113.392 93.5983Z" fill="var(--fill-0, #191919)" style="fill:#191919;fill:color(display-p3 0.0980 0.0980 0.0980);fill-opacity:1;"/>
<path id="Vector_26" d="M135.595 128.282C136.728 128.282 137.809 128.231 138.942 128.076C146.307 127.201 153.413 124.574 160.005 120.351C161.241 119.579 161.602 117.931 160.778 116.695C160.005 115.459 158.357 115.099 157.121 115.923C151.199 119.733 144.865 122.102 138.273 122.875C134.41 123.338 130.445 122.823 125.913 121.227C120.3 119.27 116.489 116.335 114.79 114.172C113.863 113.039 112.215 112.833 111.082 113.76C109.949 114.687 109.743 116.335 110.67 117.468C111.7 118.807 115.768 123.338 124.214 126.222C128.282 127.613 131.99 128.334 135.595 128.334V128.282Z" fill="var(--fill-0, #191919)" style="fill:#191919;fill:color(display-p3 0.0980 0.0980 0.0980);fill-opacity:1;"/>
<path id="Vector_27" d="M165 122.514C166.442 122.514 167.627 121.33 167.627 119.888C167.627 118.446 166.442 117.262 165 117.262C164.537 117.262 162.271 117.159 160.778 115.408C159.902 114.429 159.593 113.296 159.49 112.524C159.336 111.082 157.997 110.052 156.555 110.206C155.113 110.361 154.083 111.7 154.237 113.142C154.443 114.635 155.01 116.85 156.761 118.858C159.696 122.257 163.764 122.514 165 122.514Z" fill="var(--fill-0, #191919)" style="fill:#191919;fill:color(display-p3 0.0980 0.0980 0.0980);fill-opacity:1;"/>
<path id="Vector_28" d="M158.254 156.658C159.542 156.658 160.726 155.679 160.881 154.34C161.087 152.898 160.057 151.559 158.615 151.353C153.774 150.735 149.139 149.345 144.865 147.285C130.445 140.384 123.493 127.355 120.609 120.248C120.042 118.91 118.498 118.24 117.159 118.807C115.82 119.373 115.15 120.918 115.717 122.257C118.858 130.085 126.583 144.401 142.599 152.074C147.388 154.392 152.538 155.885 157.945 156.606C158.048 156.606 158.151 156.606 158.306 156.606L158.254 156.658Z" fill="var(--fill-0, #191919)" style="fill:#191919;fill:color(display-p3 0.0980 0.0980 0.0980);fill-opacity:1;"/>
<path id="Vector_29" d="M168.671 94.9871C169.3 91.8355 167.256 88.7701 164.104 88.1403C160.953 87.5106 157.887 89.555 157.258 92.7066C156.628 95.8582 158.672 98.9236 161.824 99.5533C164.975 100.183 168.041 98.1387 168.671 94.9871Z" fill="var(--fill-0, #191919)" style="fill:#191919;fill:color(display-p3 0.0980 0.0980 0.0980);fill-opacity:1;"/>
</g>
<path id="Vector (Stroke)_3" d="M243.517 146.31C244.937 146.242 246.143 147.339 246.21 148.76C246.617 157.363 247.585 167.038 249.418 177.427L249.419 177.431C250.846 185.584 252.577 193.021 254.461 199.793C254.843 201.163 254.041 202.582 252.671 202.963C251.301 203.344 249.881 202.543 249.5 201.173C247.574 194.248 245.804 186.648 244.347 178.323L244.174 177.329C242.411 167.083 241.47 157.532 241.066 149.003C240.999 147.583 242.096 146.377 243.517 146.31Z" fill="var(--fill-0, #191919)" style="fill:#191919;fill:color(display-p3 0.0980 0.0980 0.0980);fill-opacity:1;"/>
<path id="Vector (Stroke)_4" d="M139.296 148.936C140.575 148.875 141.66 149.862 141.72 151.141C141.967 156.352 139.112 160.637 136.723 164.506C134.224 168.553 131.868 172.6 131.522 178.023L131.521 178.028V178.032C131.265 181.812 131.983 185.451 133.054 189.083C133.591 190.903 134.204 192.683 134.82 194.484C135.429 196.266 136.043 198.075 136.54 199.861C136.883 201.095 136.162 202.372 134.929 202.716C133.696 203.059 132.418 202.337 132.075 201.104C131.619 199.466 131.048 197.779 130.435 195.984C129.827 194.208 129.179 192.328 128.608 190.395C127.466 186.521 126.587 182.281 126.897 177.718C127.326 171.044 130.272 166.132 132.78 162.071C135.399 157.828 137.256 154.852 137.091 151.36C137.031 150.082 138.018 148.996 139.296 148.936Z" fill="var(--fill-0, #191919)" style="fill:#191919;fill:color(display-p3 0.0980 0.0980 0.0980);fill-opacity:1;"/>
<g id="Group_6">
<path id="Vector_30" d="M132.336 137.707L129.718 139.349C126.827 141.163 125.954 144.977 127.767 147.868L134.034 157.858C135.848 160.75 139.662 161.623 142.553 159.809L145.171 158.168C148.062 156.354 148.935 152.54 147.122 149.649L140.855 139.658C139.041 136.767 135.227 135.894 132.336 137.707Z" fill="var(--fill-0, white)" style="fill:white;fill-opacity:1;"/>
<path id="Vector (Stroke)_5" d="M139.11 140.753C137.901 138.826 135.358 138.243 133.43 139.452L130.813 141.094C128.885 142.303 128.303 144.846 129.512 146.774L135.779 156.764C136.988 158.691 139.531 159.274 141.458 158.065L144.076 156.423C146.003 155.214 146.586 152.671 145.377 150.743L139.11 140.753ZM148.867 148.554C151.285 152.409 150.12 157.495 146.265 159.913L143.648 161.555C139.793 163.973 134.707 162.808 132.289 158.953L126.022 148.963C123.604 145.108 124.769 140.022 128.624 137.604L131.241 135.962C135.096 133.544 140.182 134.709 142.6 138.564L148.867 148.554Z" fill="var(--fill-0, #191919)" style="fill:#191919;fill:color(display-p3 0.0980 0.0980 0.0980);fill-opacity:1;"/>
<path id="Vector_31" d="M142.449 152.474L139.832 154.116C136.94 155.93 136.067 159.744 137.881 162.635L170.008 213.851C171.822 216.743 175.636 217.616 178.527 215.802L181.145 214.161C184.036 212.347 184.91 208.533 183.096 205.642L150.968 154.425C149.155 151.534 145.34 150.661 142.449 152.474Z" fill="var(--fill-0, white)" style="fill:white;fill-opacity:1;"/>
<path id="Vector (Stroke)_6" d="M148.787 155.794C147.729 154.107 145.504 153.598 143.818 154.656L141.2 156.298C139.513 157.356 139.004 159.58 140.062 161.267L172.19 212.483C173.248 214.17 175.473 214.679 177.159 213.621L179.777 211.979C181.463 210.921 181.973 208.697 180.915 207.01L148.787 155.794ZM185.277 204.273C187.847 208.369 186.609 213.773 182.513 216.342L179.896 217.984C175.8 220.553 170.397 219.316 167.827 215.22L135.699 164.004C133.13 159.908 134.367 154.504 138.463 151.935L141.081 150.293C145.177 147.724 150.58 148.961 153.149 153.057L185.277 204.273Z" fill="var(--fill-0, #191919)" style="fill:#191919;fill:color(display-p3 0.0980 0.0980 0.0980);fill-opacity:1;"/>
<path id="Vector_32" d="M107.271 52.1162C80.8008 52.1162 59.326 73.591 59.326 100.061C59.326 126.531 80.8008 148.006 107.271 148.006C133.741 148.006 155.216 126.531 155.216 100.061C155.216 73.591 133.741 52.1162 107.271 52.1162ZM107.271 132.917C89.5555 132.917 75.1875 118.549 75.1875 100.834C75.1875 83.1182 89.5555 68.7502 107.271 68.7502C124.986 68.7502 139.354 83.1182 139.354 100.834C139.354 118.549 124.986 132.917 107.271 132.917Z" fill="var(--fill-0, white)" style="fill:white;fill-opacity:1;"/>
<path id="Vector (Stroke)_7" d="M152.641 100.061C152.641 75.013 132.319 54.6912 107.271 54.6912C82.2228 54.6913 61.901 75.0131 61.9009 100.061C61.9009 125.109 82.2228 145.431 107.271 145.431C132.319 145.431 152.641 125.109 152.641 100.061ZM136.78 100.833C136.779 84.5402 123.564 71.325 107.271 71.325C90.9775 71.3251 77.7624 84.5403 77.7623 100.833C77.7623 117.127 90.9775 130.342 107.271 130.342C123.564 130.342 136.78 117.127 136.78 100.833ZM141.929 100.833C141.929 119.971 126.408 135.492 107.271 135.492C88.1333 135.492 72.6125 119.971 72.6125 100.833C72.6126 81.6961 88.1334 66.1753 107.271 66.1752C126.408 66.1752 141.929 81.696 141.929 100.833ZM157.791 100.061C157.791 127.953 135.163 150.581 107.271 150.581C79.3786 150.581 56.7511 127.953 56.7511 100.061C56.7512 72.1689 79.3787 49.5414 107.271 49.5413C135.163 49.5413 157.791 72.1688 157.791 100.061Z" fill="var(--fill-0, #191919)" style="fill:#191919;fill:color(display-p3 0.0980 0.0980 0.0980);fill-opacity:1;"/>
<path id="Vector_33" opacity="0.3" d="M106.498 132.917C124.218 132.917 138.582 118.553 138.582 100.834C138.582 83.1144 124.218 68.7502 106.498 68.7502C88.7792 68.7502 74.415 83.1144 74.415 100.834C74.415 118.553 88.7792 132.917 106.498 132.917Z" fill="var(--fill-0, white)" style="fill:white;fill-opacity:1;"/>
<path id="Vector (Stroke)_8" opacity="0.3" d="M136.007 100.834C136.007 84.5365 122.795 71.3251 106.498 71.3251C90.2013 71.3252 76.99 84.5365 76.9899 100.834C76.9899 117.131 90.2013 130.342 106.498 130.342C122.795 130.342 136.007 117.131 136.007 100.834ZM141.157 100.834C141.157 119.975 125.64 135.492 106.498 135.492C87.3571 135.492 71.8401 119.975 71.8401 100.834C71.8401 81.6923 87.3571 66.1753 106.498 66.1753C125.64 66.1753 141.157 81.6923 141.157 100.834Z" fill="var(--fill-0, #191919)" style="fill:#191919;fill:color(display-p3 0.0980 0.0980 0.0980);fill-opacity:1;"/>
</g>
<g id="Group_7">
<path id="Vector_34" d="M236.944 168.657C240.394 172.983 228.652 188.638 216.962 199.041C214.336 201.358 195.59 217.786 188.02 212.791C186.269 211.658 187.093 210.628 182.767 201.719C179.214 194.354 177.515 192.655 178.339 190.235C178.956 188.484 180.295 188.226 187.505 184.312C193.531 181.068 196.569 179.42 197.547 177.978C201.152 172.674 196.723 169.635 199.556 167.575C202.079 165.721 206.56 166.854 213.512 168.811C226.283 172.468 234.317 165.361 236.892 168.605L236.944 168.657Z" fill="var(--fill-0, white)" style="fill:white;fill-opacity:1;"/>
<path id="Vector_35" d="M179.162 192.243C178.39 193.016 177.669 193.633 176.948 194.097C171.747 197.753 164.537 198.062 163.97 201.513C163.61 203.779 168.863 204.448 171.283 209.598C173.961 215.211 169.996 217.58 171.85 219.074C174.991 221.597 183.694 217.168 189.256 213.409L179.162 192.243Z" fill="var(--fill-0, #0A0A0A)" style="fill:#0A0A0A;fill:color(display-p3 0.0392 0.0392 0.0392);fill-opacity:1;"/>
<path id="Vector (Stroke)_9" d="M192.206 214.212L190.554 215.329C187.686 217.267 183.961 219.413 180.481 220.759C178.748 221.429 176.964 221.944 175.317 222.09C173.713 222.232 171.86 222.054 170.399 220.88L170.396 220.878C169.874 220.457 169.444 219.906 169.208 219.213C168.982 218.547 168.995 217.924 169.058 217.447C169.12 216.986 169.246 216.55 169.346 216.223C169.466 215.827 169.545 215.599 169.648 215.242C169.965 214.135 170.22 212.752 169.192 210.596L169.189 210.59L169.186 210.584C168.248 208.588 166.764 207.423 165.259 206.375C164.593 205.911 163.665 205.305 163.013 204.677C162.297 203.987 161.418 202.805 161.682 201.149L161.683 201.143L161.684 201.137C161.968 199.408 163.083 198.261 164.199 197.498C165.284 196.758 166.633 196.2 167.893 195.718C170.595 194.684 173.317 193.817 175.615 192.201L175.655 192.174L175.695 192.147C176.226 191.806 176.816 191.312 177.524 190.605L179.843 188.286L192.206 214.212ZM178.247 196.016C175.35 198.042 171.886 199.152 169.549 200.046C168.287 200.529 167.401 200.925 166.812 201.327C166.678 201.419 166.575 201.5 166.497 201.57C166.801 201.811 167.233 202.102 167.909 202.572C169.544 203.712 171.892 205.454 173.374 208.6C175.024 212.057 174.635 214.666 174.103 216.52C174.011 216.843 173.893 217.21 173.816 217.453C174.066 217.496 174.419 217.517 174.908 217.473C175.95 217.381 177.28 217.027 178.81 216.436C181.256 215.49 183.934 214.047 186.29 212.573L178.359 195.941C178.321 195.966 178.284 195.991 178.247 196.016Z" fill="var(--fill-0, #191919)" style="fill:#191919;fill:color(display-p3 0.0980 0.0980 0.0980);fill-opacity:1;"/>
<path id="Vector (Stroke)_10" d="M237.075 166.988C238.053 166.805 238.995 167.45 239.178 168.428C239.342 169.302 239.594 170.77 239.347 172.559L239.343 172.589L239.338 172.618C238.961 174.817 238.027 176.261 236.59 178.687C235.423 180.667 234.977 181.524 234.693 182.081C234.38 182.694 234.204 183.057 233.61 183.962L233.609 183.962C231.654 187.001 229.786 188.972 226.462 192.5L226.459 192.504L226.456 192.508C224.386 194.681 221.189 198.036 216.527 201.964L216.524 201.967L216.52 201.97C214.011 204.061 211.963 205.584 210.229 206.91L210.225 206.913L210.22 206.917C207.119 209.256 205.466 210.526 203.54 211.627L203.539 211.626C202.152 212.444 200.632 212.765 199.072 213.024C197.444 213.294 195.691 213.508 193.421 214.032L192.021 214.355L191.394 213.062C187.239 204.497 184.645 198.529 180.573 189.98L179.78 188.315L181.464 187.56C182.056 187.294 186.053 185.028 189.956 182.279C191.894 180.914 193.734 179.482 195.08 178.172C195.755 177.516 196.262 176.933 196.592 176.441C196.756 176.198 196.858 176.003 196.919 175.855C196.975 175.716 196.981 175.65 196.982 175.645V175.643C197.032 174.337 197.032 173.407 197.02 172.813C197.014 172.517 197.005 172.305 196.998 172.172C196.995 172.105 196.991 172.058 196.99 172.031C196.989 172.019 196.988 172.01 196.988 172.006C196.901 171.014 197.635 170.14 198.627 170.054C199.619 169.968 200.493 170.702 200.579 171.694L198.783 171.85C200.49 171.701 200.575 171.694 200.579 171.694L200.579 171.695V171.698C200.579 171.7 200.58 171.702 200.58 171.705C200.58 171.71 200.581 171.716 200.581 171.723C200.582 171.738 200.584 171.757 200.586 171.781C200.589 171.829 200.593 171.896 200.598 171.982C200.607 172.155 200.617 172.406 200.624 172.74C200.638 173.408 200.637 174.409 200.584 175.782C200.546 176.788 200.083 177.71 199.584 178.453C199.062 179.229 198.365 180.007 197.594 180.756C196.05 182.258 194.033 183.816 192.032 185.226C189.256 187.181 186.363 188.95 184.563 189.977C188.1 197.457 190.442 202.783 194.023 210.218C195.808 209.863 197.305 209.663 198.482 209.468C200.014 209.213 200.956 208.97 201.724 208.513L201.738 208.505L201.752 208.496C203.429 207.538 204.865 206.44 208.04 204.046C209.808 202.694 211.777 201.23 214.212 199.201C218.713 195.408 221.796 192.173 223.845 190.021C227.206 186.454 228.839 184.718 230.587 181.999L230.596 181.984C231.083 181.241 231.19 181.013 231.482 180.441C231.803 179.813 232.284 178.893 233.485 176.856L233.487 176.854C235.026 174.253 235.537 173.425 235.78 172.037C235.938 170.853 235.779 169.86 235.635 169.092C235.452 168.113 236.096 167.172 237.075 166.988Z" fill="var(--fill-0, #191919)" style="fill:#191919;fill:color(display-p3 0.0980 0.0980 0.0980);fill-opacity:1;"/>
</g>
</g>
</svg>
