<svg preserveAspectRatio="none" width="100%" height="100%" overflow="visible" style="display: block;" viewBox="0 0 3.99999 23.9997" fill="none" xmlns="http://www.w3.org/2000/svg">
<g id="icon">
<path d="M2 4C3.10456 4 3.99999 3.10457 3.99999 2C3.99999 0.89543 3.10456 0 2 0C0.895429 0 0 0.89543 0 2C0 3.10457 0.895429 4 2 4Z" fill="var(--fill-0, #6B7280)" style="fill:#6B7280;fill:color(display-p3 0.4196 0.4471 0.5020);fill-opacity:1;"/>
<path d="M2 14.0003C3.10456 14.0003 3.99999 13.1049 3.99999 12.0003C3.99999 10.8957 3.10456 10.0003 2 10.0003C0.895429 10.0003 0 10.8957 0 12.0003C0 13.1049 0.895429 14.0003 2 14.0003Z" fill="var(--fill-0, #6B7280)" style="fill:#6B7280;fill:color(display-p3 0.4196 0.4471 0.5020);fill-opacity:1;"/>
<path d="M2 23.9997C3.10456 23.9997 3.99999 23.1043 3.99999 21.9997C3.99999 20.8952 3.10456 19.9997 2 19.9997C0.895429 19.9997 0 20.8952 0 21.9997C0 23.1043 0.895429 23.9997 2 23.9997Z" fill="var(--fill-0, #6B7280)" style="fill:#6B7280;fill:color(display-p3 0.4196 0.4471 0.5020);fill-opacity:1;"/>
</g>
</svg>
