<svg preserveAspectRatio="none" width="100%" height="100%" overflow="visible" style="display: block;" viewBox="0 0 43.2617 61.9375" fill="none" xmlns="http://www.w3.org/2000/svg">
<g id="Group">
<path id="Vector" d="M42.4666 11.5C42.1854 10.2031 41.1541 9.10152 39.8807 8.7734C39.2869 8.5234 38.6385 8.41402 37.951 8.50777C37.5213 8.57027 36.9901 9.01558 36.7323 9.05465C36.2713 9.12496 35.7088 8.9609 35.0994 8.68746C34.4432 8.06246 33.7244 7.29683 33.1307 6.94527C32.6229 6.64058 30.5448 5.99996 30.451 5.89058C30.4119 5.85152 28.9276 3.24215 28.3494 1.54683C28.3026 1.40621 28.2479 1.30465 28.1776 1.22652L28.1073 1.03902C28.076 1.05465 28.0448 1.07027 28.0057 1.0859C27.451 0.812459 26.576 1.89058 26.2401 2.35933C25.8182 2.94527 24.6307 5.73433 24.3963 6.03902C24.0291 6.10933 23.6698 6.22652 23.3182 6.36715C22.9041 6.4609 22.4744 6.57027 22.1854 6.73433L20.7869 4.42183C20.7557 4.35933 20.7244 4.30465 20.6854 4.25777L20.2948 3.61715C20.1776 3.73433 20.0682 3.85933 19.9588 3.98433C19.7713 4.0234 19.5526 4.12496 19.2791 4.29683C17.2479 5.60152 17.3182 8.90621 16.6619 10.8515C16.451 11.4687 14.6932 13.75 14.2166 14.5859C12.8729 16.9453 11.7323 19.539 10.8885 22.125C10.7166 22.6562 10.5448 24.0546 10.3416 24.4375C10.2557 24.6015 8.56819 26.0078 8.24007 26.4062C6.97444 27.9062 6.06819 29.6718 6.06819 31.625C5.97444 32.4296 6.07601 33.2265 6.43538 34C6.84163 35.0234 7.63069 35.8984 8.59163 36.5937C8.49788 36.7578 8.31038 37.0156 8.31038 37.0781C8.31038 37.0937 8.38069 37.1406 8.41976 37.1875C8.34163 37.3984 8.26351 37.6015 8.20101 37.8125C7.41194 39.8359 7.30257 42.5703 7.97444 44.5468C8.38851 45.7656 9.20882 47.6875 9.96663 49.7109L11.576 56.5156C11.5604 56.6875 11.5369 56.8593 11.5057 57.0078C11.5057 57.0234 11.3573 56.9921 11.3026 57.1796C11.1151 57.8437 10.451 59.0937 10.5604 59.8203C10.4823 59.875 10.3573 59.9062 10.3494 59.9609C10.3494 60 10.4276 60.1093 10.5448 60.2187C10.5369 60.2421 10.5291 60.25 10.5291 60.25C10.7088 60.4765 10.9744 60.7187 11.3104 60.75C11.8494 60.8046 12.2166 60.3046 12.5369 60.2421C12.6229 60.3437 12.7713 60.5781 12.951 60.8203C12.9588 60.8437 12.9744 60.8671 12.9823 60.8906C13.0135 61.164 13.0526 61.4609 13.2557 61.6171C13.8494 62.1093 15.6307 61.1953 16.7088 60.2031C17.3963 59.5703 17.8885 58.8359 18.2323 58.0781C18.5369 57.4062 18.7401 56.7187 18.8729 56.0703C19.1385 55.0312 19.2088 53.9843 19.2088 52.7968C19.9276 52.9453 20.7323 53.0468 21.6151 53.0703C22.8494 53.0937 23.9432 52.9531 24.8729 52.7421V53.5468C24.8651 53.789 24.8494 54.0312 24.8729 54.2578C24.9119 54.664 24.9744 55.0859 25.0526 55.5156C25.1619 56.164 25.3416 56.8046 25.5916 57.4218C25.7401 57.8203 25.9119 58.2187 26.1307 58.6015C26.451 59.1796 26.8651 59.7265 27.3963 60.2187C28.4744 61.2109 30.2479 62.125 30.8494 61.6328C31.0604 61.4609 31.0916 61.1406 31.1229 60.8593C31.3026 60.625 31.4901 60.375 31.6073 60.2734C31.9198 60.375 32.2713 60.8281 32.7948 60.7734C33.1385 60.7343 33.3963 60.5 33.576 60.2734C33.576 60.2734 33.5526 60.2265 33.5135 60.1406V60C33.7323 59.2343 32.7401 57.5078 32.6151 56.5468C32.5838 56.3046 32.5838 56.0078 32.6073 55.664L34.1385 48.9921C34.3651 48.2734 34.5838 47.6406 34.7713 47.1562C35.1776 46.5468 35.5526 45.8437 35.8494 45.039C35.9119 44.875 35.9588 44.7187 36.0135 44.5546C36.1854 44.1484 36.3338 43.7109 36.4198 43.1953C36.7791 41.0937 36.4666 39.9843 36.0057 38.5L35.8416 37.9609C35.7401 37.6328 35.6385 37.289 35.5369 36.9062C35.4901 36.7343 35.4354 36.5859 35.4041 36.4453L35.6619 36.2109C36.1932 35.6875 36.5604 35.1015 36.8104 34.5859C36.8104 34.5859 36.8182 34.5703 36.826 34.5625C37.1854 34.0468 37.4666 33.4687 37.6463 32.7968C37.6541 32.7578 37.7479 32.4375 37.576 32.4921C38.1776 30.375 36.6385 27.6875 35.2323 26.1796C35.1307 26.0703 34.951 25.9375 34.7557 25.8046C34.5057 25.539 34.2479 25.289 33.9823 25.0546C33.9823 25.0156 33.9901 24.9609 33.9823 24.914C34.6151 24.5312 35.1698 24.0937 35.6619 23.6406C36.3573 23.0546 38.326 20.375 38.3885 20.0703C38.4823 19.8437 38.576 19.6171 38.6541 19.3906C38.7166 19.25 38.7713 19.1171 38.8182 19.0078C38.8885 18.8906 38.9666 18.7812 39.0369 18.664C39.4979 18.3437 39.826 18.0312 40.0213 17.7734L39.701 17.789C39.8338 17.6406 39.9744 17.4921 40.1307 17.3437C40.1932 17.3203 40.2635 17.289 40.326 17.2656C40.6463 17.1796 40.951 17.0468 41.2401 16.8593C41.9744 16.3828 42.4198 15.664 42.6307 14.875C43.0135 13.8046 42.9119 12.5937 42.4588 11.5156L42.4666 11.5ZM18.4823 58.1093V58.0625C18.5526 58.0703 18.5369 58.0312 18.5526 57.9921C18.576 57.9296 18.5682 57.875 18.6229 57.789L18.5604 58.1171C18.5369 58.1171 18.5135 58.1171 18.4901 58.1093H18.4823ZM26.4354 58.4687C26.4666 58.5156 26.4979 58.5703 26.5291 58.6171C26.5135 58.6171 26.4901 58.625 26.4744 58.6328L26.4354 58.4609V58.4687Z" fill="var(--fill-0, white)" style="fill:white;fill-opacity:1;"/>
<g id="Vector_2">
</g>
<path id="Vector_3" d="M13.6932 38.6328C13.3104 38.6328 12.9197 38.6093 12.5135 38.5468C9.50569 38.1249 6.00569 36.0468 5.45881 33.0156C5.16975 31.414 5.83381 29.8906 6.31819 28.7812C7.08381 27.0312 8.48225 25.8906 9.41194 25.1328C9.576 24.9999 9.73225 24.8749 9.85725 24.7656C10.1073 24.5468 10.4822 24.5703 10.701 24.8203C10.9197 25.0703 10.8963 25.4453 10.6463 25.664C10.5135 25.7812 10.3494 25.914 10.1698 26.0624C9.33381 26.7421 8.06038 27.7734 7.41975 29.2578C6.97444 30.2812 6.41975 31.5546 6.6385 32.8046C7.06819 35.1874 10.0447 36.9999 12.6776 37.3671C15.076 37.7031 17.0369 36.7968 19.3026 35.7578C20.6072 35.1562 21.3963 34.6249 22.1619 34.1093C23.0369 33.5156 23.8651 32.9531 25.326 32.3671C27.0994 31.6484 28.9979 31.2187 30.9666 31.0859C31.2947 31.0624 31.5838 31.3124 31.5994 31.6406C31.6151 31.9687 31.3729 32.2578 31.0447 32.2734C29.201 32.3984 27.4276 32.8046 25.7713 33.4687C24.4276 34.0156 23.6541 34.539 22.826 35.0937C22.0213 35.6406 21.1854 36.2031 19.7947 36.8437C17.8026 37.7578 15.9041 38.6328 13.6854 38.6328H13.6932Z" fill="var(--fill-0, #191919)" style="fill:#191919;fill:color(display-p3 0.0980 0.0980 0.0980);fill-opacity:1;"/>
<path id="Vector_4" d="M30.2245 38.3359C27.951 38.3359 25.3807 37.7031 22.8338 36.4453C22.537 36.2969 22.4198 35.9453 22.5604 35.6484C22.7088 35.3516 23.0604 35.2344 23.3573 35.375C28.076 37.7109 32.7948 37.75 35.0839 35.4844C36.1229 34.4609 36.4745 33.1563 36.5604 32.7813C37.4042 28.9922 33.7635 25.7188 33.6073 25.5859C33.3573 25.3672 33.3339 24.9922 33.5526 24.7422C33.7714 24.4922 34.1464 24.4688 34.3964 24.6875C34.8417 25.0781 38.701 28.6484 37.7167 33.0391C37.6151 33.4922 37.1854 35.0781 35.9198 36.3281C34.576 37.6641 32.5526 38.3281 30.2167 38.3281L30.2245 38.3359ZM17.3885 31.5859C15.1151 32.7969 14.1463 33.4844 13.7713 33.1484C13.5838 32.9844 13.5135 32.5547 14.0213 31.375C13.2948 31.375 12.451 31.2969 12.3417 30.9219C12.1698 30.3516 13.7167 29.25 15.162 28.7344C15.6151 28.5781 16.076 28.4609 16.5448 28.3906L17.3963 31.5781L17.3885 31.5859Z" fill="var(--fill-0, #191919)" style="fill:#191919;fill:color(display-p3 0.0980 0.0980 0.0980);fill-opacity:1;"/>
<path id="Vector_5" d="M13.9979 33.8437C13.7635 33.8437 13.5604 33.7656 13.3729 33.6015C12.9354 33.2187 12.9745 32.5937 13.1776 31.9297C12.5057 31.8515 11.9354 31.6406 11.7713 31.0937C11.3963 29.875 13.7557 28.6015 14.9588 28.1718C15.4354 28.0078 15.9354 27.8828 16.451 27.8047L16.9823 27.7265L18.0917 31.8906L17.6776 32.1172C17.1776 32.3828 16.7479 32.625 16.3729 32.8281C15.2401 33.4531 14.537 33.8437 14.0135 33.8437H13.9979ZM13.037 30.6953C13.2088 30.7343 13.5057 30.7734 14.0213 30.7812H14.9198L14.5682 31.6093C14.3573 32.1015 14.2792 32.3984 14.2479 32.5781C14.5838 32.4453 15.1698 32.125 15.787 31.7812C16.0604 31.6328 16.3651 31.4609 16.6932 31.2812L16.1073 29.0781C15.8495 29.1328 15.5995 29.2109 15.3651 29.2968C14.2557 29.6875 13.3651 30.3281 13.0448 30.6875L13.037 30.6953Z" fill="var(--fill-0, #191919)" style="fill:#191919;fill:color(display-p3 0.0980 0.0980 0.0980);fill-opacity:1;"/>
<path id="Vector_6" d="M17.0057 32.4609L15.7947 27.9062L16.451 27.8047C18.5994 27.4844 20.5916 27.9765 21.3729 28.5937C21.7401 28.8828 21.8338 29.1875 21.8494 29.3906C21.9041 30.039 21.4197 30.2656 20.3729 30.7578C19.8338 31.0078 19.0994 31.3594 18.0682 31.8984C17.9822 31.9453 17.8963 31.9844 17.8182 32.0312L17.0057 32.4609ZM17.2947 28.914L17.7713 30.7109C18.6932 30.2344 19.3651 29.914 19.8651 29.6797C20.076 29.5781 20.2791 29.4844 20.4354 29.4062C19.9276 29.1406 18.7557 28.8125 17.2869 28.914H17.2947ZM18.3729 58.1797C18.3104 58.1719 18.2479 58.164 18.1776 58.1562L18.0291 58.1406L18.1151 57.4297L18.2557 57.4453C18.326 57.4531 18.3885 57.4609 18.4588 57.4687L18.3651 58.1797H18.3729ZM11.5916 57.4609C11.4822 57.4453 11.3729 57.4375 11.2713 57.4219L11.0838 57.3984L11.1697 56.6875L11.3572 56.7109C11.4588 56.7265 11.5682 56.7344 11.6697 56.75L11.5916 57.4609ZM32.2635 56.9687L32.0682 56.2812C32.2088 56.2422 32.3416 56.2031 32.4823 56.164L32.6854 56.8515C32.5448 56.8906 32.4119 56.9297 32.2635 56.9765V56.9687ZM25.8416 58.7187L25.6385 58.0312L25.7401 58C25.7869 57.9844 25.8338 57.9687 25.8885 57.9531L26.0838 58.6406C26.0369 58.6562 25.9979 58.664 25.951 58.6797L25.8416 58.7109V58.7187ZM12.0838 50.2969C11.9901 50.2969 11.8963 50.2656 11.8104 50.2109C10.7166 49.4531 8.71662 47.7578 7.64631 44.8906C6.31037 41.3281 7.63068 37.8359 8.06818 36.6875L8.12287 36.5312C8.21662 36.2812 8.49006 36.1562 8.73225 36.25C8.98225 36.3437 9.10725 36.6172 9.0135 36.8594L8.951 37.0156C8.55256 38.0781 7.326 41.3203 8.52912 44.5469C9.5135 47.164 11.3416 48.7187 12.3416 49.414C12.5604 49.5625 12.6151 49.8594 12.4666 50.0781C12.3729 50.2109 12.2244 50.2812 12.076 50.2812L12.0838 50.2969ZM31.7166 50.2969C31.5682 50.2969 31.4198 50.2265 31.326 50.0937C31.1776 49.875 31.2322 49.5781 31.451 49.4297C32.451 48.7344 34.2791 47.1797 35.2635 44.5625C36.4744 41.3359 35.2479 38.0937 34.8416 37.0312L34.7791 36.875C34.6854 36.625 34.8182 36.3515 35.0604 36.2656C35.3104 36.1719 35.5838 36.3047 35.6698 36.5469L35.7244 36.7031C36.1619 37.8515 37.4744 41.3437 36.1463 44.9062C35.076 47.7734 33.076 49.4687 31.9823 50.2265C31.8963 50.2812 31.8026 50.3125 31.7088 50.3125L31.7166 50.2969Z" fill="var(--fill-0, #191919)" style="fill:#191919;fill:color(display-p3 0.0980 0.0980 0.0980);fill-opacity:1;"/>
<path id="Vector_7" d="M18.076 57.7812C17.7245 58.539 17.2401 59.2812 16.5526 59.9062C15.4745 60.8984 13.701 61.8125 13.0995 61.3203C12.6932 60.9843 12.9589 60.1015 12.5526 59.9531C12.1776 59.8125 11.7948 60.5234 11.1542 60.4531C10.8104 60.414 10.5526 60.1797 10.3729 59.9531C10.3729 59.9531 11.5057 57.5625 11.6307 57.1015C13.5995 57.3281 16.1385 57.5547 18.076 57.7734V57.7812Z" fill="var(--fill-0, white)" style="fill:white;fill-opacity:1;"/>
<path id="Vector_8" d="M13.5682 61.9374C13.2713 61.9374 13.0057 61.8671 12.7948 61.6874C12.451 61.3984 12.3963 60.9609 12.3495 60.6406C12.3495 60.6015 12.3338 60.5468 12.3338 60.4999C12.3104 60.5156 12.2792 60.5312 12.2635 60.5468C12.0057 60.7187 11.6229 60.9843 11.1073 60.9296C10.701 60.8828 10.326 60.6562 9.99791 60.2499L9.81041 60.0156L9.93541 59.7499C10.3651 58.8359 11.0838 57.2812 11.1698 56.9765L11.2792 56.5781L11.6854 56.6249C12.6385 56.7343 13.7401 56.8437 14.8026 56.9531C15.9432 57.0703 17.1229 57.1874 18.1307 57.3046L18.787 57.3828L18.5135 57.9765C18.1073 58.8671 17.5526 59.6406 16.8807 60.2578C16.1698 60.9062 14.6698 61.9374 13.576 61.9374H13.5682ZM12.451 59.4609C12.537 59.4609 12.6229 59.4765 12.7167 59.5078C13.1932 59.6796 13.2557 60.1874 13.2948 60.5234C13.3104 60.6562 13.3417 60.914 13.3963 60.9609C13.6307 61.1484 15.0526 60.6406 16.2167 59.5624C16.6463 59.1718 17.0135 58.7109 17.3182 58.1796C16.4901 58.0859 15.5838 57.9999 14.6932 57.9062C13.7635 57.8124 12.8026 57.7187 11.9354 57.6171C11.6854 58.2421 11.1932 59.2968 10.9276 59.8593C11.0057 59.9218 11.0995 59.9687 11.1854 59.9765C11.3417 59.9921 11.4823 59.9062 11.701 59.7499C11.8963 59.6171 12.1385 59.4531 12.4276 59.4531L12.451 59.4609Z" fill="var(--fill-0, #191919)" style="fill:#191919;fill:color(display-p3 0.0980 0.0980 0.0980);fill-opacity:1;"/>
<path id="Vector_9" d="M18.076 58.2578C18.0057 58.2578 17.9432 58.2421 17.8807 58.2109C17.6385 58.1015 17.5369 57.8203 17.6463 57.5781C18.2088 56.3515 18.4901 54.8203 18.4666 53.1562C18.4666 52.8906 18.6698 52.6796 18.9354 52.6718C19.1932 52.6718 19.4119 52.8828 19.4119 53.1406C19.4354 54.9531 19.1229 56.625 18.5057 57.9765C18.4276 58.1484 18.2557 58.2578 18.0682 58.2578H18.076ZM11.6307 57.5859C11.5916 57.5859 11.5448 57.5859 11.5057 57.5703C11.2557 57.5 11.1073 57.25 11.1619 57.0078C11.1619 56.6015 11.0994 54.6562 10.9041 53.9531C10.6854 53.1562 8.83382 47.3671 8.8182 47.3125C8.74007 47.0625 8.87288 46.789 9.1307 46.7109C9.3807 46.6328 9.65414 46.7656 9.73226 47.0234C9.81039 47.2656 11.6073 52.8828 11.8338 53.7031C12.0916 54.6406 12.1229 57.0312 12.1229 57.0546C12.1229 57.125 12.1073 57.1875 12.0916 57.2421C12.0369 57.4531 11.8416 57.5937 11.6307 57.5937V57.5859Z" fill="var(--fill-0, #191919)" style="fill:#191919;fill:color(display-p3 0.0980 0.0980 0.0980);fill-opacity:1;"/>
<path id="Vector_10" d="M33.4276 59.9609C33.2479 60.1875 32.9823 60.4297 32.6463 60.4609C32.0057 60.5312 31.6229 59.8203 31.2479 59.9609C30.8416 60.1094 31.1073 60.9922 30.701 61.3281C30.1073 61.8203 28.326 60.9062 27.2479 59.914C26.7166 59.4297 26.3026 58.875 25.9823 58.2969C27.8729 57.7422 30.2479 57.1797 32.162 56.6172V57.0469C32.162 57.2734 33.4354 59.9531 33.4354 59.9531L33.4276 59.9609Z" fill="var(--fill-0, white)" style="fill:white;fill-opacity:1;"/>
<path id="Vector_11" d="M30.2323 61.9375C29.1386 61.9375 27.6308 60.9063 26.9276 60.2578C26.3964 59.7734 25.9354 59.1875 25.5683 58.5234L25.2792 58L25.8495 57.8281C26.8183 57.5391 27.9354 57.25 29.0136 56.9688C30.037 56.7031 31.0995 56.4219 32.0292 56.1484L32.6542 55.9688L32.6386 56.6172V56.9922C32.7245 57.2813 33.3183 58.5938 33.8651 59.7422L33.9901 60.0078L33.8026 60.2422C33.4745 60.6484 33.1073 60.875 32.6933 60.9219C32.1854 60.9688 31.7948 60.7109 31.537 60.5391L31.4667 60.4922C31.4667 60.5391 31.4511 60.5937 31.4511 60.6328C31.412 60.9531 31.3573 61.3984 31.0058 61.6797C30.7948 61.8594 30.5292 61.9297 30.2323 61.9297V61.9375ZM26.7245 58.5859C26.9745 58.9453 27.2636 59.2734 27.5761 59.5625C28.7479 60.6406 30.1698 61.1484 30.4042 60.9609C30.4589 60.9141 30.4901 60.6641 30.5058 60.5313C30.5448 60.1953 30.6151 59.6953 31.0917 59.5156C31.4979 59.3672 31.8339 59.5938 32.0839 59.7656C32.3026 59.9141 32.4511 60.0078 32.5995 59.9922C32.6933 59.9844 32.7792 59.9375 32.8573 59.875C32.0448 58.1563 31.7948 57.5234 31.7167 57.2578C30.9276 57.4766 30.0839 57.7031 29.2558 57.9141C28.4042 58.1328 27.5292 58.3672 26.7245 58.5938V58.5859Z" fill="var(--fill-0, #191919)" style="fill:#191919;fill:color(display-p3 0.0980 0.0980 0.0980);fill-opacity:1;"/>
<path id="Vector_12" d="M25.9823 58.7734C25.8182 58.7734 25.6542 58.6875 25.5682 58.5313C24.7088 56.9922 24.2713 55.0234 24.3104 52.8281C24.3104 52.5625 24.5292 52.3594 24.7948 52.3594C25.0604 52.3594 25.2713 52.5781 25.2635 52.8438C25.2401 54.2578 25.4198 56.3125 26.4042 58.0703C26.5292 58.2969 26.451 58.5938 26.2167 58.7188C26.1463 58.7578 26.0604 58.7813 25.9823 58.7813V58.7734ZM32.162 57.1016H32.1463C31.8807 57.0938 31.6776 56.875 31.6854 56.6094C31.7167 55.6328 31.7948 54.3281 31.9667 53.6953C32.076 53.2969 32.1776 52.9297 32.2792 52.5547C32.6151 51.2891 32.9667 49.9844 33.826 47.2578C33.9042 47.0078 34.1698 46.8672 34.4276 46.9453C34.6776 47.0234 34.8182 47.2891 34.7401 47.5469C33.8885 50.2578 33.537 51.5547 33.201 52.8047C33.0995 53.1797 32.9979 53.5547 32.8885 53.9531C32.7713 54.3672 32.6854 55.3516 32.6385 56.6406C32.6307 56.8984 32.4198 57.1016 32.162 57.1016Z" fill="var(--fill-0, #191919)" style="fill:#191919;fill:color(display-p3 0.0980 0.0980 0.0980);fill-opacity:1;"/>
<path id="Vector_13" d="M21.7479 53.3749H21.451C19.6854 53.3359 17.9589 52.9687 16.3182 52.2812C16.0136 52.1562 15.8729 51.8046 15.9979 51.4999C16.1229 51.1952 16.4745 51.0546 16.7792 51.1796C18.2792 51.8046 19.8573 52.1406 21.4745 52.1796C23.2636 52.2187 25.076 51.8749 26.7323 51.1796C27.037 51.0546 27.3885 51.1952 27.5135 51.4999C27.6385 51.8046 27.4979 52.1562 27.1932 52.2812C25.4745 52.9999 23.5995 53.3749 21.7479 53.3749ZM2.06824 47.4062C1.55261 47.4062 1.02136 47.3515 0.474487 47.2421C0.154174 47.1718 -0.056763 46.8593 0.0135495 46.539C0.083862 46.2187 0.396362 46.0077 0.716674 46.0781C1.67761 46.2812 2.5448 46.2656 3.25574 46.1093C2.34949 45.2031 1.82605 43.8827 2.32605 42.7656C2.69324 41.9374 3.70105 41.1796 4.67761 41.3827C5.18542 41.4921 5.64636 41.8671 5.96667 42.4374C6.43542 43.2734 6.5448 44.3906 6.24792 45.2109C6.13855 45.5234 5.96667 45.8046 5.74011 46.0546C5.9823 46.0702 6.24792 46.0546 6.52136 45.9765C7.06824 45.8202 7.42761 45.4999 7.63855 45.2499C7.8573 44.9999 8.2323 44.9687 8.4823 45.1874C8.7323 45.3984 8.76355 45.7812 8.5448 46.0312C8.22449 46.3984 7.67761 46.8906 6.84949 47.1249C5.82605 47.414 4.93542 47.1484 4.46667 46.9452C3.77917 47.2499 2.95886 47.414 2.06042 47.414L2.06824 47.4062ZM4.34949 42.5312C4.03699 42.5312 3.58386 42.8593 3.41199 43.2421C3.09167 43.9609 3.69324 45.0077 4.4823 45.5781C4.80261 45.3515 5.02136 45.0859 5.12292 44.7968C5.30261 44.2968 5.21667 43.5468 4.9198 43.0077C4.77136 42.7421 4.59167 42.5702 4.42761 42.539C4.40417 42.539 4.37292 42.5312 4.34949 42.5312ZM14.3417 33.6874C14.1776 33.6874 14.0214 33.6015 13.9354 33.4531C13.8026 33.2265 13.8729 32.9374 14.0995 32.7968C16.6464 31.2656 19.1776 30.1093 21.6229 29.3515C22.5292 29.0702 23.6073 28.789 24.9511 28.9687C26.8495 29.2265 28.1542 30.2265 28.7635 30.7968C28.9589 30.9765 28.9667 31.2812 28.787 31.4687C28.6073 31.664 28.3026 31.6718 28.1151 31.4921C27.5917 30.9999 26.4589 30.1327 24.826 29.914C23.6776 29.7577 22.7557 29.9999 21.9042 30.2577C19.5292 30.9843 17.0682 32.1093 14.5917 33.6015C14.5135 33.6484 14.4276 33.6718 14.3495 33.6718L14.3417 33.6874ZM16.537 28.5156C16.4823 28.5156 16.4354 28.4765 16.4198 28.4296L16.3104 28.0077C16.2948 27.9452 16.3339 27.8827 16.3964 27.8593C16.4589 27.8437 16.5292 27.8827 16.5448 27.9452L16.6542 28.3671C16.6698 28.4296 16.6307 28.4921 16.5682 28.5156H16.537ZM10.3339 25.8202C10.287 25.8202 10.2323 25.8202 10.1854 25.8046C9.86511 25.7187 9.67761 25.3984 9.75574 25.0781C9.83386 24.7656 9.9198 24.4296 10.0057 24.0702C10.4276 22.3046 10.9589 20.1093 12.0604 17.9921C12.2714 17.5781 12.4901 17.164 12.701 16.7499C13.8573 14.4999 14.9432 12.3827 16.037 11.1171C16.2557 10.8671 16.6307 10.8437 16.8807 11.0546C17.1307 11.2734 17.1542 11.6484 16.9432 11.8984C15.9432 13.0546 14.8339 15.2109 13.7635 17.2968C13.5526 17.7109 13.3339 18.1327 13.1229 18.5468C12.0839 20.539 11.576 22.6484 11.1698 24.3515C11.0839 24.7187 10.9979 25.0624 10.9198 25.3749C10.8495 25.6406 10.6073 25.8202 10.3417 25.8202H10.3339Z" fill="var(--fill-0, #191919)" style="fill:#191919;fill:color(display-p3 0.0980 0.0980 0.0980);fill-opacity:1;"/>
<path id="Vector_14" d="M19.576 16.0547C19.4745 16.0547 19.3729 16.0312 19.2791 15.9766C18.5057 15.5313 17.4588 14.7109 16.8104 13.3516C15.9745 11.6016 16.2948 9.95312 16.5135 8.85937C17.0448 6.17187 18.5604 4.23437 19.7401 3.09375L20.3026 2.54687L23.8651 9.0625C24.0213 9.35156 23.9198 9.71094 23.6307 9.875C23.3416 10.0312 22.9823 9.92969 22.8182 9.64062L20.0291 4.53125C19.0916 5.57812 18.0838 7.10938 17.6932 9.10156C17.4901 10.1484 17.2323 11.4531 17.8963 12.8516C18.412 13.9375 19.2713 14.6016 19.8885 14.9609C20.1698 15.125 20.2713 15.4922 20.1073 15.7734C19.9979 15.9609 19.7948 16.0703 19.5916 16.0703L19.576 16.0547ZM24.6932 6.38281C24.6385 6.38281 24.5838 6.38281 24.5291 6.35938C24.2166 6.26563 24.0291 5.9375 24.1229 5.61719C24.3885 4.71875 24.7713 3.85937 25.2635 3.0625C25.8729 2.08594 26.6385 1.22656 27.537 0.507812L28.1698 0L30.3026 5.4375C30.4198 5.74219 30.2713 6.09375 29.9666 6.21094C29.662 6.32812 29.3104 6.17969 29.1932 5.875L27.662 1.98438C27.1307 2.49219 26.662 3.07031 26.2713 3.69531C25.8338 4.39844 25.4979 5.15625 25.2635 5.95312C25.1854 6.21094 24.951 6.38281 24.6932 6.38281Z" fill="var(--fill-0, #191919)" style="fill:#191919;fill:color(display-p3 0.0980 0.0980 0.0980);fill-opacity:1;"/>
<path id="Vector_15" d="M39.2088 17.6875C38.0057 17.6875 36.7635 17.2109 35.8416 16.3125C34.1463 14.664 34.1541 12.2343 34.8807 10.6718C35.0448 10.3281 35.2479 9.99995 35.4979 9.70308C35.326 9.6562 35.1463 9.59371 34.9745 9.51558C34.7557 9.40621 34.3963 9.17183 33.8963 8.83589C32.9041 8.17183 31.4041 7.17964 30.2323 6.74214C29.9901 6.64839 29.0838 6.35152 27.5838 6.32808C25.8495 6.29683 23.3026 6.98433 22.4276 7.35933C22.1229 7.49214 21.7713 7.3437 21.6463 7.04683C21.5135 6.74214 21.662 6.39058 21.9588 6.26558C22.9432 5.8437 25.6776 5.11714 27.5995 5.14058C29.2401 5.16402 30.2791 5.49214 30.6463 5.62495C31.9432 6.10933 33.5135 7.1562 34.5526 7.8437C34.9588 8.11714 35.3416 8.36714 35.4901 8.43745C35.8807 8.62495 36.3651 8.63277 36.3651 8.62495H36.5213C36.8963 8.62495 37.5213 8.46089 38.0213 8.32808C38.5057 8.20308 38.787 8.13277 39.0135 8.12495C40.5291 8.07027 41.9432 9.41402 42.6151 10.6875C43.6776 12.6953 43.5291 15.7031 41.4276 17.0546C40.7791 17.4765 40.0057 17.6796 39.2245 17.6796L39.2088 17.6875ZM36.951 9.78902C36.9198 9.89839 36.8651 10.0078 36.7713 10.0859C36.4198 10.4062 36.1463 10.7734 35.9588 11.1718C35.3885 12.3984 35.4432 14.2656 36.6698 15.4531C37.8182 16.5703 39.576 16.8281 40.7635 16.0546C42.3807 15.0078 42.2557 12.5859 41.5448 11.2421C41.037 10.2812 39.9823 9.27339 39.0448 9.31245C38.9432 9.31245 38.576 9.41402 38.3104 9.48433C37.8651 9.60152 37.3807 9.72652 36.9432 9.7812L36.951 9.78902Z" fill="var(--fill-0, #191919)" style="fill:#191919;fill:color(display-p3 0.0980 0.0980 0.0980);fill-opacity:1;"/>
<path id="Vector_16" d="M38.3695 14.3892C38.6781 14.2919 38.7653 13.696 38.5642 13.0581C38.3631 12.4203 37.9499 11.9821 37.6412 12.0794C37.3326 12.1768 37.2455 12.7727 37.4466 13.4105C37.6477 14.0484 38.0609 14.4865 38.3695 14.3892Z" fill="var(--fill-0, #191919)" style="fill:#191919;fill:color(display-p3 0.0980 0.0980 0.0980);fill-opacity:1;"/>
<path id="Vector_17" d="M40.6575 13.4925C40.9661 13.3952 41.0533 12.7992 40.8522 12.1614C40.6511 11.5236 40.2379 11.0854 39.9292 11.1827C39.6206 11.28 39.5334 11.8759 39.7346 12.5138C39.9357 13.1516 40.3489 13.5898 40.6575 13.4925Z" fill="var(--fill-0, #191919)" style="fill:#191919;fill:color(display-p3 0.0980 0.0980 0.0980);fill-opacity:1;"/>
<path id="Vector_18" d="M34.7245 20.2968C34.4745 20.2968 34.2167 20.2812 33.9667 20.2499C32.3026 20.0546 30.701 19.4687 29.2089 18.4999C28.9354 18.3202 28.8495 17.953 29.0292 17.6718C29.2089 17.3984 29.576 17.3124 29.8573 17.4921C31.1932 18.3515 32.6229 18.8827 34.1073 19.0546C34.9823 19.1562 35.8651 19.039 36.8964 18.6874C38.162 18.2499 39.0214 17.578 39.4042 17.1015C39.6073 16.8437 39.9823 16.7968 40.2401 16.9999C40.4979 17.203 40.5448 17.578 40.3417 17.8359C40.1073 18.1327 39.1932 19.1562 37.287 19.8124C36.3651 20.1327 35.537 20.2812 34.7245 20.2812V20.2968Z" fill="var(--fill-0, #191919)" style="fill:#191919;fill:color(display-p3 0.0980 0.0980 0.0980);fill-opacity:1;"/>
<path id="Vector_19" d="M28.0916 18.9922C27.7635 18.9922 27.4979 18.7265 27.4979 18.3906C27.4979 18.0625 27.7635 17.7969 28.0916 17.7969C28.1932 17.7969 28.701 17.7734 29.0448 17.3828C29.2401 17.1562 29.3104 16.8984 29.3338 16.7265C29.3729 16.3984 29.6698 16.1719 29.9979 16.2109C30.326 16.25 30.5604 16.5469 30.5135 16.875C30.4744 17.2109 30.3416 17.7109 29.9432 18.164C29.2791 18.9219 28.3651 18.9844 28.0916 18.9844V18.9922ZM29.6229 26.6875C29.326 26.6875 29.0682 26.4687 29.0291 26.1719C28.9901 25.8437 29.2166 25.5469 29.5448 25.5C30.6385 25.3594 31.6776 25.0547 32.6463 24.5859C35.8963 23.0234 37.4744 20.0937 38.1151 18.4844C38.2401 18.1797 38.5838 18.0312 38.8885 18.1562C39.1932 18.2812 39.3416 18.625 39.2166 18.9297C38.5057 20.6953 36.7713 23.9219 33.1541 25.6562C32.076 26.1719 30.9119 26.5156 29.6932 26.6797H29.6151L29.6229 26.6875Z" fill="var(--fill-0, #191919)" style="fill:#191919;fill:color(display-p3 0.0980 0.0980 0.0980);fill-opacity:1;"/>
<path id="Vector_20" d="M28.8354 13.7961C29.542 13.6549 29.9996 12.9642 29.8576 12.2534C29.7155 11.5426 29.0276 11.0808 28.321 11.222C27.6144 11.3632 27.1568 12.0539 27.2988 12.7647C27.4408 13.4755 28.1288 13.9373 28.8354 13.7961Z" fill="var(--fill-0, #191919)" style="fill:#191919;fill:color(display-p3 0.0980 0.0980 0.0980);fill-opacity:1;"/>
</g>
</svg>
