<svg preserveAspectRatio="none" width="100%" height="100%" overflow="visible" style="display: block;" viewBox="0 0 22 24" fill="none" xmlns="http://www.w3.org/2000/svg">
<path id="icon" d="M17 24H5C3.6744 23.9984 2.40356 23.4711 1.46622 22.5338C0.528882 21.5964 0.00158786 20.3256 0 19V5C0.00158786 3.6744 0.528882 2.40356 1.46622 1.46622C2.40356 0.528882 3.6744 0.00158786 5 0L17 0C18.3256 0.00158786 19.5964 0.528882 20.5338 1.46622C21.4711 2.40356 21.9984 3.6744 22 5V19C21.9984 20.3256 21.4711 21.5964 20.5338 22.5338C19.5964 23.4711 18.3256 23.9984 17 24V24ZM5 2C4.20435 2 3.44129 2.31607 2.87868 2.87868C2.31607 3.44129 2 4.20435 2 5V19C2 19.7956 2.31607 20.5587 2.87868 21.1213C3.44129 21.6839 4.20435 22 5 22H17C17.7956 22 18.5587 21.6839 19.1213 21.1213C19.6839 20.5587 20 19.7956 20 19V5C20 4.20435 19.6839 3.44129 19.1213 2.87868C18.5587 2.31607 17.7956 2 17 2H5ZM15 10H7C6.20435 10 5.44129 9.68393 4.87868 9.12132C4.31607 8.55871 4 7.79565 4 7C4 6.20435 4.31607 5.44129 4.87868 4.87868C5.44129 4.31607 6.20435 4 7 4H15C15.7956 4 16.5587 4.31607 17.1213 4.87868C17.6839 5.44129 18 6.20435 18 7C18 7.79565 17.6839 8.55871 17.1213 9.12132C16.5587 9.68393 15.7956 10 15 10V10ZM7 6C6.73478 6 6.48043 6.10536 6.29289 6.29289C6.10536 6.48043 6 6.73478 6 7C6 7.26522 6.10536 7.51957 6.29289 7.70711C6.48043 7.89464 6.73478 8 7 8H15C15.2652 8 15.5196 7.89464 15.7071 7.70711C15.8946 7.51957 16 7.26522 16 7C16 6.73478 15.8946 6.48043 15.7071 6.29289C15.5196 6.10536 15.2652 6 15 6H7ZM5 13C4.80222 13 4.60888 13.0586 4.44443 13.1685C4.27998 13.2784 4.15181 13.4346 4.07612 13.6173C4.00043 13.8 3.98063 14.0011 4.01921 14.1951C4.0578 14.3891 4.15304 14.5673 4.29289 14.7071C4.43275 14.847 4.61093 14.9422 4.80491 14.9808C4.99889 15.0194 5.19996 14.9996 5.38268 14.9239C5.56541 14.8482 5.72159 14.72 5.83147 14.5556C5.94135 14.3911 6 14.1978 6 14C6 13.7348 5.89464 13.4804 5.70711 13.2929C5.51957 13.1054 5.26522 13 5 13ZM9 13C8.80222 13 8.60888 13.0586 8.44443 13.1685C8.27998 13.2784 8.15181 13.4346 8.07612 13.6173C8.00043 13.8 7.98063 14.0011 8.01921 14.1951C8.0578 14.3891 8.15304 14.5673 8.29289 14.7071C8.43275 14.847 8.61093 14.9422 8.80491 14.9808C8.99889 15.0194 9.19996 14.9996 9.38268 14.9239C9.56541 14.8482 9.72159 14.72 9.83147 14.5556C9.94135 14.3911 10 14.1978 10 14C10 13.7348 9.89464 13.4804 9.70711 13.2929C9.51957 13.1054 9.26522 13 9 13ZM13 13C12.8022 13 12.6089 13.0586 12.4444 13.1685C12.28 13.2784 12.1518 13.4346 12.0761 13.6173C12.0004 13.8 11.9806 14.0011 12.0192 14.1951C12.0578 14.3891 12.153 14.5673 12.2929 14.7071C12.4327 14.847 12.6109 14.9422 12.8049 14.9808C12.9989 15.0194 13.2 14.9996 13.3827 14.9239C13.5654 14.8482 13.7216 14.72 13.8315 14.5556C13.9414 14.3911 14 14.1978 14 14C14 13.7348 13.8946 13.4804 13.7071 13.2929C13.5196 13.1054 13.2652 13 13 13ZM5 17C4.80222 17 4.60888 17.0586 4.44443 17.1685C4.27998 17.2784 4.15181 17.4346 4.07612 17.6173C4.00043 17.8 3.98063 18.0011 4.01921 18.1951C4.0578 18.3891 4.15304 18.5673 4.29289 18.7071C4.43275 18.847 4.61093 18.9422 4.80491 18.9808C4.99889 19.0194 5.19996 18.9996 5.38268 18.9239C5.56541 18.8482 5.72159 18.72 5.83147 18.5556C5.94135 18.3911 6 18.1978 6 18C6 17.7348 5.89464 17.4804 5.70711 17.2929C5.51957 17.1054 5.26522 17 5 17ZM9 17C8.80222 17 8.60888 17.0586 8.44443 17.1685C8.27998 17.2784 8.15181 17.4346 8.07612 17.6173C8.00043 17.8 7.98063 18.0011 8.01921 18.1951C8.0578 18.3891 8.15304 18.5673 8.29289 18.7071C8.43275 18.847 8.61093 18.9422 8.80491 18.9808C8.99889 19.0194 9.19996 18.9996 9.38268 18.9239C9.56541 18.8482 9.72159 18.72 9.83147 18.5556C9.94135 18.3911 10 18.1978 10 18C10 17.7348 9.89464 17.4804 9.70711 17.2929C9.51957 17.1054 9.26522 17 9 17ZM17 13C16.8022 13 16.6089 13.0586 16.4444 13.1685C16.28 13.2784 16.1518 13.4346 16.0761 13.6173C16.0004 13.8 15.9806 14.0011 16.0192 14.1951C16.0578 14.3891 16.153 14.5673 16.2929 14.7071C16.4327 14.847 16.6109 14.9422 16.8049 14.9808C16.9989 15.0194 17.2 14.9996 17.3827 14.9239C17.5654 14.8482 17.7216 14.72 17.8315 14.5556C17.9414 14.3911 18 14.1978 18 14C18 13.7348 17.8946 13.4804 17.7071 13.2929C17.5196 13.1054 17.2652 13 17 13ZM18 18C18 17.7348 17.8946 17.4804 17.7071 17.2929C17.5196 17.1054 17.2652 17 17 17H13C12.7348 17 12.4804 17.1054 12.2929 17.2929C12.1054 17.4804 12 17.7348 12 18C12 18.2652 12.1054 18.5196 12.2929 18.7071C12.4804 18.8946 12.7348 19 13 19H17C17.2652 19 17.5196 18.8946 17.7071 18.7071C17.8946 18.5196 18 18.2652 18 18Z" fill="var(--fill-0, #080B12)" style="fill:#080B12;fill:color(display-p3 0.0314 0.0431 0.0706);fill-opacity:1;"/>
</svg>
