<svg preserveAspectRatio="none" width="100%" height="100%" overflow="visible" style="display: block;" viewBox="0 0 20 24" fill="none" xmlns="http://www.w3.org/2000/svg">
<g id="icon">
<path d="M19 4H15.9C15.6679 2.87141 15.0538 1.85735 14.1613 1.12872C13.2687 0.40009 12.1522 0.00145452 11 0H9C7.8478 0.00145452 6.73132 0.40009 5.83875 1.12872C4.94618 1.85735 4.3321 2.87141 4.1 4H1C0.734784 4 0.48043 4.10536 0.292893 4.29289C0.105357 4.48043 0 4.73478 0 5C0 5.26522 0.105357 5.51957 0.292893 5.70711C0.48043 5.89464 0.734784 6 1 6H2V19C2.00159 20.3256 2.52888 21.5964 3.46622 22.5338C4.40356 23.4711 5.6744 23.9984 7 24H13C14.3256 23.9984 15.5964 23.4711 16.5338 22.5338C17.4711 21.5964 17.9984 20.3256 18 19V6H19C19.2652 6 19.5196 5.89464 19.7071 5.70711C19.8946 5.51957 20 5.26522 20 5C20 4.73478 19.8946 4.48043 19.7071 4.29289C19.5196 4.10536 19.2652 4 19 4ZM9 2H11C11.6203 2.00076 12.2251 2.19338 12.7316 2.55144C13.2381 2.90951 13.6214 3.41549 13.829 4H6.171C6.37858 3.41549 6.7619 2.90951 7.26839 2.55144C7.77487 2.19338 8.37973 2.00076 9 2ZM16 19C16 19.7956 15.6839 20.5587 15.1213 21.1213C14.5587 21.6839 13.7956 22 13 22H7C6.20435 22 5.44129 21.6839 4.87868 21.1213C4.31607 20.5587 4 19.7956 4 19V6H16V19Z" fill="var(--fill-0, #5C0C14)" style="fill:#5C0C14;fill:color(display-p3 0.3608 0.0471 0.0784);fill-opacity:1;"/>
<path d="M8.00008 17.9994C8.2653 17.9994 8.51965 17.894 8.70719 17.7065C8.89472 17.5189 9.00008 17.2646 9.00008 16.9994V10.9994C9.00008 10.7342 8.89472 10.4798 8.70719 10.2923C8.51965 10.1047 8.2653 9.99938 8.00008 9.99938C7.73487 9.99938 7.48051 10.1047 7.29298 10.2923C7.10544 10.4798 7.00008 10.7342 7.00008 10.9994V16.9994C7.00008 17.2646 7.10544 17.5189 7.29298 17.7065C7.48051 17.894 7.73487 17.9994 8.00008 17.9994Z" fill="var(--fill-0, #5C0C14)" style="fill:#5C0C14;fill:color(display-p3 0.3608 0.0471 0.0784);fill-opacity:1;"/>
<path d="M11.9999 17.9994C12.2652 17.9994 12.5195 17.894 12.7071 17.7065C12.8946 17.5189 13 17.2646 13 16.9994V10.9994C13 10.7342 12.8946 10.4798 12.7071 10.2923C12.5195 10.1047 12.2652 9.99938 11.9999 9.99938C11.7347 9.99938 11.4804 10.1047 11.2928 10.2923C11.1053 10.4798 10.9999 10.7342 10.9999 10.9994V16.9994C10.9999 17.2646 11.1053 17.5189 11.2928 17.7065C11.4804 17.894 11.7347 17.9994 11.9999 17.9994Z" fill="var(--fill-0, #5C0C14)" style="fill:#5C0C14;fill:color(display-p3 0.3608 0.0471 0.0784);fill-opacity:1;"/>
</g>
</svg>
