<svg preserveAspectRatio="none" width="100%" height="100%" overflow="visible" style="display: block;" viewBox="0 0 14 11.9913" fill="none" xmlns="http://www.w3.org/2000/svg">
<path id="icon" d="M14 5.99079C13.9951 5.46468 13.7832 4.96168 13.41 4.59079L9.12 0.290793C8.93264 0.104542 8.67919 0 8.415 0C8.15081 0 7.89736 0.104542 7.71 0.290793C7.61627 0.383755 7.54188 0.494356 7.49111 0.616215C7.44034 0.738075 7.4142 0.86878 7.4142 1.00079C7.4142 1.1328 7.44034 1.26351 7.49111 1.38537C7.54188 1.50723 7.61627 1.61783 7.71 1.71079L11 4.99079H1C0.734784 4.99079 0.48043 5.09614 0.292893 5.28368C0.105357 5.47122 0 5.72557 0 5.99079C0 6.256 0.105357 6.51036 0.292893 6.69789C0.48043 6.88543 0.734784 6.99078 1 6.99078H11L7.71 10.2808C7.5217 10.4678 7.41538 10.7219 7.41444 10.9872C7.41351 11.2526 7.51802 11.5075 7.705 11.6958C7.89198 11.8841 8.1461 11.9904 8.41146 11.9913C8.67683 11.9923 8.9317 11.8878 9.12 11.7008L13.41 7.40078C13.7856 7.02743 13.9978 6.52036 14 5.99079V5.99079Z" fill="var(--fill-0, #080B12)" style="fill:#080B12;fill:color(display-p3 0.0314 0.0431 0.0706);fill-opacity:1;"/>
</svg>
