<svg xmlns="http://www.w3.org/2000/svg" id="Camada_2" data-name="Camada 2" viewBox="0 0 380.39 535.68"><defs><style>.cls-4,.cls-6{stroke:#000;stroke-miterlimit:10;stroke-width:9px}.cls-4,.cls-7{fill:none}.cls-4,.cls-6{stroke-linecap:round}.cls-8{fill:#191919}</style></defs><g id="Camada_1-2" data-name="Camada 1"><path d="M364.68 102.97c-2.45-11.18-11.31-20.62-22.25-23.47-5.12-2.18-10.73-3.09-16.59-2.27-3.71.52-8.25 4.34-10.53 4.68-3.95.59-8.84-.79-14.05-3.14-5.68-5.36-11.84-11.96-16.94-14.99-4.4-2.6-22.25-8.16-23.1-9.06-.32-.34-13.09-22.81-18.13-37.43-.41-1.19-.91-2.09-1.46-2.77l-.59-1.62c-.29.13-.56.29-.85.43-4.8-2.36-12.29 6.94-15.23 10.98-3.66 5.04-13.83 29.08-15.89 31.67-3.18.63-6.28 1.61-9.28 2.83-3.56.8-7.29 1.74-9.76 3.19L178 42.09c-.27-.51-.55-.99-.86-1.42l-3.35-5.54c-.98 1.02-1.96 2.08-2.92 3.16-1.61.35-3.53 1.2-5.85 2.69-17.47 11.21-16.88 39.7-22.51 56.43-1.79 5.33-16.94 24.97-21.05 32.16-11.59 20.31-21.37 42.68-28.65 64.91-1.5 4.57-2.96 16.6-4.68 19.88-.73 1.4-15.25 13.54-18.13 16.96-10.88 12.93-18.71 28.11-18.71 44.91-.79 6.94.08 13.81 3.15 20.43 3.47 8.81 10.27 16.36 18.6 22.31-.82 1.4-2.42 3.61-2.45 4.17 0 .16.61.53.95.93-.68 1.78-1.32 3.59-1.9 5.41-6.83 17.39-7.74 40.95-1.97 57.99 3.56 10.53 10.65 27.04 17.18 44.44l13.87 58.61c-.13 1.5-.33 2.93-.64 4.26-.03.11-1.31-.13-1.75 1.46-1.6 5.69-7.37 16.51-6.36 22.74-.7.47-1.75.74-1.83 1.24-.05.33.7 1.25 1.68 2.25-.09.18-.14.29-.14.29 1.54 1.93 3.8 4.01 6.74 4.32 4.67.49 7.78-3.83 10.59-4.4.72.85 2 2.9 3.55 4.97.09.23.18.41.27.58.3 2.36.64 4.88 2.34 6.29 5.14 4.25 20.43-3.62 29.72-12.15 5.92-5.43 10.13-11.78 13.13-18.33 2.65-5.77 4.37-11.69 5.49-17.28 2.28-8.94 2.89-17.96 2.93-28.2 6.18 1.27 13.12 2.18 20.75 2.35 10.62.23 20.08-1.03 28.06-2.83-.03 2.31-.02 4.61.04 6.91-.1 2.09-.19 4.18-.01 6.12.32 3.5.85 7.15 1.55 10.81.97 5.62 2.46 11.1 4.66 16.39 1.26 3.42 2.78 6.84 4.64 10.17 2.77 4.97 6.33 9.72 10.89 13.89 9.29 8.53 24.58 16.4 29.72 12.15 1.79-1.49 2.07-4.21 2.39-6.68 1.54-2.01 3.14-4.14 4.16-5.08 2.71.85 5.75 4.78 10.21 4.31 2.94-.31 5.2-2.38 6.74-4.32 0 0-.2-.42-.53-1.13.04-.38.02-.78-.03-1.18 1.88-6.61-6.66-21.44-7.73-29.75-.27-2.09-.28-4.66-.09-7.58l13.2-57.43c1.97-6.19 3.87-11.66 5.45-15.81 3.47-5.26 6.72-11.3 9.32-18.25.52-1.38.97-2.77 1.39-4.15 1.49-3.49 2.73-7.25 3.48-11.69 3.06-18.08.38-27.68-3.56-40.41-.44-1.55-.91-3.09-1.42-4.62-.86-2.8-1.74-5.77-2.62-9.05-.4-1.49-.89-2.79-1.14-3.98.76-.66 1.5-1.34 2.21-2.04 4.55-4.5 7.71-9.54 9.87-13.98.03-.06.07-.12.1-.19 3.12-4.45 5.52-9.39 7.08-15.19.1-.37.89-3.09-.58-2.63 5.16-18.25-8.06-41.37-20.17-54.38-.87-.93-2.42-2.09-4.07-3.22-2.13-2.3-4.36-4.46-6.65-6.48.05-.37.08-.79-.04-1.22a93.4 93.4 0 0 0 14.5-10.95c6.02-5.02 22.96-28.1 23.45-30.76.83-1.94 1.6-3.88 2.32-5.82.54-1.22 1.02-2.36 1.39-3.28l-.03.02c.62-1.01 1.26-1.99 1.91-2.98 3.95-2.74 6.79-5.48 8.5-7.64l-2.78.14c1.12-1.27 2.34-2.55 3.68-3.85.57-.22 1.13-.45 1.68-.7 2.76-.75 5.42-1.91 7.89-3.5 6.34-4.1 10.14-10.28 11.99-17.11 3.33-9.19 2.4-19.64-1.51-28.94Zm-206.5 401.4c0-.13-.01-.27 0-.4.61.08.48-.28.58-.58.19-.56.15-1.01.58-1.74l-.52 2.8c-.21-.02-.43-.05-.64-.07Zm68.43 3.06c.25.43.52.86.8 1.31-.16.05-.33.09-.49.14l-.32-1.45Z" style="fill:#fff"/><path d="M348.49 176.15c-12.01 2.11-20.44.25-26.05-1.99-5.15-2.05-7.9-4.41-28.98-16.66-1.82-1.06-3.7-2.15-4.04-2.34-8.72-4.98-28.48-6.22-75.04 7.33" class="cls-7"/><path d="M158.22 500.94c-.54-.07-1.1-.13-1.65-.19l-1.29-.15.74-6.12 1.24.14c.59.07 1.17.13 1.74.21l-.79 6.11ZM99.83 494.79c-.94-.1-1.87-.21-2.78-.33l-1.62-.19.71-6.13 1.64.19c.89.11 1.8.22 2.72.32l-.67 6.13ZM277.83 490.49l-1.71-5.92c1.2-.35 2.39-.69 3.55-1.04l1.76 5.91c-1.18.35-2.38.7-3.6 1.06ZM222.51 505.57l-1.73-5.92.88-.27c.41-.13.83-.25 1.26-.38l1.69 5.93c-.38.11-.76.23-1.14.34l-.96.29ZM104.06 433.08c-.81 0-1.62-.24-2.33-.73-9.42-6.51-26.61-21.12-35.85-45.78-11.49-30.68-.12-60.76 3.61-70.64l.49-1.31c.78-2.13 3.15-3.22 5.28-2.44s3.22 3.15 2.44 5.28l-.52 1.38c-3.46 9.17-14.01 37.07-3.6 64.86 8.45 22.56 24.19 35.94 32.82 41.9a4.1 4.1 0 0 1 1.04 5.72 4.09 4.09 0 0 1-3.39 1.77ZM273.11 433.08a4.1 4.1 0 0 1-3.38-1.77 4.12 4.12 0 0 1 1.04-5.72c8.63-5.96 24.37-19.34 32.82-41.9 10.4-27.78-.14-55.69-3.6-64.86l-.52-1.38a4.12 4.12 0 0 1 2.44-5.28 4.12 4.12 0 0 1 5.28 2.44l.49 1.31c3.73 9.88 15.1 39.96 3.61 70.64-9.23 24.66-26.42 39.27-35.85 45.78-.71.49-1.53.73-2.33.73Z" class="cls-8"/><path d="M155.65 497.54c-3 6.56-7.21 12.91-13.13 18.33-9.29 8.53-24.58 16.4-29.72 12.15-3.49-2.9-1.23-10.48-4.71-11.76-3.23-1.19-6.56 4.89-12.04 4.32-2.94-.31-5.2-2.38-6.74-4.32 0 0 9.78-20.61 10.85-24.54 16.98 1.93 38.8 3.88 55.49 5.82"/><path d="M116.83 533.34c-2.54 0-4.82-.64-6.65-2.15-2.98-2.47-3.46-6.26-3.81-9.04-.05-.36-.1-.8-.16-1.22l-.63.43c-2.21 1.5-5.55 3.77-9.95 3.31-3.53-.37-6.73-2.34-9.53-5.84l-1.6-2.01 1.1-2.32c3.72-7.84 9.89-21.25 10.6-23.86l.93-3.4 3.5.4c8.19.93 17.69 1.89 26.87 2.81 9.83.99 19.99 2.01 28.63 3.01l5.62.65-2.35 5.14c-3.52 7.7-8.26 14.31-14.09 19.65-6.09 5.59-19.03 14.44-28.47 14.44Zm-9.6-21.35c.73 0 1.5.12 2.29.42 4.1 1.51 4.65 5.84 5.01 8.71.15 1.17.42 3.34.89 3.74 1.99 1.64 14.24-2.76 24.31-12.01 3.68-3.38 6.87-7.36 9.52-11.89-7.14-.78-14.96-1.57-22.58-2.33-8.04-.81-16.31-1.64-23.77-2.46-2.16 5.35-6.41 14.48-8.67 19.28.68.54 1.45.96 2.24 1.04 1.33.13 2.57-.64 4.47-1.93 1.65-1.12 3.78-2.57 6.28-2.57Z" class="cls-8"/><path d="M155.65 501.65c-.57 0-1.16-.12-1.71-.38a4.11 4.11 0 0 1-2.02-5.45c4.84-10.55 7.29-23.72 7.07-38.08a4.11 4.11 0 0 1 4.05-4.17h.06c2.24 0 4.08 1.8 4.11 4.05.23 15.58-2.47 29.97-7.82 41.63a4.11 4.11 0 0 1-3.74 2.4M100.17 495.83a4.11 4.11 0 0 1-4.01-5.01c-.04-3.48-.51-20.23-2.19-26.3-1.91-6.89-17.82-56.71-17.98-57.21-.69-2.16.5-4.48 2.67-5.17 2.16-.69 4.48.5 5.17 2.67.66 2.06 16.12 50.47 18.07 57.51 2.23 8.04 2.49 28.69 2.49 28.89 0 .6-.12 1.11-.24 1.59a4.106 4.106 0 0 1-3.96 3.04Z" class="cls-8"/><path d="M287.87 516.26c-1.54 1.93-3.8 4.01-6.74 4.32-5.49.58-8.82-5.51-12.04-4.32-3.47 1.27-1.21 8.86-4.71 11.76-5.14 4.25-20.43-3.62-29.72-12.15-4.56-4.17-8.12-8.92-10.89-13.89 16.26-4.81 36.71-9.62 53.21-14.45-.04 1.89-.06 3.23-.06 3.68 0 1.95 10.95 25.05 10.95 25.05"/><path d="M260.34 533.34c-9.44 0-22.38-8.85-28.47-14.44-4.58-4.19-8.52-9.21-11.7-14.92l-2.5-4.49 4.93-1.46c8.37-2.47 17.96-4.98 27.23-7.41 8.84-2.31 17.97-4.7 25.99-7.04l5.39-1.58-.12 5.61c-.03 1.46-.05 2.58-.06 3.2.75 2.48 5.86 13.79 10.56 23.68l1.1 2.32-1.6 2.01c-2.8 3.51-6 5.47-9.53 5.84-4.41.43-7.74-1.81-9.95-3.31-.19-.13-.41-.28-.64-.43-.06.42-.12.86-.16 1.22-.35 2.77-.83 6.57-3.8 9.03-1.83 1.52-4.12 2.16-6.66 2.16Zm-30.22-28.92c2.16 3.12 4.61 5.94 7.31 8.42 10.08 9.25 22.32 13.67 24.32 12.01.47-.39.74-2.56.89-3.73.36-2.87.91-7.21 5.02-8.72 3.49-1.28 6.42.7 8.56 2.16 1.9 1.29 3.15 2.06 4.47 1.93.79-.08 1.56-.5 2.24-1.04-6.99-14.82-9.16-20.27-9.83-22.54-6.79 1.9-14.09 3.81-21.2 5.67-7.33 1.92-14.87 3.89-21.79 5.84Z" class="cls-8"/><path d="M223.77 506.09c-1.44 0-2.84-.76-3.59-2.11-7.39-13.25-11.14-30.23-10.85-49.13.04-2.27 1.91-4.05 4.17-4.05 2.27.04 4.08 1.9 4.05 4.17-.19 12.17 1.36 29.85 9.81 44.99 1.11 1.98.4 4.49-1.59 5.59-.63.36-1.32.52-2 .52ZM276.98 491.64h-.14a4.097 4.097 0 0 1-3.97-4.24c.28-8.43.92-19.62 2.43-25.07.95-3.42 1.8-6.58 2.67-9.81 2.93-10.88 5.95-22.13 13.34-45.63a4.106 4.106 0 0 1 5.15-2.69c2.17.68 3.37 2.99 2.69 5.15-7.34 23.34-10.34 34.51-13.24 45.3-.87 3.25-1.73 6.43-2.68 9.87-.99 3.59-1.77 12.02-2.13 23.14a4.117 4.117 0 0 1-4.11 3.98Z" class="cls-8"/><path d="M187.28 459.58c-.86 0-1.71 0-2.57-.03-15.22-.33-30.08-3.49-44.17-9.4a5.13 5.13 0 0 1-2.75-6.72 5.13 5.13 0 0 1 6.72-2.75c12.9 5.41 26.5 8.3 40.43 8.61 15.38.33 31.02-2.64 45.27-8.61a5.132 5.132 0 1 1 3.96 9.47c-14.77 6.19-30.93 9.43-46.9 9.43ZM17.8 408.17c-4.42 0-9.03-.47-13.71-1.45a5.136 5.136 0 0 1-3.98-6.08c.58-2.78 3.3-4.56 6.08-3.98 8.29 1.73 15.75 1.61 21.85.24-7.8-7.82-12.31-19.21-8.02-28.76 3.19-7.11 11.84-13.69 20.23-11.93 4.4.93 8.35 4.16 11.11 9.12 4.02 7.23 5.01 16.83 2.45 23.89-.97 2.67-2.45 5.1-4.38 7.27 2.05.17 4.35.04 6.76-.65 4.68-1.33 7.83-4.12 9.64-6.24a5.144 5.144 0 0 1 7.25-.55c2.15 1.85 2.4 5.09.55 7.25-2.73 3.18-7.49 7.39-14.63 9.42-8.8 2.51-16.48.19-20.51-1.56-5.91 2.6-13.02 4-20.69 4Zm19.65-41.97c-2.72 0-6.57 2.86-8.05 6.15-2.79 6.21 2.43 15.21 9.22 20.11 2.73-1.93 4.63-4.24 5.53-6.74 1.55-4.29.81-10.76-1.77-15.39-1.27-2.28-2.82-3.76-4.24-4.06-.22-.05-.45-.07-.7-.07ZM88.96 222.27c-.42 0-.86-.05-1.29-.16a5.135 5.135 0 0 1-3.69-6.26c.69-2.69 1.39-5.6 2.13-8.68 3.65-15.18 8.2-34.08 17.71-52.33 1.84-3.53 3.68-7.12 5.51-10.69 9.93-19.35 19.32-37.63 28.73-48.49a5.134 5.134 0 0 1 7.25-.52c2.15 1.86 2.38 5.1.52 7.25-8.6 9.93-18.14 28.5-27.36 46.46-1.85 3.59-3.69 7.19-5.54 10.74-8.92 17.14-13.31 35.35-16.83 49.99-.75 3.13-1.47 6.09-2.17 8.84a5.14 5.14 0 0 1-4.97 3.86Z" class="cls-8"/><path d="M168.56 138.18c-.88 0-1.77-.22-2.58-.7-6.63-3.86-15.7-10.92-21.29-22.63-7.2-15.08-4.41-29.28-2.57-38.68 4.55-23.17 17.62-39.81 27.79-49.68l4.85-4.71 30.65 56.12a5.137 5.137 0 0 1-9.02 4.92l-24.05-44.03c-8.08 9.04-16.77 22.22-20.13 39.36-1.77 9.03-3.98 20.26 1.76 32.27 4.46 9.34 11.81 15.04 17.19 18.18a5.143 5.143 0 0 1 1.85 7.03 5.13 5.13 0 0 1-4.44 2.55ZM212.64 54.89q-.72 0-1.44-.21a5.143 5.143 0 0 1-3.5-6.37 87.9 87.9 0 0 1 9.83-21.98 87.5 87.5 0 0 1 19.58-21.98L242.56 0l18.37 46.82a5.13 5.13 0 0 1-2.91 6.66 5.13 5.13 0 0 1-6.66-2.91L238.2 17.04c-4.58 4.4-8.59 9.33-11.96 14.73a77 77 0 0 0-8.68 19.41 5.145 5.145 0 0 1-4.93 3.7Z" class="cls-8"/><path d="M337.63 152.23c-10.34 0-21.03-4.08-29.03-11.83-14.63-14.19-14.54-35.13-8.26-48.57 1.39-2.98 3.16-5.77 5.28-8.34-1.47-.38-3.02-.91-4.53-1.64-1.9-.92-5.01-2.99-9.31-5.85-8.55-5.69-21.46-14.28-31.54-18.05-2.09-.78-9.9-3.34-22.81-3.54-14.96-.25-36.86 5.65-44.42 8.86a5.13 5.13 0 0 1-6.74-2.71c-1.11-2.61.1-5.63 2.72-6.74 8.49-3.61 32-9.89 48.6-9.68 14.16.22 23.07 3 26.25 4.19 11.19 4.18 24.7 13.17 33.64 19.12 3.5 2.33 6.81 4.54 8.08 5.14 3.37 1.63 7.56 1.67 7.54 1.62h.25s.56.04 1.08.02c3.23-.01 8.58-1.41 12.89-2.53 4.16-1.08 6.6-1.7 8.51-1.77 13.03-.44 25.2 11.09 31.01 22.06 9.15 17.29 7.84 43.18-10.22 54.86-5.6 3.62-12.22 5.37-18.99 5.37Zm-19.46-68a5.1 5.1 0 0 1-1.53 2.56c-3 2.73-5.35 5.89-6.98 9.38-4.94 10.58-4.43 26.64 6.1 36.85 9.88 9.59 25.05 11.83 35.28 5.21 13.92-9.01 12.85-29.84 6.72-41.42-4.38-8.28-13.48-16.97-21.54-16.6-.89.03-4.03.85-6.32 1.45-3.81.99-7.99 2.08-11.74 2.58Z" class="cls-8"/><ellipse cx="327.28" cy="113.71" class="cls-8" rx="5.07" ry="10.43" transform="rotate(-17.53 327.348 113.717)"/><ellipse cx="346.99" cy="106" class="cls-8" rx="5.07" ry="10.43" transform="rotate(-17.53 347.063 106)"/><path d="M255.08 229.76c-2.54 0-4.75-1.88-5.09-4.47-.37-2.81 1.62-5.39 4.43-5.76 9.39-1.22 18.36-3.87 26.68-7.86 28-13.45 41.54-38.68 47.12-52.52a5.134 5.134 0 0 1 6.69-2.84 5.13 5.13 0 0 1 2.84 6.69c-6.14 15.22-21.08 43-52.21 57.95-9.3 4.46-19.32 7.42-29.8 8.78-.23.03-.45.04-.67.04Z" class="cls-8"/><ellipse cx="246.07" cy="107.76" class="cls-8" rx="11.27" ry="11.33" transform="rotate(-11.28 246.002 107.728)"/><path d="M254.44 158.91c-.38 2.1-.73 5.44 0 9.39.67 3.59 2.96 11.59 10.56 16.43 5.75 3.66 11.66 3.68 14.09 3.52 15.1-.97 23.03-16.68 23.48-17.61-16.04-3.91-32.09-7.83-48.13-11.74Z"/><path d="M299.04 174.72q-3.27 0-6.51-.39c-14.35-1.69-28.12-6.76-40.95-15.05-2.38-1.54-3.07-4.72-1.52-7.1 1.54-2.38 4.72-3.07 7.1-1.53 11.5 7.43 23.8 11.97 36.57 13.48 7.52.88 15.16-.12 24.04-3.18 10.91-3.76 18.3-9.53 21.57-13.67a5.14 5.14 0 0 1 7.22-.85 5.14 5.14 0 0 1 .85 7.22c-2.03 2.57-9.91 11.38-26.29 17.02-7.92 2.73-15.08 4.05-22.07 4.05Z" class="cls-8"/><path d="M241.9 163.5h-.03c-2.84 0-5.13-2.31-5.13-5.15 0-2.83 2.31-5.13 5.14-5.13h.02c.88 0 5.27-.18 8.21-3.55 1.69-1.94 2.27-4.14 2.46-5.64.35-2.82 2.91-4.8 5.73-4.47a5.14 5.14 0 0 1 4.47 5.73c-.36 2.92-1.51 7.22-4.91 11.13-5.71 6.55-13.62 7.07-15.96 7.07Z" class="cls-8"/><path d="M260.06 169.23c3.9-4.51 24.32 7.3 22.7 14.09-5.76 5.15-24.45-7.3-22.7-14.09Z" style="fill:#fff;stroke:#000;stroke-miterlimit:10;stroke-width:2px"/><path d="M161.13 295.91c-.78 10.57-1.56 21.13-2.35 31.7" class="cls-7"/><circle cx="243.1" cy="311.77" r="64.57" style="fill:#fff;stroke:#000;stroke-miterlimit:10;stroke-width:9px"/><path d="M273.22 225.04c7.45 3.35 33.73 16.28 48.13 46.96 10.72 22.83 9.35 43.78 8.22 52.83" class="cls-4"/><path d="M290.52 324.22c-.24 5.73 9.66 11.07 19.5 14.79 7.3 2.76 15.4-1.04 18.07-8.37 2.04-5.61 3.77-12 3.52-16.99-.27-5.27-3.27-14.62-4.77-18.38-17.61 1.23-30.85-.53-33.19 5.47-.94 2.42-.29 6.57 7.04 14.09-4.81 2.16-10 5.34-10.17 9.39ZM199.09 318.61c.35 8.38-21 15.93-32.09 18.78-1.92-3.41-9.5-19.27-9-29.35.27-5.27 3.27-14.62 4.77-18.38 17.61 1.23 30.85-.53 33.19 5.47.94 2.42.29 6.57-7.04 14.09 4.81 2.16 10 5.34 10.17 9.39Z" class="cls-6"/><path d="M90.31 216.87c-24.29 17.62-36.9 44.39-32.09 68.87 4.21 21.4 20.27 33.68 27.39 39.13 32.76 25.05 72.14 14.9 81.39 12.52" style="stroke:#000;stroke-miterlimit:10;fill:none;stroke-linecap:round;stroke-width:10px"/><path d="M102.83 268.52c9.74 6.87 23.94 14.93 42.26 18.78 6.19 1.3 12.15 1.98 17.68 2.36" class="cls-4"/><path d="M245.43 307.57v-20c8.79-1.34 7.66 11 15.87 8.87 6.14-11.26-13.78-14.53-15.45-16.86-1.33-1.86 2.53-9.84-5.33-6.91 1.32 9.67-3.14 7.12-9.14 10.35-10.97 5.9-11.42 21.42-.66 27.76 3.18 1.86 6.92 1.94 9.71 4.29v20.5c-7.51-.26-10.22-4.71-12.65-11.05l-5.4.5c-3.07 10.68 9.05 16.59 17.61 18.49l1.37 7.63 4 .36.49-7.97c24.68-4.46 24.65-32.14-.42-35.96m-5-2c-13.1-.29-12.8-18.02 0-18zm5 30v-20c14.77 1.69 14.63 19.33 0 20M380.39 253.99c-24.09 3.74-27.12 6.77-30.86 30.86-3.74-24.09-6.77-27.12-30.86-30.86 24.09-3.74 27.12-6.77 30.86-30.86 3.74 24.09 6.77 27.12 30.86 30.86"/></g></svg>