<?xml version="1.0" encoding="UTF-8"?>
<svg id="Camada_1" xmlns="http://www.w3.org/2000/svg" version="1.1" viewBox="0 0 664.1 664.1">
  <!-- Generator: Adobe Illustrator 30.0.0, SVG Export Plug-In . SVG Version: 2.1.1 Build 123)  -->
  <defs>
    <style>
      .st0 {
        opacity: .3;
      }

      .st0, .st1, .st2, .st3 {
        fill: #fff;
      }

      .st0, .st4, .st5, .st6, .st2, .st7, .st8, .st3 {
        stroke: #191919;
        stroke-miterlimit: 10;
      }

      .st0, .st5, .st6, .st2, .st7, .st8, .st3 {
        stroke-linecap: round;
      }

      .st0, .st2, .st8 {
        stroke-width: 10px;
      }

      .st9, .st4, .st6, .st7, .st8 {
        fill: none;
      }

      .st4 {
        stroke-width: 5px;
      }

      .st5 {
        fill: #0a0a0a;
      }

      .st5, .st6 {
        stroke-width: 9px;
      }

      .st10 {
        fill: #191919;
      }

      .st7 {
        stroke-width: 7px;
      }

      .st3 {
        stroke-width: 8px;
      }
    </style>
  </defs>
  <g>
    <path class="st1" d="M285.1,305.4c-8.7-9.8-49.2,14.3-78.5,37.4-6.6,5.2-49.7,40.3-45.3,59.2,1.1,4.8,8.2-.2,27.3,13.6,15.8,11.4,9.7,19.4,15.7,18.4,4.4-.7,5.1-7.7,17.2-23.1,10.1-12.8,21.6-15.2,25.4-16.9,13.9-6.3,26,5.3,32.1-.6,5.4-5.2-2.2-16-4-33.2-3.3-31.5,16.6-47.4,10.1-54.9Z"/>
    <g>
      <path class="st5" d="M230.3,399.6c-2.1,1.5-3.8,3-5.3,4.5-10.7,10.7-14.5,27.5-22.7,27.5-5.5,0-4.9-12.6-16-20.6-12.1-8.6-19.3-.3-22-5.2-4.6-8.4,9.4-27.1,20.5-38.6l45.6,32.4Z"/>
      <path class="st6" d="M270.2,353.5c-1.8,15.1,0,27.9,1.8,36.2-20.9-.5-33.6,4.3-41.6,9.9l-45.6-32.4c5.7-5.9,10.9-10.6,12.6-12.1,31.6-28.2,75-52.8,82.8-44,4.4,5-6.9,15.9-10,42.5Z"/>
    </g>
  </g>
  <g>
    <path class="st1" d="M195.2,202.3c1.8,6.8,5.6,13,12,17.1,2.5,1.6,5.1,2.8,7.9,3.5.6.3,1.1.5,1.7.7,1.3,1.3,2.6,2.6,3.7,3.9h-2.8c1.7,2,4.5,4.8,8.5,7.5.7,1,1.3,2,1.9,3h0c.4.9.9,2,1.4,3.3.7,1.9,1.5,3.9,2.3,5.8.5,2.7,17.4,25.7,23.4,30.8,4.2,3.9,9.1,7.6,14.5,10.9-.1.4,0,.9,0,1.2-2.3,2,1.7,4.3-.4,6.6-1.6,1.1-1.1,6.1-2,7-12.1,13-15.7,32.1-10.6,50.3-1.5-.5,1.2,11.9,1.3,12.3,1.6,5.8,0,4.7,3.1,9.1,0,0,4.4,4.1,4.4,4.2,2.2,4.4-14.9,2-10.4,6.5.7.7,1.5,1.4,2.2,2-.2,1.2-.7,2.5-1.1,4-.9,3.3-1.8,6.3-2.6,9.1-.5,1.5-1,3.1-1.4,4.6-3.9,12.7-6.6,22.3-3.6,40.4.8,4.4,2,8.2,3.5,11.7.4,1.4.9,2.8,1.4,4.1,2.6,6.9,5.8,13,9.3,18.2,1.6,4.1,3.5,9.6,5.4,15.8l16.4,56.3c.2,2.9-.8,7-1.1,9.1-1.1,8.3-11.8,22.8-9.9,29.4,0,.4,0,.8,0,1.2-.3.7-.5,1.1-.5,1.1,1.5,1.9,3.8,4,6.7,4.3,4.5.5,7.5-3.5,10.2-4.3,1,.9,2.6,3.1,4.2,5.1.3,2.5.6,5.2,2.4,6.7,5.1,4.3,20.4-3.6,29.7-12.1,4.6-4.2,8.1-8.9,10.9-13.9h0c1.9-3.3,3.4-6.7,4.6-10.2,2.2-5.3,3.7-10.8,4.7-16.4.7-3.7,1.2-7.3,1.6-10.8.2-1.9,0-4,0-6.1,0-2.3,0-4.6,0-6.9,8,1.8,17.4,3.1,28.1,2.8,7.6-.2,14.6-1.1,20.8-2.4,0,10.2.6,19.3,2.9,28.2,1.1,5.6,2.8,11.5,5.5,17.3h0c3,6.6,7.2,12.9,13.1,18.3,9.3,8.5,24.6,16.4,29.7,12.1,1.7-1.4,2-3.9,2.3-6.3,0-.2.2-.3.3-.6,1.6-2.1,2.8-4.1,3.6-5,2.8.6,5.9,4.9,10.6,4.4,2.9-.3,5.2-2.4,6.7-4.3,0,0,0-.1-.1-.3,1-1,1.7-1.9,1.7-2.2,0-.5-1.1-.8-1.8-1.2,1-6.2-4.8-17-6.4-22.7-.4-1.6-1.7-1.4-1.8-1.5-.3-1.3-.5-2.8-.6-4.3l13.9-58.6c6.5-17.4,13.6-33.9,17.2-44.4,5.8-17,4.9-40.6-2-58-.6-1.8-1.2-3.6-1.9-5.4.3-.4,1-.8.9-.9,0-.6-1.6-2.8-2.4-4.2,8.3-6-10.9-13.5-7.4-22.3,3.1-6.6,3.9-13.5,3.1-20.4,0,40.2-10.1-60.5-10.8-61.9-1.7-3.3-3.2-15.3-4.7-19.9-7.3-22.2-17.1-44.6-28.7-64.9-4.1-7.2-19.3-26.8-21.1-32.2-5.6-16.7-5-45.2-22.5-56.4-2.3-1.5-4.2-2.3-5.8-2.7-1-1.1-1.9-2.1-2.9-3.2l-3.3,5.5c-.3.4-.6.9-.9,1.4l-12,19.9c-2.5-1.5-6.2-2.4-9.8-3.2-3-1.2-6.1-2.2-9.3-2.8-2.1-2.6-12.2-26.6-15.9-31.7-2.9-4-10.4-13.3-15.2-11-.3-.1-.6-.3-.9-.4l-.6,1.6c-.6.7-1,1.6-1.5,2.8-5,14.6-17.8,37.1-18.1,37.4-.9.9-18.7,6.5-23.1,9.1-5.1,3-11.3,9.6-16.9,15-5.2,2.4-10.1,3.7-14.1,3.1-2.3-.3-6.8-4.2-10.5-4.7-5.9-.8-11.5,0-16.6,2.3-10.9,2.8-19.8,12.3-22.3,23.5-3.9,9.3-4.8,19.7-1.5,28.9ZM402.5,574.8l-.5-2.8c.4.7.4,1.2.6,1.7.1.3,0,.7.6.6,0,.1,0,.3,0,.4-.2,0-.4,0-.6,0ZM334.4,579.3c-.2,0-.3,0-.5-.1.3-.4.6-.9.8-1.3l-.3,1.4Z"/>
    <path class="st9" d="M213.9,250.5c12,2.1,20.4.2,26.1-2,5.2-2.1,7.9-4.4,29-16.7,1.8-1.1,3.7-2.1,4-2.3,8.7-5,28.5-6.2,75,7.3"/>
    <path class="st4" d="M381.4,373.5"/>
    <path class="st10" d="M404.1,575.3c.5,0,1.1-.1,1.7-.2l1.3-.2-.7-6.1h-1.2c-.6.2-1.2.3-1.7.4l.8,6.1Z"/>
    <path class="st10" d="M462.5,569.2c.9-.1,1.9-.2,2.8-.3l1.6-.2-.7-6.1-1.6.2c-.9.1-1.8.2-2.7.3l.7,6.1Z"/>
    <path class="st10" d="M284.5,564.9l1.7-5.9c-1.2-.3-2.4-.7-3.5-1l-1.8,5.9c1.2.4,2.4.7,3.6,1.1Z"/>
    <path class="st10" d="M339.8,580l1.7-5.9-.9-.3c-.4-.1-.8-.3-1.3-.4l-1.7,5.9c.4.1.8.2,1.1.3l1,.3Z"/>
    <path class="st10" d="M458.3,507.5c.8,0,1.6-.2,2.3-.7,9.4-6.5,26.6-21.1,35.8-45.8,11.5-30.7.1-60.8-3.6-70.6l-.5-1.3c-.8-2.1-3.1-3.2-5.3-2.4-2.1.8-3.2,3.1-2.4,5.3l.5,1.4c3.5,9.2,14,37.1,3.6,64.9-8.4,22.6-24.2,35.9-32.8,41.9-1.9,1.3-2.3,3.9-1,5.7.8,1.2,2.1,1.8,3.4,1.8Z"/>
    <path class="st10" d="M289.2,507.5c1.3,0,2.6-.6,3.4-1.8,1.3-1.9.8-4.4-1-5.7-8.6-6-24.4-19.3-32.8-41.9-10.4-27.8.1-55.7,3.6-64.9l.5-1.4c.8-2.1-.3-4.5-2.4-5.3-2.1-.8-4.5.3-5.3,2.4l-.5,1.3c-3.7,9.9-15.1,40-3.6,70.6,9.2,24.7,26.4,39.3,35.8,45.8.7.5,1.5.7,2.3.7Z"/>
    <g>
      <path d="M406.7,571.9c3,6.6,7.2,12.9,13.1,18.3,9.3,8.5,24.6,16.4,29.7,12.1,3.5-2.9,1.2-10.5,4.7-11.8,3.2-1.2,6.6,4.9,12,4.3,2.9-.3,5.2-2.4,6.7-4.3,0,0-9.8-20.6-10.9-24.5-17,1.9-38.8,3.9-55.5,5.8Z"/>
      <path class="st10" d="M417,593.3c-5.8-5.3-10.6-12-14.1-19.7l-2.4-5.1,5.6-.7c8.6-1,18.8-2,28.6-3,9.2-.9,18.7-1.9,26.9-2.8l3.5-.4.9,3.4c.7,2.6,6.9,16,10.6,23.9l1.1,2.3-1.6,2c-2.8,3.5-6,5.5-9.5,5.8-4.4.5-7.7-1.8-10-3.3-.2-.1-.4-.3-.6-.4,0,.4-.1.9-.2,1.2-.4,2.8-.8,6.6-3.8,9-1.8,1.5-4.1,2.2-6.7,2.2-9.4,0-22.4-8.8-28.5-14.4ZM461.4,589c1.9,1.3,3.1,2.1,4.5,1.9.8,0,1.6-.5,2.2-1-2.3-4.8-6.5-13.9-8.7-19.3-7.5.8-15.7,1.7-23.8,2.5-7.6.8-15.4,1.6-22.6,2.3,2.6,4.5,5.8,8.5,9.5,11.9,10.1,9.2,22.3,13.7,24.3,12,.5-.4.7-2.6.9-3.7.4-2.9.9-7.2,5-8.7.8-.3,1.6-.4,2.3-.4,2.5,0,4.6,1.4,6.3,2.6Z"/>
    </g>
    <path class="st10" d="M406.7,576c.6,0,1.2-.1,1.7-.4,2.1-.9,3-3.4,2-5.4-4.8-10.6-7.3-23.7-7.1-38.1,0-2.3-1.8-4.1-4-4.2h0c-2.2,0-4.1,1.8-4.1,4.1-.2,15.6,2.5,30,7.8,41.6.7,1.5,2.2,2.4,3.7,2.4Z"/>
    <path class="st10" d="M462.2,570.2c.4,0,.7,0,1.1-.1,2.1-.6,3.4-2.7,2.9-4.9,0-3.5.5-20.2,2.2-26.3,1.9-6.9,17.8-56.7,18-57.2.7-2.2-.5-4.5-2.7-5.2-2.2-.7-4.5.5-5.2,2.7-.7,2.1-16.1,50.5-18.1,57.5-2.2,8-2.5,28.7-2.5,28.9,0,.6.1,1.1.2,1.6.5,1.8,2.2,3,4,3Z"/>
    <g>
      <path d="M274.5,590.7c1.5,1.9,3.8,4,6.7,4.3,5.5.6,8.8-5.5,12-4.3,3.5,1.3,1.2,8.9,4.7,11.8,5.1,4.3,20.4-3.6,29.7-12.1,4.6-4.2,8.1-8.9,10.9-13.9-16.3-4.8-36.7-9.6-53.2-14.4,0,1.9,0,3.2,0,3.7,0,2-11,25.1-11,25.1Z"/>
      <path class="st10" d="M295.3,605.6c-3-2.5-3.5-6.3-3.8-9,0-.4-.1-.8-.2-1.2-.2.1-.4.3-.6.4-2.2,1.5-5.5,3.7-10,3.3-3.5-.4-6.7-2.3-9.5-5.8l-1.6-2,1.1-2.3c4.7-9.9,9.8-21.2,10.6-23.7,0-.6,0-1.7,0-3.2v-5.6c-.1,0,5.3,1.6,5.3,1.6,8,2.3,17.2,4.7,26,7,9.3,2.4,18.9,4.9,27.2,7.4l4.9,1.5-2.5,4.5c-3.2,5.7-7.1,10.7-11.7,14.9-6.1,5.6-19,14.4-28.5,14.4-2.5,0-4.8-.6-6.7-2.2ZM310.4,573c-7.1-1.9-14.4-3.8-21.2-5.7-.7,2.3-2.8,7.7-9.8,22.5.7.5,1.4,1,2.2,1,1.3.1,2.6-.6,4.5-1.9,2.1-1.5,5.1-3.4,8.6-2.2,4.1,1.5,4.7,5.8,5,8.7.1,1.2.4,3.3.9,3.7,2,1.7,14.2-2.8,24.3-12,2.7-2.5,5.2-5.3,7.3-8.4-6.9-2-14.5-3.9-21.8-5.8Z"/>
    </g>
    <path class="st10" d="M338.6,580.5c1.4,0,2.8-.8,3.6-2.1,7.4-13.2,11.1-30.2,10.8-49.1,0-2.3-1.9-4.1-4.2-4-2.3,0-4.1,1.9-4,4.2.2,12.2-1.4,29.9-9.8,45-1.1,2-.4,4.5,1.6,5.6.6.4,1.3.5,2,.5Z"/>
    <path class="st10" d="M285.4,566s0,0,.1,0c2.3,0,4-2,4-4.2-.3-8.4-.9-19.6-2.4-25.1-.9-3.4-1.8-6.6-2.7-9.8-2.9-10.9-6-22.1-13.3-45.6-.7-2.2-3-3.4-5.2-2.7-2.2.7-3.4,3-2.7,5.2,7.3,23.3,10.3,34.5,13.2,45.3.9,3.2,1.7,6.4,2.7,9.9,1,3.6,1.8,12,2.1,23.1,0,2.2,1.9,4,4.1,4Z"/>
    <path class="st10" d="M375.1,534c.9,0,1.7,0,2.6,0,15.2-.3,30.1-3.5,44.2-9.4,2.6-1.1,3.8-4.1,2.8-6.7-1.1-2.6-4.1-3.9-6.7-2.8-12.9,5.4-26.5,8.3-40.4,8.6-15.4.3-31-2.6-45.3-8.6-2.6-1.1-5.6.1-6.7,2.8s.1,5.6,2.8,6.7c14.8,6.2,30.9,9.4,46.9,9.4Z"/>
    <path class="st10" d="M523.9,478.6c-4,1.8-11.7,4.1-20.5,1.6-7.1-2-11.9-6.2-14.6-9.4-1.8-2.2-1.6-5.4.5-7.2,2.2-1.9,5.4-1.6,7.2.5,1.8,2.1,5,4.9,9.6,6.2,2.4.7,4.7.8,6.8.6-1.9-2.2-3.4-4.6-4.4-7.3-2.6-7.1-1.6-16.7,2.5-23.9,2.8-5,6.7-8.2,11.1-9.1,8.4-1.8,17,4.8,20.2,11.9,4.3,9.6-.2,20.9-8,28.8,6.1,1.4,13.6,1.5,21.9-.2,2.8-.6,5.5,1.2,6.1,4,.6,2.8-1.2,5.5-4,6.1-4.7,1-9.3,1.4-13.7,1.4-7.7,0-14.8-1.4-20.7-4ZM524.2,440.7c-1.4.3-3,1.8-4.2,4.1-2.6,4.6-3.3,11.1-1.8,15.4.9,2.5,2.8,4.8,5.5,6.7,6.8-4.9,12-13.9,9.2-20.1-1.5-3.3-5.3-6.1-8-6.1s-.5,0-.7,0Z"/>
    <path class="st10" d="M473.4,296.7c.4,0,.9,0,1.3-.2,2.7-.7,4.4-3.5,3.7-6.3-.7-2.7-1.4-5.6-2.1-8.7-3.7-15.2-8.2-34.1-17.7-52.3-1.8-3.5-3.7-7.1-5.5-10.7-9.9-19.3-19.3-37.6-28.7-48.5-1.9-2.1-5.1-2.4-7.2-.5-2.1,1.9-2.4,5.1-.5,7.2,8.6,9.9,18.1,28.5,27.4,46.5,1.8,3.6,3.7,7.2,5.5,10.7,8.9,17.1,13.3,35.4,16.8,50,.8,3.1,1.5,6.1,2.2,8.8.6,2.3,2.7,3.9,5,3.9Z"/>
    <path class="st10" d="M393.8,212.6c.9,0,1.8-.2,2.6-.7,6.6-3.9,15.7-10.9,21.3-22.6,7.2-15.1,4.4-29.3,2.6-38.7-4.5-23.2-17.6-39.8-27.8-49.7l-4.8-4.7-30.6,56.1c-1.4,2.5-.4,5.6,2,7,2.5,1.4,5.6.4,7-2l24-44c8.1,9,16.8,22.2,20.1,39.4,1.8,9,4,20.3-1.8,32.3-4.5,9.3-11.8,15-17.2,18.2-2.5,1.4-3.3,4.6-1.9,7,1,1.6,2.7,2.6,4.4,2.6Z"/>
    <path class="st10" d="M349.7,129.3c.5,0,1,0,1.4-.2,2.7-.8,4.3-3.6,3.5-6.4-2.3-7.8-5.6-15.2-9.8-22-5.2-8.4-11.8-15.8-19.6-22l-5.4-4.4-18.4,46.8c-1,2.6.3,5.6,2.9,6.7,2.6,1,5.6-.3,6.7-2.9l13.2-33.5c4.6,4.4,8.6,9.3,12,14.7,3.8,6,6.7,12.6,8.7,19.4.7,2.2,2.7,3.7,4.9,3.7Z"/>
    <path class="st10" d="M205.7,221.3c-18.1-11.7-19.4-37.6-10.2-54.9,5.8-11,18-22.5,31-22.1,1.9,0,4.4.7,8.5,1.8,4.3,1.1,9.7,2.5,12.9,2.5.5,0,1,0,1.1,0h.3s4.2,0,7.5-1.6c1.3-.6,4.6-2.8,8.1-5.1,8.9-6,22.4-14.9,33.6-19.1,3.2-1.2,12.1-4,26.2-4.2,16.6-.2,40.1,6.1,48.6,9.7,2.6,1.1,3.8,4.1,2.7,6.7-1.1,2.6-4.1,3.8-6.7,2.7-7.6-3.2-29.5-9.1-44.4-8.9-12.9.2-20.7,2.8-22.8,3.5-10.1,3.8-23,12.4-31.5,18-4.3,2.9-7.4,4.9-9.3,5.8-1.5.7-3.1,1.3-4.5,1.6,2.1,2.6,3.9,5.4,5.3,8.3,6.3,13.4,6.4,34.4-8.3,48.6-8,7.8-18.7,11.8-29,11.8s-13.4-1.8-19-5.4ZM232.4,156c-2.3-.6-5.4-1.4-6.3-1.4-8.1-.4-17.2,8.3-21.5,16.6-6.1,11.6-7.2,32.4,6.7,41.4,10.2,6.6,25.4,4.4,35.3-5.2,10.5-10.2,11-26.3,6.1-36.8-1.6-3.5-4-6.6-7-9.4-.8-.7-1.3-1.6-1.5-2.6-3.8-.5-7.9-1.6-11.7-2.6Z"/>
    <ellipse class="st10" cx="235.1" cy="188.1" rx="10.4" ry="5.1" transform="translate(-15.1 355.6) rotate(-72.5)"/>
    <ellipse class="st10" cx="215.4" cy="180.4" rx="10.4" ry="5.1" transform="translate(-21.5 331.4) rotate(-72.5)"/>
    <path class="st10" d="M263.3,249.1c2.2,0,4.3-.1,6.5-.4,14.3-1.7,28.1-6.8,40.9-15,2.4-1.5,3.1-4.7,1.5-7.1-1.5-2.4-4.7-3.1-7.1-1.5-11.5,7.4-23.8,12-36.6,13.5-7.5.9-15.2-.1-24-3.2-10.9-3.8-18.3-9.5-21.6-13.7-1.8-2.2-5-2.6-7.2-.8-2.2,1.8-2.6,5-.8,7.2,2,2.6,9.9,11.4,26.3,17,7.9,2.7,15.1,4.1,22.1,4.1Z"/>
    <path class="st10" d="M320.4,237.9h0c2.8,0,5.1-2.3,5.1-5.1,0-2.8-2.3-5.1-5.1-5.1h0c-.9,0-5.3-.2-8.2-3.6-1.7-1.9-2.3-4.1-2.5-5.6-.3-2.8-2.9-4.8-5.7-4.5-2.8.3-4.8,2.9-4.5,5.7.4,2.9,1.5,7.2,4.9,11.1,5.7,6.6,13.6,7.1,16,7.1Z"/>
    <path class="st10" d="M307.3,304.2c2.5,0,4.8-1.9,5.1-4.5.4-2.8-1.6-5.4-4.4-5.8-9.4-1.2-18.4-3.9-26.7-7.9-28-13.4-41.5-38.7-47.1-52.5-1.1-2.6-4.1-3.9-6.7-2.8-2.6,1.1-3.9,4.1-2.8,6.7,6.1,15.2,21.1,43,52.2,57.9,9.3,4.5,19.3,7.4,29.8,8.8.2,0,.4,0,.7,0Z"/>
    <ellipse class="st10" cx="316.3" cy="182.2" rx="11.3" ry="11.3" transform="translate(75.8 456.7) rotate(-78.7)"/>
  </g>
  <path class="st10" d="M472.1,289.1"/>
  <path class="st8" d="M473.1,289.1c.8,16.9,2.7,35.9,6.3,56.3,2.8,16,6.2,30.6,9.9,43.9"/>
  <path class="st6" d="M270.7,293.7c.8,16.9-18.3,28.2-19.8,51.7-1.1,16.2,6.2,30.6,9.9,43.9"/>
  <g>
    <rect class="st3" x="251.9" y="265.4" width="30" height="46.9" rx="12" ry="12" transform="translate(-112.7 186) rotate(-32.1)"/>
    <rect class="st2" x="296.6" y="286.8" width="30" height="141.4" rx="12" ry="12" transform="translate(-142.3 220.3) rotate(-32.1)"/>
    <path class="st2" d="M208.3,101.2c-51.4,0-93.1,41.7-93.1,93.1s41.7,93.1,93.1,93.1,93.1-41.7,93.1-93.1-41.7-93.1-93.1-93.1ZM208.3,258.1c-34.4,0-62.3-27.9-62.3-62.3s27.9-62.3,62.3-62.3,62.3,27.9,62.3,62.3-27.9,62.3-62.3,62.3Z"/>
    <circle class="st0" cx="206.8" cy="195.8" r="62.3"/>
  </g>
  <g>
    <path class="st1" d="M460.1,327.5c6.7,8.4-16.1,38.8-38.8,59-5.1,4.5-41.5,36.4-56.2,26.7-3.4-2.2-1.8-4.2-10.2-21.5-6.9-14.3-10.2-17.6-8.6-22.3,1.2-3.4,3.8-3.9,17.8-11.5,11.7-6.3,17.6-9.5,19.5-12.3,7-10.3-1.6-16.2,3.9-20.2,4.9-3.6,13.6-1.4,27.1,2.4,24.8,7.1,40.4-6.7,45.4-.4Z"/>
    <path class="st5" d="M347.9,373.3c-1.5,1.5-2.9,2.7-4.3,3.6-10.1,7.1-24.1,7.7-25.2,14.4-.7,4.4,9.5,5.7,14.2,15.7,5.2,10.9-2.5,15.5,1.1,18.4,6.1,4.9,23-3.7,33.8-11l-19.6-41.1Z"/>
    <path class="st7" d="M386,333.7s.2,2.3,0,7.5c-.3,8-29.3,24.9-32.2,26.2,8,16.8,12.9,28.1,21,44.8,9.1-2.1,14.5-1.8,18.7-4.3,3.5-2,6.5-4.3,12.6-8.9,3.4-2.6,7.3-5.5,12.1-9.5,8.9-7.5,15-13.9,19-18.1,6.5-6.9,9.9-10.5,13.5-16.1,2.1-3.2,1.1-2.3,5.7-10.1,2.9-4.9,4.3-7.1,4.9-10.6.4-2.9,0-5.3-.3-6.9"/>
  </g>
</svg>