<svg xmlns="http://www.w3.org/2000/svg" id="Camada_1" viewBox="0 0 512 512"><defs><clipPath id="clippath"><rect width="510.2" height="510.2" x="2.4" y="2.2" class="st1" rx="67.1" ry="67.1"/></clipPath><style>.st1{fill:none}.st3{fill:#191919}</style></defs><rect width="510.2" height="511.2" x="3.3" y="1.1" rx="67.1" ry="67.1" style="fill:#dffe35"/><g style="clip-path:url(#clippath)"><path d="M488.8 185.2c-3.6-16.6-16.8-30.7-33.1-34.9-7.6-3.2-15.9-4.6-24.7-3.4-5.5.8-12.3 6.5-15.6 7-5.9.9-13.1-1.2-20.9-4.7-8.4-8-17.6-17.8-25.2-22.3-6.5-3.9-33.1-12.1-34.3-13.5-.5-.5-19.5-33.9-26.9-55.6-.6-1.8-1.3-3.1-2.2-4.1l-.9-2.4c-.4.2-.8.4-1.3.6-7.1-3.5-18.3 10.3-22.6 16.3-5.4 7.5-20.6 43.2-23.6 47.1-4.7.9-9.3 2.4-13.8 4.2-5.3 1.2-10.8 2.6-14.5 4.7l-17.9-29.6c-.4-.8-.8-1.5-1.3-2.1l-5-8.2c-1.5 1.5-2.9 3.1-4.3 4.7-2.4.5-5.2 1.8-8.7 4-26 16.7-25.1 59-33.5 83.9-2.7 7.9-25.2 37.1-31.3 47.8-17.2 30.2-31.8 63.4-42.6 96.5-2.2 6.8-4.4 24.7-7 29.6-1.1 2.1-22.7 20.1-26.9 25.2-16.2 19.2-27.8 41.8-27.8 66.8-1.2 10.3.1 20.5 4.7 30.4 5.2 13.1 15.3 24.3 27.6 33.2-1.2 2.1-3.6 5.4-3.6 6.2 0 .2.9.8 1.4 1.4-1 2.7-2 5.3-2.8 8-10.1 25.9-11.5 60.9-2.9 86.2 5.3 15.6 15.8 40.2 25.5 66.1l20.6 87.1c-.2 2.2-.5 4.4-.9 6.3 0 .2-1.9-.2-2.6 2.2-2.4 8.5-10.9 24.5-9.5 33.8-1 .7-2.6 1.1-2.7 1.8 0 .5 1 1.9 2.5 3.3-.1.3-.2.4-.2.4 2.3 2.9 5.7 6 10 6.4 6.9.7 11.6-5.7 15.7-6.5 1.1 1.3 3 4.3 5.3 7.4.1.3.3.6.4.9.4 3.5.9 7.3 3.5 9.3 7.6 6.3 30.4-5.4 44.2-18.1 8.8-8.1 15.1-17.5 19.5-27.2 3.9-8.6 6.5-17.4 8.2-25.7 3.4-13.3 4.3-26.7 4.3-41.9 9.2 1.9 19.5 3.2 30.8 3.5 15.8.3 29.8-1.5 41.7-4.2v10.3c-.1 3.1-.3 6.2 0 9.1.5 5.2 1.3 10.6 2.3 16.1 1.4 8.3 3.7 16.5 6.9 24.4 1.9 5.1 4.1 10.2 6.9 15.1 4.1 7.4 9.4 14.4 16.2 20.7 13.8 12.7 36.5 24.4 44.2 18.1 2.7-2.2 3.1-6.3 3.5-9.9 2.3-3 4.7-6.2 6.2-7.5 4 1.3 8.5 7.1 15.2 6.4 4.4-.5 7.7-3.5 10-6.4 0 0-.3-.6-.8-1.7V806c2.8-9.8-9.9-31.9-11.5-44.2-.4-3.1-.4-6.9-.1-11.3l19.6-85.4c2.9-9.2 5.7-17.3 8.1-23.5 5.2-7.8 10-16.8 13.8-27.1.8-2.1 1.4-4.1 2.1-6.2 2.2-5.2 4.1-10.8 5.2-17.4 4.6-26.9.6-41.1-5.3-60.1l-2.1-6.9c-1.3-4.2-2.6-8.6-3.9-13.5-.6-2.2-1.3-4.1-1.7-5.9l3.3-3c6.8-6.7 11.5-14.2 14.7-20.8 0 0 .1-.2.2-.3 4.6-6.6 8.2-14 10.5-22.6.1-.5 1.3-4.6-.9-3.9 7.7-27.1-12-61.5-30-80.8-1.3-1.4-3.6-3.1-6.1-4.8q-4.8-5.1-9.9-9.6c0-.5.1-1.2 0-1.8 8.1-4.9 15.2-10.5 21.5-16.3 8.9-7.5 34.1-41.8 34.9-45.7 1.2-2.9 2.4-5.8 3.4-8.7.8-1.8 1.5-3.5 2.1-4.9.9-1.5 1.9-2.9 2.8-4.4 5.9-4.1 10.1-8.1 12.6-11.4l-4.1.2c1.7-1.9 3.5-3.8 5.5-5.7.8-.3 1.7-.7 2.5-1 4.1-1.1 8-2.8 11.7-5.2 9.4-6.1 15.1-15.3 17.8-25.4 4.9-13.7 3.6-29.2-2.2-43Zm-307 596.6v-.6c.9.1.7-.4.9-.9.3-.8.2-1.5.9-2.6l-.8 4.2c-.3 0-.6 0-.9-.1Zm101.8 4.6c.4.6.8 1.3 1.2 1.9-.2 0-.5.1-.7.2l-.5-2.2Z" style="fill:#fff"/><path d="M463.2 299.9c-17.8 3.1-30.4.4-38.7-3-7.7-3.1-11.7-6.5-43.1-24.8-2.7-1.6-5.5-3.2-6-3.5-13-7.4-42.3-9.2-111.5 10.9" class="st1"/><path d="M120.5 532.5c-4.9 0-9.9-.3-15.1-1.1-38.5-5.4-83.3-32-90.3-70.8-3.7-20.5 4.8-40 11-54.2 9.8-22.4 27.7-37 39.6-46.7 2.1-1.7 4.1-3.3 5.7-4.7 3.2-2.8 8-2.5 10.8.7s2.5 8-.7 10.8c-1.7 1.5-3.8 3.2-6.1 5.1-10.7 8.7-27 21.9-35.2 40.9-5.7 13.1-12.8 29.4-10 45.4 5.5 30.5 43.6 53.7 77.3 58.4 30.7 4.3 55.8-7.3 84.8-20.6 16.7-7.7 26.8-14.5 36.6-21.1 11.2-7.6 21.8-14.8 40.5-22.3 22.7-9.2 47-14.7 72.2-16.4 4.2-.3 7.9 2.9 8.1 7.1s-2.9 7.9-7.1 8.1c-23.6 1.6-46.3 6.8-67.5 15.3-17.2 7-27.1 13.7-37.7 20.8-10.3 7-21 14.2-38.8 22.4-25.5 11.7-49.8 22.9-78.2 22.9Z" class="st3"/><path d="M332.1 528.7c-29.1 0-62-8.1-94.6-24.2-3.8-1.9-5.3-6.4-3.5-10.2 1.9-3.8 6.4-5.3 10.2-3.5 60.4 29.9 120.8 30.4 150.1 1.4 13.3-13.1 17.8-29.8 18.9-34.6 10.8-48.5-35.8-90.4-37.8-92.1-3.2-2.8-3.5-7.6-.7-10.8s7.6-3.5 10.8-.7c5.7 5 55.1 50.7 42.5 106.9-1.3 5.8-6.8 26.1-23 42.1-17.2 17.1-43.1 25.6-73 25.6ZM167.8 442.3c-29.1 15.5-41.5 24.3-46.3 20-2.4-2.1-3.3-7.6 3.2-22.7-9.3 0-20.1-1-21.5-5.8-2.2-7.3 17.6-21.4 36.1-28 5.8-2 11.7-3.5 17.7-4.4l10.9 40.8Z" class="st3"/><path d="M124.4 471.2c-3 0-5.6-1-8-3.1-5.6-4.9-5.1-12.9-2.5-21.4-8.6-1-15.9-3.7-18-10.7-4.8-15.6 25.4-31.9 40.8-37.4 6.1-2.1 12.5-3.7 19.1-4.7l6.8-1 14.2 53.3-5.3 2.9c-6.4 3.4-11.9 6.5-16.7 9.1-14.5 8-23.5 13-30.2 13Zm-12.3-40.3c2.2.5 6 1 12.6 1.1h11.5l-4.5 10.6c-2.7 6.3-3.7 10.1-4.1 12.4 4.3-1.7 11.8-5.8 19.7-10.2 3.5-1.9 7.4-4.1 11.6-6.4l-7.5-28.2c-3.3.7-6.5 1.7-9.5 2.8-14.2 5-25.6 13.2-29.7 17.8Z" class="st3"/><path d="m162.9 453.5-15.5-58.3 8.4-1.3c27.5-4.1 53 2.2 63 10.1 4.7 3.7 5.9 7.6 6.1 10.2.7 8.3-5.5 11.2-18.9 17.5-6.9 3.2-16.3 7.7-29.5 14.6-1.1.6-2.2 1.1-3.2 1.7zm3.7-45.4 6.1 23c11.8-6.1 20.4-10.2 26.8-13.2 2.7-1.3 5.3-2.5 7.3-3.5-6.5-3.4-21.5-7.6-40.3-6.3ZM180.4 782.7c-.8-.1-1.6-.2-2.5-.3l-1.9-.2 1.1-9.1 1.8.2c.9.1 1.7.2 2.6.3l-1.2 9.1ZM93.6 773.5c-1.4-.2-2.8-.3-4.1-.5l-2.4-.3 1.1-9.1 2.4.3c1.3.2 2.7.3 4 .5zM358.2 767.2l-2.5-8.8c1.8-.5 3.5-1 5.3-1.5l2.6 8.8c-1.8.5-3.5 1-5.4 1.6ZM276 789.6l-2.6-8.8 1.3-.4c.6-.2 1.2-.4 1.9-.6l2.5 8.8c-.6.2-1.1.3-1.7.5l-1.4.4ZM99.9 681.8c-1.2 0-2.4-.4-3.5-1.1-14-9.7-39.6-31.4-53.3-68.1-17.1-45.6-.2-90.3 5.4-105l.7-2c1.2-3.2 4.7-4.8 7.8-3.6 3.2 1.2 4.8 4.7 3.6 7.8l-.8 2c-5.1 13.6-20.8 55.1-5.4 96.4 12.6 33.5 36 53.4 48.8 62.3 2.8 1.9 3.5 5.7 1.6 8.5-1.2 1.7-3.1 2.6-5 2.6ZM351.2 681.8c-1.9 0-3.8-.9-5-2.6-1.9-2.8-1.2-6.6 1.6-8.5 12.8-8.9 36.2-28.8 48.8-62.3 15.5-41.3-.2-82.8-5.4-96.4l-.8-2c-1.2-3.2.5-6.7 3.6-7.8 3.2-1.2 6.7.5 7.8 3.6l.7 2c5.6 14.7 22.4 59.4 5.4 105-13.7 36.7-39.3 58.4-53.3 68.1-1.1.7-2.3 1.1-3.5 1.1Z" class="st3"/><path d="M176.6 777.6c-4.5 9.7-10.7 19.2-19.5 27.2-13.8 12.7-36.5 24.4-44.2 18.1-5.2-4.3-1.8-15.6-7-17.5-4.8-1.8-9.7 7.3-17.9 6.4-4.4-.5-7.7-3.5-10-6.4 0 0 14.5-30.6 16.1-36.5 25.2 2.9 57.7 5.8 82.5 8.6Z"/><path d="M118.9 830.8c-3.8 0-7.2-.9-9.9-3.2-4.4-3.7-5.1-9.3-5.7-13.4 0-.5-.2-1.2-.2-1.8-.3.2-.7.4-.9.6-3.3 2.2-8.2 5.6-14.8 4.9-5.2-.6-10-3.5-14.2-8.7l-2.4-3 1.6-3.4c5.5-11.7 14.7-31.6 15.8-35.5l1.4-5.1 5.2.6c12.2 1.4 26.3 2.8 39.9 4.2 14.6 1.5 29.7 3 42.6 4.5l8.4 1-3.5 7.6c-5.2 11.4-12.3 21.3-20.9 29.2-9.1 8.3-28.3 21.5-42.3 21.5Zm-14.3-31.7c1.1 0 2.2.2 3.4.6 6.1 2.2 6.9 8.7 7.4 13 .2 1.7.6 5 1.3 5.6 3 2.4 21.2-4.1 36.1-17.9q8.25-7.5 14.1-17.7c-10.6-1.2-22.2-2.3-33.6-3.5-11.9-1.2-24.2-2.4-35.3-3.7-3.2 8-9.5 21.5-12.9 28.7 1 .8 2.2 1.4 3.3 1.5 2 .2 3.8-.9 6.6-2.9 2.5-1.7 5.6-3.8 9.3-3.8Z" class="st3"/><path d="M176.6 783.7c-.9 0-1.7-.2-2.5-.6-3.1-1.4-4.4-5-3-8.1 7.2-15.7 10.8-35.3 10.5-56.6 0-3.4 2.6-6.1 6-6.2 3.3 0 6.1 2.7 6.1 6 .3 23.2-3.7 44.6-11.6 61.9-1 2.2-3.2 3.6-5.6 3.6ZM94.1 775.1c-.5 0-1.1 0-1.6-.2-3.2-.9-5.1-4.1-4.4-7.2 0-5.2-.8-30.1-3.3-39.1-2.8-10.2-26.5-84.3-26.7-85-1-3.2.7-6.7 4-7.7 3.2-1 6.7.7 7.7 4 1 3.1 24 75 26.9 85.5 3.3 12 3.7 42.6 3.7 42.9 0 .9-.2 1.7-.4 2.4-.7 2.7-3.2 4.5-5.9 4.5Z" class="st3"/><path d="M373.1 805.5c-2.3 2.9-5.7 6-10 6.4-8.2.9-13.1-8.2-17.9-6.4-5.2 1.9-1.8 13.2-7 17.5-7.6 6.3-30.4-5.4-44.2-18.1-6.8-6.2-12.1-13.3-16.2-20.7 24.2-7.1 54.6-14.3 79.1-21.5v5.5c0 2.9 16.3 37.2 16.3 37.2Z"/><path d="M332.2 830.8c-14 0-33.3-13.2-42.3-21.5-6.8-6.2-12.7-13.7-17.4-22.2l-3.7-6.7 7.3-2.2c12.4-3.7 26.7-7.4 40.5-11 13.1-3.4 26.7-7 38.6-10.5l8-2.3-.2 8.3v4.8c1.1 3.7 8.7 20.5 15.7 35.2l1.6 3.4-2.4 3c-4.2 5.2-8.9 8.1-14.2 8.7-6.5.6-11.5-2.7-14.8-4.9l-.9-.6c0 .6-.2 1.3-.2 1.8-.5 4.1-1.2 9.8-5.7 13.4-2.7 2.3-6.1 3.2-9.9 3.2Zm-44.9-42.9c3.2 4.6 6.9 8.8 10.9 12.5 15 13.8 33.2 20.3 36.2 17.9.7-.6 1.1-3.8 1.3-5.5.5-4.3 1.4-10.7 7.5-13 5.2-1.9 9.5 1 12.7 3.2 2.8 1.9 4.7 3.1 6.6 2.9 1.2-.1 2.3-.7 3.3-1.5-10.4-22-13.6-30.1-14.6-33.5-10.1 2.8-20.9 5.7-31.5 8.4-10.9 2.8-22.1 5.8-32.4 8.7Z" class="st3"/><path d="M277.8 790.3c-2.1 0-4.2-1.1-5.3-3.1-11-19.7-16.6-44.9-16.1-73 0-3.4 2.8-6 6.2-6s6.1 2.8 6 6.2c-.3 18.1 2 44.4 14.6 66.9 1.6 2.9.6 6.7-2.4 8.3-.9.5-2 .8-3 .8ZM356.9 768.9h-.2c-3.4-.1-6-2.9-5.9-6.3.4-12.5 1.4-29.2 3.6-37.3 1.4-5.1 2.7-9.8 4-14.6 4.3-16.2 8.8-32.9 19.8-67.8 1-3.2 4.4-5 7.7-4 3.2 1 5 4.4 4 7.7-10.9 34.7-15.4 51.3-19.7 67.3-1.3 4.8-2.6 9.6-4 14.7-1.5 5.3-2.6 17.9-3.2 34.4-.1 3.3-2.8 5.9-6.1 5.9" class="st3"/><path d="M223.6 721.2h-3.8c-22.6-.5-44.7-5.2-65.7-14-3.9-1.6-5.7-6.1-4.1-10s6.1-5.7 10-4.1c19.2 8 39.4 12.3 60.1 12.8 22.9.5 46.1-3.9 67.3-12.8 3.9-1.6 8.4.2 10 4.1s-.2 8.4-4.1 10c-22 9.2-46 14-69.7 14M-28.3 644.8q-9.9 0-20.4-2.1c-4.1-.9-6.8-4.9-5.9-9s4.9-6.8 9-5.9c12.3 2.6 23.4 2.4 32.5.4-11.6-11.6-18.3-28.5-11.9-42.8 4.7-10.6 17.6-20.3 30.1-17.7 6.5 1.4 12.4 6.2 16.5 13.5 6 10.7 7.4 25 3.6 35.5-1.4 4-3.6 7.6-6.5 10.8 3.1.2 6.5 0 10-1 7-2 11.6-6.1 14.3-9.3 2.8-3.2 7.6-3.6 10.8-.8 3.2 2.7 3.6 7.6.8 10.8-4.1 4.7-11.1 11-21.7 14-13.1 3.7-24.5.3-30.5-2.3-8.8 3.9-19.3 6-30.8 6ZM.9 582.4c-4 0-9.8 4.2-12 9.1-4.1 9.2 3.6 22.6 13.7 29.9 4.1-2.9 6.9-6.3 8.2-10 2.3-6.4 1.2-16-2.6-22.9-1.9-3.4-4.2-5.6-6.3-6-.3 0-.7-.1-1-.1M128.8 469.2c-2.1 0-4.1-1.1-5.2-3-1.7-2.9-.8-6.6 2.1-8.4 32.6-19.6 65-34.4 96.3-44.1 11.6-3.6 25.4-7.2 42.6-4.9 24.3 3.3 41 16.1 48.8 23.4 2.5 2.3 2.6 6.2.3 8.6-2.3 2.5-6.2 2.6-8.6.3-6.7-6.3-21.2-17.4-42.1-20.2-14.7-2-26.5 1.1-37.4 4.4-30.4 9.3-61.9 23.7-93.6 42.8-1 .6-2.1.9-3.1.9ZM156.9 403c-.7 0-1.3-.5-1.5-1.1l-1.4-5.4c-.2-.8.3-1.6 1.1-1.9.8-.2 1.7.3 1.9 1.1l1.4 5.4c.2.8-.3 1.6-1.1 1.9zM77.5 368.5c-.6 0-1.3 0-1.9-.2-4.1-1.1-6.5-5.2-5.5-9.3 1-4 2.1-8.3 3.2-12.9 5.4-22.6 12.2-50.7 26.3-77.8 2.7-5.3 5.5-10.6 8.2-15.9 14.8-28.8 28.7-55.9 42.7-72.1 2.8-3.2 7.6-3.5 10.8-.8 3.2 2.8 3.5 7.6.8 10.8-12.8 14.8-27 42.4-40.7 69.1-2.7 5.3-5.5 10.7-8.2 16-13.3 25.5-19.8 52.5-25 74.3-1.1 4.7-2.2 9.1-3.2 13.1-.9 3.4-4 5.7-7.4 5.7Z" class="st3"/><path d="M195.8 243.5c-1.3 0-2.6-.3-3.8-1-9.9-5.7-23.3-16.2-31.6-33.6-10.7-22.4-6.6-43.5-3.8-57.5 6.8-34.4 26.2-59.2 41.3-73.8l7.2-7 45.6 83.4c2 3.7.7 8.3-3 10.4-3.7 2-8.3.7-10.4-3L201.6 96c-12 13.4-24.9 33-29.9 58.5-2.6 13.4-5.9 30.1 2.6 48 6.6 13.9 17.6 22.4 25.5 27 3.6 2.1 4.9 6.8 2.8 10.4-1.4 2.4-4 3.8-6.6 3.8ZM261.3 119.7c-.7 0-1.4 0-2.1-.3-4-1.2-6.4-5.4-5.2-9.5 3.4-11.5 8.3-22.5 14.6-32.7 7.8-12.5 17.6-23.5 29.1-32.7l8.1-6.5 27.3 69.6c1.5 3.9-.4 8.4-4.3 9.9s-8.4-.4-9.9-4.3l-19.6-49.8c-6.8 6.5-12.8 13.9-17.8 21.9-5.6 9-9.9 18.7-12.9 28.9-1 3.3-4 5.5-7.3 5.5" class="st3"/><path d="M447.1 264.4c-15.4 0-31.3-6.1-43.1-17.6-21.7-21.1-21.6-52.2-12.3-72.2 2.1-4.4 4.7-8.6 7.9-12.4-2.2-.6-4.5-1.4-6.7-2.4-2.8-1.4-7.4-4.4-13.8-8.7-12.7-8.5-31.9-21.2-46.9-26.8-3.1-1.2-14.7-5-33.9-5.3-22.2-.4-54.8 8.4-66 13.2-3.9 1.7-8.4-.2-10-4-1.7-3.9.2-8.4 4-10 12.6-5.4 47.6-14.7 72.2-14.4 21 .3 34.3 4.5 39 6.2 16.6 6.2 36.7 19.6 50 28.4 5.2 3.5 10.1 6.7 12 7.6 5 2.4 11.2 2.5 11.2 2.4h2c4.8 0 12.8-2.1 19.2-3.8 6.2-1.6 9.8-2.5 12.7-2.6 19.4-.7 37.5 16.5 46.1 32.8 13.6 25.7 11.7 64.2-15.2 81.5-8.3 5.4-18.2 8-28.2 8Zm-28.9-101.1c-.4 1.4-1.1 2.8-2.3 3.8-4.5 4.1-8 8.8-10.4 13.9-7.3 15.7-6.6 39.6 9.1 54.8 14.7 14.3 37.2 17.6 52.4 7.7 20.7-13.4 19.1-44.4 10-61.6-6.5-12.3-20-25.2-32-24.7-1.3 0-6 1.3-9.4 2.2-5.7 1.5-11.9 3.1-17.5 3.8Z" class="st3"/><ellipse cx="431.7" cy="207.1" class="st3" rx="7.5" ry="15.5" transform="rotate(-17.5 432.673 207.264)"/><ellipse cx="461" cy="195.6" class="st3" rx="7.5" ry="15.5" transform="rotate(-17.5 462.036 195.82)"/><path d="M389.7 297.8c-3.2 0-6.5-.2-9.7-.6-21.3-2.5-41.8-10-60.9-22.4-3.5-2.3-4.6-7-2.3-10.6 2.3-3.5 7-4.6 10.6-2.3 17.1 11 35.4 17.8 54.4 20 11.2 1.3 22.5-.2 35.7-4.7 16.2-5.6 27.2-14.2 32.1-20.3 2.6-3.3 7.4-3.9 10.7-1.3s3.9 7.4 1.3 10.7c-3 3.8-14.7 16.9-39.1 25.3-11.8 4.1-22.4 6-32.8 6Z" class="st3"/><path d="M304.8 281.1c-4.2 0-7.6-3.4-7.6-7.7 0-4.2 3.4-7.6 7.6-7.6 1.3 0 7.8-.3 12.2-5.3 2.5-2.9 3.4-6.2 3.7-8.4.5-4.2 4.3-7.1 8.5-6.6s7.2 4.3 6.6 8.5c-.5 4.3-2.2 10.7-7.3 16.5-8.5 9.7-20.2 10.5-23.7 10.5ZM324.4 379.6c-3.8 0-7.1-2.8-7.6-6.6-.5-4.2 2.4-8 6.6-8.6 14-1.8 27.3-5.7 39.7-11.7 41.6-20 61.8-57.5 70-78.1 1.6-3.9 6-5.8 9.9-4.2s5.8 6 4.2 9.9c-9.1 22.6-31.3 63.9-77.6 86.1-13.8 6.6-28.7 11-44.3 13.1h-1Z" class="st3"/><ellipse cx="311" cy="198.3" class="st3" rx="16.7" ry="16.8" transform="rotate(-11.3 310.087 198.07)"/></g></svg>