<svg xmlns="http://www.w3.org/2000/svg" viewBox="0 0 524.1 112.8"><path d="M7.2 11.9c.8-.8 2.1-1.3 3.7-1.3h58.3c12.1 0 21.2 1 27.2 3.1 6.1 2.1 10.1 5.3 12.2 9.5s3.1 10.3 3.1 18v1.7c0 8.6-1 15-3.1 19.2s-6.1 7.2-12.1 8.9-15.2 2.6-27.7 2.6H10.9c-1.6 0-2.8-.4-3.7-1.3s-1.3-2.1-1.3-3.7V15.4c0-1.6.4-2.8 1.3-3.7zm0 91.9c-.8-.8-1.3-2.1-1.3-3.7v-61c0-1.6.4-2.8 1.3-3.7s2.1-1.3 3.7-1.3h16.7c1.6 0 2.8.4 3.7 1.3.8.8 1.3 2.1 1.3 3.7v61c0 1.6-.4 2.8-1.3 3.7-.8.8-2.1 1.3-3.7 1.3H10.9c-1.6 0-2.8-.4-3.7-1.3m76.2-69.3c-1.1-1.5-3.1-2.5-6-3.1s-7.2-.9-13.1-.9H32.4v23.2h31.9c5.7 0 10-.3 12.9-1 3-.7 5-1.8 6.1-3.3S85 45.8 85 43v-1.7c0-3-.6-5.3-1.7-6.8zm71.3.9c.8.8 1.3 2.1 1.3 3.7v27.2c0 6.4.5 11.2 1.5 14.3s2.5 5.2 4.6 6.3 5 1.6 8.9 1.6c5.9 0 10.4-.6 13.5-1.9s5.2-3.3 6.4-6 1.8-6.6 1.8-11.4l5.2 20.9c-1.9 3.9-4.3 7.2-7 9.7s-5.9 4.3-9.4 5.5-7.5 1.8-11.9 1.8q-15.15 0-23.7-3c-8.55-3-9.9-5.4-12.5-10.2s-3.9-11.6-3.9-20.3V39.2c0-1.6.4-2.8 1.2-3.7s1.9-1.3 3.4-1.3h17c1.6 0 2.8.4 3.7 1.3h-.1Zm63.2 0c.8.8 1.3 2.1 1.3 3.7v61c0 1.6-.4 2.8-1.3 3.7s-2.1 1.3-3.7 1.3h-16.7c-1.6 0-2.8-.4-3.7-1.3s-1.3-2.1-1.3-3.7v-61c0-1.6.4-2.8 1.3-3.7s2.1-1.3 3.7-1.3h16.7c1.6 0 2.8.4 3.7 1.3m24.2 68.4c-.8-.8-1.3-2.1-1.3-3.7v-61c0-1.6.4-2.8 1.3-3.7.8-.8 2.1-1.3 3.7-1.3h16.7c1.6 0 2.8.4 3.7 1.3s1.3 2.1 1.3 3.7v61c0 1.6-.4 2.8-1.3 3.7s-2.1 1.3-3.7 1.3h-16.7c-1.6 0-2.8-.4-3.7-1.3m59.4-54c-.9.6-2.6.9-5 .9-7 0-12.5.7-16.7 2-4.2 1.4-7.2 3.5-9.1 6.3s-3 6.6-3.2 11.3V41.7c3-3.9 7.2-6.4 12.5-7.7 5.3-1.2 11.3-1.9 18-1.9s2.9.3 3.7 1q1.2 1.05 1.2 3.3v9.8c0 1.7-.5 2.8-1.4 3.4zm35.9 54.5c-6.2-1.4-10.6-3.5-13.2-6.4-2.6-2.8-4.1-6.7-4.6-11.5-.2-1.6.2-2.8 1.1-3.7s2.1-1.3 3.8-1.3h14.1c1.6 0 2.8.2 3.6.5.7.3 1.2 1.1 1.5 2.2.5 1.8 1.2 3.1 2.2 4s2.9 1.4 5.5 1.8c2.6.3 6.7.5 12.2.5s11.6-.2 14.6-.5 4.9-.9 5.7-1.7c.9-.8 1.3-2.1 1.3-3.9s-.5-3-1.5-3.9-2.6-1.5-4.9-1.9-5.6-.6-9.8-.7l-23.2-.3c-6.5 0-11.6-1-15.5-2.6-3.9-1.7-6.7-4.2-8.4-7.4-1.7-3.3-2.6-7.4-2.6-12.5s1.5-10.8 4.4-13.9 7.6-5.3 14.1-6.5 15.7-1.8 27.7-1.8 19.8.7 26 2.1 10.6 3.5 13.2 6.4c2.6 2.8 4.1 6.7 4.6 11.5.2 1.6-.2 2.8-1.1 3.7s-2.1 1.3-3.8 1.3h-14.1c-1.6 0-2.8-.2-3.6-.5-.7-.3-1.2-1.1-1.5-2.2-.5-1.8-1.2-3.1-2.2-4s-2.9-1.4-5.5-1.8c-2.6-.3-6.7-.5-12.2-.5s-11.6.2-14.6.5-4.9.9-5.7 1.7c-.9.8-1.3 2.1-1.3 3.9s.5 3 1.5 3.9 2.6 1.5 4.9 1.9 5.6.6 9.8.7l23.2.3c6.5 0 11.6 1 15.5 2.6 3.9 1.7 6.7 4.2 8.4 7.4 1.7 3.3 2.6 7.4 2.6 12.5s-1.5 10.8-4.4 13.9-7.6 5.3-14.1 6.5-15.7 1.8-27.7 1.8-19.8-.7-26-2.1m110.6-1.1c-6.5-2.2-11.3-5.9-14.4-11.2s-4.7-12.9-4.7-22.6 1.6-17.2 4.7-22.4 7.9-8.9 14.3-10.9 15.2-3 26.2-3 19.8 1 26.2 3 11.2 5.7 14.3 10.9 4.7 12.7 4.7 22.4-1.6 17.3-4.7 22.6-7.9 9.1-14.4 11.2c-6.5 2.2-15.2 3.2-26.2 3.2s-19.7-1.1-26.2-3.2zm43.3-44.8c-1-2.5-2.9-4.3-5.5-5.4-2.7-1.1-6.5-1.7-11.6-1.7s-9 .6-11.6 1.7c-2.7 1.1-4.5 2.9-5.5 5.4s-1.5 6.1-1.5 10.8c0 7.1.5 8.8 1.5 11.4s2.9 4.5 5.5 5.6 6.5 1.7 11.6 1.7 9-.6 11.6-1.7 4.5-3 5.5-5.6q1.5-3.9 1.5-11.4c0-7.5-.5-8.3-1.5-10.8"/></svg>