<svg xmlns="http://www.w3.org/2000/svg" viewBox="0 0 512 124.1"><path d="M12.6 12.5c.8-.8 2-1.2 3.5-1.2h55.7c11.6 0 20.2 1 26 3s9.6 5.1 11.6 9.1 3 9.8 3 17.2v1.6q0 12.3-3 18.3c-3 6-5.8 6.9-11.6 8.5s-14.5 2.5-26.4 2.5H16.2c-1.5 0-2.7-.4-3.5-1.2s-1.2-2-1.2-3.5V15.9c0-1.5.4-2.7 1.2-3.5v.2Zm0 87.7c-.8-.8-1.2-2-1.2-3.5V38.5c0-1.5.4-2.7 1.2-3.5s2-1.2 3.5-1.2H32c1.5 0 2.7.4 3.5 1.2s1.2 2 1.2 3.5v58.2c0 1.5-.4 2.7-1.2 3.5s-2 1.2-3.5 1.2H16.1c-1.5 0-2.7-.4-3.5-1.2m72.8-66.1q-1.65-2.1-5.7-3c-4.05-.9-6.9-.9-12.5-.9H36.7v22.1h30.5c5.4 0 9.5-.3 12.3-1 2.9-.7 4.8-1.7 5.8-3.2s1.6-3.4 1.6-6.1v-1.6c0-2.9-.6-5.1-1.6-6.5Zm68.1.8c.8.8 1.2 2 1.2 3.5v26c0 6.1.5 10.7 1.4 13.7s2.4 5 4.4 6 4.8 1.5 8.5 1.5q8.4 0 12.9-1.8c4.5-1.8 5-3.2 6.1-5.7s1.7-6.3 1.7-10.9l5 20c-1.8 3.7-4.1 6.9-6.7 9.3s-5.6 4.1-9 5.3-7.2 1.7-11.4 1.7c-9.6 0-17.2-1-22.6-2.9s-9.5-5.2-11.9-9.7-3.7-11.1-3.7-19.4V38.7c0-1.5.4-2.7 1.1-3.5s1.8-1.2 3.2-1.2h16.2c1.5 0 2.7.4 3.5 1.2Zm60.3 0c.8.8 1.2 2 1.2 3.5v58.2c0 1.5-.4 2.7-1.2 3.5s-2 1.2-3.5 1.2h-15.9c-1.5 0-2.7-.4-3.5-1.2s-1.2-2-1.2-3.5V38.4c0-1.5.4-2.7 1.2-3.5s2-1.2 3.5-1.2h15.9c1.5 0 2.7.4 3.5 1.2m23.1 65.3c-.8-.8-1.2-2-1.2-3.5V38.5c0-1.5.4-2.7 1.2-3.5s2-1.2 3.5-1.2h15.9c1.5 0 2.7.4 3.5 1.2s1.2 2 1.2 3.5v58.2c0 1.5-.4 2.7-1.2 3.5s-2 1.2-3.5 1.2h-15.9c-1.5 0-2.7-.4-3.5-1.2m56.7-51.5q-1.35.9-4.8.9c-6.7 0-11.9.7-15.9 1.9q-6 1.95-8.7 6c-2.7 4.05-2.9 6.3-3.1 10.8V41c2.9-3.7 6.9-6.1 11.9-7.4 5.1-1.1 10.8-1.8 17.2-1.8s2.8.3 3.5 1c.8.7 1.1 1.7 1.1 3.2v9.4c0 1.6-.5 2.7-1.3 3.2v.2Zm34.3 52c-5.9-1.3-10.1-3.3-12.6-6.1-2.5-2.7-3.9-6.4-4.4-11-.2-1.5.2-2.7 1.1-3.5s2-1.2 3.6-1.2h13.5c1.5 0 2.7.2 3.4.5s1.1 1.1 1.4 2.1c.5 1.7 1.1 3 2.1 3.8s2.8 1.3 5.3 1.7c2.5.3 6.4.5 11.6.5s11.1-.2 13.9-.5 4.7-.9 5.4-1.6c.9-.8 1.2-2 1.2-3.7s-.5-2.9-1.4-3.7-2.5-1.4-4.7-1.8-5.3-.6-9.4-.7l-22.1-.3c-6.2 0-11.1-1-14.8-2.5-3.7-1.6-6.4-4-8-7.1-1.6-3.2-2.5-7.1-2.5-11.9s1.4-10.3 4.2-13.3 7.3-5.1 13.5-6.2 15-1.7 26.4-1.7 18.9.7 24.8 2 10.1 3.3 12.6 6.1c2.5 2.7 3.9 6.4 4.4 11 .2 1.5-.2 2.7-1.1 3.5s-2 1.2-3.6 1.2h-13.5c-1.5 0-2.7-.2-3.4-.5s-1.1-1.1-1.4-2.1c-.5-1.7-1.1-3-2.1-3.8s-2.8-1.3-5.3-1.7c-2.5-.3-6.4-.5-11.6-.5s-11.1.2-13.9.5-4.7.9-5.4 1.6c-.9.8-1.2 2-1.2 3.7s.5 2.9 1.4 3.7 2.5 1.4 4.7 1.8 5.3.6 9.4.7l22.1.3c6.2 0 11.1 1 14.8 2.5 3.7 1.6 6.4 4 8 7.1 1.6 3.2 2.5 7.1 2.5 11.9s-1.4 10.3-4.2 13.3-7.3 5.1-13.5 6.2-15 1.7-26.4 1.7-18.9-.7-24.8-2m105.5-1c-6.2-2.1-10.8-5.6-13.7-10.7q-4.5-7.65-4.5-21.6c0-13.95 1.5-16.4 4.5-21.4s7.5-8.5 13.7-10.4 14.5-2.9 25-2.9 18.9 1 25 2.9S494.1 41 497.1 46s4.5 12.1 4.5 21.4-1.5 16.5-4.5 21.6-7.5 8.7-13.7 10.7c-6.2 2.1-14.5 3.1-25 3.1s-18.8-1.1-25-3.1h.2Zm41.4-42.8c-1-2.4-2.8-4.1-5.3-5.2-2.6-1.1-6.2-1.6-11.1-1.6s-8.6.6-11.1 1.6c-2.6 1.1-4.3 2.8-5.3 5.2s-1.4 5.8-1.4 10.3c0 6.7.5 8.4 1.4 10.9s2.8 4.3 5.3 5.3 6.2 1.6 11.1 1.6 8.6-.6 11.1-1.6 4.3-2.9 5.3-5.3c1-2.5 1.4-6.1 1.4-10.9 0-7.2-.5-7.9-1.4-10.3"/></svg>