<svg xmlns="http://www.w3.org/2000/svg" viewBox="0 0 512 124.1"><path d="M371.5 60c-6.6-1.2-38.8 3.3-37.6-6.5-1.7-8.9 26.7-5.2 32.1-5.3 9.7.3 4.5 8.5 12.2 8.1 2.6-.4 15.3 1 17.1-1.2 3-4.1-.8-11.6-3.3-14.5-12.9-11.7-47.6-8.1-63.8-6.4-6.2 1.1-10.7 3.2-13.5 6.2-7.1 9.1-5.7 27.7 6.3 32.3 7.3 3.7 28 2.3 36.9 2.8 6 .3 10.3 0 14.1 2.5 3.2 4.1 1.1 9.1-5.2 9-7.5.2-24.1 1.9-30.8-1.7-1.8-.9-1.7-4.9-3.5-5.9-2.2-.7-19.2-1.3-20.5.7-4 10.3 5.1 18.8 15.9 20.6 15.6 2.4 52.6 5.4 64.7-5.9 5.4-5.8 5.2-18.7 1.7-25.2-4.6-8-12.8-9.3-22.8-9.6M483.4 35.6c-17.3-3.9-52.8-7.4-63.7 10.4-8.4 12.6-7.1 49 13.7 53.7 17.6 4.3 52.7 7.6 63.7-10.7 7.9-15.5 7.5-48.3-13.7-53.4m-13.9 47.8c-7.2 2.2-24.1 3.8-27.5-5.3-1.9-5.8-3.7-23.5 5.3-26.4 7.2-2.3 23.9-3.7 27.5 5.2 2.1 5.5 3.4 23.8-5.3 26.5M293.7 32.8c-.7-.7.5-.9-3.5-1-10.6.4-22.4.6-29.4 8.3 0-.9 0-1.5.2-1.6 0-3-1.7-4.7-4.7-4.7h-15.9c-3 0-4.7 1.7-4.7 4.7.9 1.9-1.9 61.7 1.2 61.7.8.8 2 1.2 3.5 1.2 2.6-.5 17.7 1.3 19.4-1.2 1.7-.3 1.6-17.4 1.3-33.6 1-17.5 18.1-15.7 32.4-17.9.8-.6 1.3-1.7 1.3-3.3-.4-2.2 1-11.1-1.1-12.6M213.8 34.9c-.8-.8-2-1.2-3.5-1.2-2.6.5-17.7-1.3-19.4 1.2-1.7.3-1.6 17.7-1.3 34-.5 7.3 0 11.5-7.7 14.9-4.1 1.8-16.5 2.9-21.4.3-11.3-7.2-2.2-38.2-7-49.2v.3c-1.9-2.5-17.1-.6-19.8-1.2-3 0-4.3 1.8-4.3 4.7.7 11.8-2.3 42.7 3.7 52.2 7.3 11.9 19.2 12 34.5 12.6 8.9.2 16.8-2.8 22.3-8.9 0 1.1 0 1.8-.2 2 0 3 1.7 4.7 4.7 4.7h15.9c3 0 4.7-1.7 4.7-4.7-.9-1.9 1.9-61.7-1.2-61.7M71.8 11.3c-2 1-57.8-1.9-59.2 1.1-1.5.2-1.3 24-1.1 40.1-.3 18.2-1 47.8 1.1 47.7.8.8 2 1.2 3.5 1.2 2.6-.5 17.7 1.3 19.4-1.2 1.5-.2 1.6-14.1 1.4-28.7 21.8.2 51.2.7 60.9-2.5 13.4-2.5 14.6-14.6 14.6-28.4 1.5-25.8-16.5-29.6-40.6-29.3m7.7 40c-7 1.8-34.6.7-42.8 1V30.2c11 1.3 40.5-3.5 48.7 3.9 2.9 5.6 2.6 16.3-5.9 17.2"/></svg>