<svg preserveAspectRatio="none" width="100%" height="100%" overflow="visible" style="display: block;" viewBox="0 0 18.6667 15.9885" fill="none" xmlns="http://www.w3.org/2000/svg">
<path id="icon" d="M18.6667 7.98771C18.6602 7.28624 18.3775 6.61558 17.88 6.12105L12.16 0.387723C11.9102 0.139389 11.5722 0 11.22 0C10.8678 0 10.5298 0.139389 10.28 0.387723C10.155 0.511674 10.0558 0.659142 9.98814 0.821621C9.92045 0.984099 9.8856 1.15837 9.8856 1.33439C9.8856 1.5104 9.92045 1.68468 9.98814 1.84716C10.0558 2.00964 10.155 2.1571 10.28 2.28105L14.6667 6.65438H1.33333C0.979711 6.65438 0.640573 6.79486 0.390525 7.04491C0.140476 7.29495 0 7.63409 0 7.98771C0 8.34134 0.140476 8.68047 0.390525 8.93052C0.640573 9.18057 0.979711 9.32105 1.33333 9.32105H14.6667L10.28 13.7077C10.0289 13.957 9.88717 14.2958 9.88592 14.6497C9.88467 15.0035 10.024 15.3433 10.2733 15.5944C10.5226 15.8454 10.8615 15.9872 11.2153 15.9884C11.5691 15.9897 11.9089 15.8503 12.16 15.601L17.88 9.86771C18.3808 9.36991 18.6637 8.69382 18.6667 7.98771V7.98771Z" fill="var(--fill-0, #080B12)" style="fill:#080B12;fill:color(display-p3 0.0314 0.0431 0.0706);fill-opacity:1;"/>
</svg>
