<svg preserveAspectRatio="none" width="100%" height="100%" overflow="visible" style="display: block;" viewBox="0 0 24 24.0019" fill="none" xmlns="http://www.w3.org/2000/svg">
<path id="icon" d="M12 10.0019C10.6514 10.0015 9.30605 10.1355 7.984 10.4019L7.978 8.11694L12.987 6.04094C13.2921 5.88591 13.5523 5.65517 13.7428 5.37082C13.9332 5.08646 14.0475 4.75799 14.0747 4.41684C14.1019 4.07568 14.0411 3.73326 13.8981 3.42233C13.7551 3.11139 13.5347 2.84235 13.258 2.64094C13.2263 2.61693 13.1928 2.59521 13.158 2.57594L8.9 0.213944C8.59494 0.0602208 8.25558 -0.0128017 7.91429 0.00183763C7.573 0.016477 7.24114 0.11829 6.95036 0.297571C6.65958 0.476852 6.41957 0.727625 6.2532 1.02598C6.08684 1.32434 5.99967 1.66034 6 2.00194V10.9159C2.391 12.1109 0 14.3619 0 17.0019C0 20.9269 5.271 24.0019 12 24.0019C18.729 24.0019 24 20.9269 24 17.0019C24 13.0769 18.729 10.0019 12 10.0019ZM12.073 4.25694L7.973 5.95694L7.963 1.98594L12.073 4.25694ZM12 22.0019C6.58 22.0019 2 19.7119 2 17.0019C2 15.4079 3.591 13.9629 6 13.0399V17.0019C6 17.2672 6.10536 17.5215 6.29289 17.7091C6.48043 17.8966 6.73478 18.0019 7 18.0019C7.26522 18.0019 7.51957 17.8966 7.70711 17.7091C7.89464 17.5215 8 17.2672 8 17.0019L7.989 12.4419C9.30562 12.1474 10.6508 11.9998 12 12.0019C17.42 12.0019 22 14.2919 22 17.0019C22 19.7119 17.42 22.0019 12 22.0019ZM17 17.0019C17 17.3975 16.8827 17.7842 16.6629 18.1131C16.4432 18.442 16.1308 18.6983 15.7654 18.8497C15.3999 19.0011 14.9978 19.0407 14.6098 18.9635C14.2219 18.8863 13.8655 18.6959 13.5858 18.4162C13.3061 18.1365 13.1156 17.7801 13.0384 17.3921C12.9613 17.0042 13.0009 16.602 13.1522 16.2366C13.3036 15.8711 13.56 15.5588 13.8889 15.339C14.2178 15.1192 14.6044 15.0019 15 15.0019C15.5304 15.0019 16.0391 15.2127 16.4142 15.5877C16.7893 15.9628 17 16.4715 17 17.0019Z" fill="var(--fill-0, #080B12)" style="fill:#080B12;fill:color(display-p3 0.0314 0.0431 0.0706);fill-opacity:1;"/>
</svg>
