<svg preserveAspectRatio="none" width="100%" height="100%" overflow="visible" style="display: block;" viewBox="0 0 8.41439 15.9983" fill="none" xmlns="http://www.w3.org/2000/svg">
<path id="icon" d="M0.193862 4.13825C0.31877 4.26241 0.487738 4.33211 0.663862 4.33211C0.839985 4.33211 1.00895 4.26241 1.13386 4.13825L3.5272 1.71824V15.3316C3.5272 15.5084 3.59743 15.678 3.72246 15.803C3.84748 15.928 4.01705 15.9983 4.19386 15.9983C4.37067 15.9983 4.54024 15.928 4.66527 15.803C4.79029 15.678 4.86053 15.5084 4.86053 15.3316V1.72491L7.27386 4.13825C7.33584 4.20073 7.40957 4.25033 7.49081 4.28417C7.57205 4.31802 7.65919 4.33544 7.7472 4.33544C7.8352 4.33544 7.92234 4.31802 8.00358 4.28417C8.08482 4.25033 8.15855 4.20073 8.22053 4.13825C8.3447 4.01334 8.41439 3.84437 8.41439 3.66824C8.41439 3.49212 8.3447 3.32315 8.22053 3.19824L5.61386 0.584907C5.23886 0.210372 4.73053 0 4.20053 0C3.67053 0 3.1622 0.210372 2.7872 0.584907L0.193862 3.19824C0.0696944 3.32315 0 3.49212 0 3.66824C0 3.84437 0.0696944 4.01334 0.193862 4.13825Z" fill="var(--fill-0, #EB4B5B)" style="fill:#EB4B5B;fill:color(display-p3 0.9216 0.2941 0.3569);fill-opacity:1;"/>
</svg>
