<svg preserveAspectRatio="none" width="100%" height="100%" overflow="visible" style="display: block;" viewBox="0 0 16 11" fill="none" xmlns="http://www.w3.org/2000/svg">
<path id="icon" d="M14.8596 0.197337L5.6477 9.46306C5.58577 9.52561 5.51217 9.57523 5.43112 9.6091C5.35007 9.64296 5.26317 9.66039 5.17541 9.66039C5.08765 9.66039 5.00075 9.64296 4.9197 9.6091C4.83866 9.57523 4.76505 9.52561 4.70312 9.46306L1.14076 5.87626C1.07883 5.81371 1.00522 5.76409 0.924176 5.73022C0.843128 5.69636 0.75623 5.67893 0.668468 5.67893C0.580707 5.67893 0.493809 5.69636 0.412761 5.73022C0.331713 5.76409 0.25811 5.81371 0.196176 5.87626C0.133997 5.93856 0.0846593 6.0126 0.0509944 6.09413C0.0173296 6.17566 0 6.26307 0 6.35135C0 6.43963 0.0173296 6.52704 0.0509944 6.60857C0.0846593 6.6901 0.133997 6.76414 0.196176 6.82644L3.75987 10.4106C4.1358 10.788 4.64526 11 5.17641 11C5.70757 11 6.21702 10.788 6.59296 10.4106L15.8042 1.14684C15.8662 1.08455 15.9155 1.01056 15.9491 0.929091C15.9827 0.847625 16 0.760291 16 0.672089C16 0.583888 15.9827 0.496554 15.9491 0.415088C15.9155 0.333622 15.8662 0.259626 15.8042 0.197337C15.7422 0.13479 15.6686 0.0851605 15.5876 0.0512964C15.5065 0.0174323 15.4196 0 15.3319 0C15.2441 0 15.1572 0.0174323 15.0762 0.0512964C14.9951 0.0851605 14.9215 0.13479 14.8596 0.197337Z" fill="var(--fill-0, #E5E7EB)" style="fill:#E5E7EB;fill:color(display-p3 0.8980 0.9059 0.9216);fill-opacity:1;"/>
</svg>
