<svg preserveAspectRatio="none" width="100%" height="100%" overflow="visible" style="display: block;" viewBox="0 0 14 24" fill="none" xmlns="http://www.w3.org/2000/svg">
<path id="icon" d="M8.932 4C9.74544 4.00079 10.5253 4.32428 11.1005 4.89947C11.6757 5.47466 11.9992 6.25456 12 7.068C12 7.33322 12.1054 7.58757 12.2929 7.77511C12.4804 7.96264 12.7348 8.068 13 8.068C13.2652 8.068 13.5196 7.96264 13.7071 7.77511C13.8946 7.58757 14 7.33322 14 7.068V7C14 6.981 14 6.964 14 6.945C13.9666 5.62273 13.4181 4.36578 12.4714 3.44206C11.5247 2.51833 10.2547 2.00088 8.932 2H8V1C8 0.734784 7.89464 0.48043 7.70711 0.292893C7.51957 0.105357 7.26522 0 7 0C6.73478 0 6.48043 0.105357 6.29289 0.292893C6.10536 0.48043 6 0.734784 6 1V2H5.068C3.86532 2.00128 2.70229 2.43023 1.78679 3.21018C0.871299 3.99012 0.263009 5.07022 0.070653 6.25742C-0.121703 7.44462 0.114411 8.66154 0.736792 9.69066C1.35917 10.7198 2.32726 11.494 3.468 11.875L6 12.72V20H5.068C4.25456 19.9992 3.47466 19.6757 2.89947 19.1005C2.32428 18.5253 2.00079 17.7454 2 16.932C2 16.6668 1.89464 16.4124 1.70711 16.2249C1.51957 16.0374 1.26522 15.932 1 15.932C0.734784 15.932 0.48043 16.0374 0.292893 16.2249C0.105357 16.4124 0 16.6668 0 16.932V17C0 17.019 0 17.036 0 17.055C0.0333734 18.3773 0.581863 19.6342 1.52856 20.5579C2.47527 21.4817 3.74531 21.9991 5.068 22H6V23C6 23.2652 6.10536 23.5196 6.29289 23.7071C6.48043 23.8946 6.73478 24 7 24C7.26522 24 7.51957 23.8946 7.70711 23.7071C7.89464 23.5196 8 23.2652 8 23V22H8.932C10.1347 21.9987 11.2977 21.5698 12.2132 20.7898C13.1287 20.0099 13.737 18.9298 13.9293 17.7426C14.1217 16.5554 13.8856 15.3385 13.2632 14.3093C12.6408 13.2802 11.6727 12.506 10.532 12.125L8 11.28V4H8.932ZM9.902 14.021C10.5934 14.2511 11.1804 14.7198 11.5577 15.3432C11.9351 15.9666 12.0782 16.704 11.9615 17.4233C11.8448 18.1426 11.4759 18.7969 10.9208 19.269C10.3657 19.7411 9.66072 20.0003 8.932 20H8V13.387L9.902 14.021ZM6 10.613L4.1 9.979C3.40874 9.74893 2.82191 9.28037 2.44453 8.65718C2.06716 8.034 1.92387 7.29685 2.0403 6.57768C2.15674 5.8585 2.5253 5.20422 3.08003 4.73194C3.63476 4.25966 4.33946 4.00021 5.068 4H6V10.613Z" fill="var(--fill-0, #080B12)" style="fill:#080B12;fill:color(display-p3 0.0314 0.0431 0.0706);fill-opacity:1;"/>
</svg>
