<svg preserveAspectRatio="none" width="100%" height="100%" overflow="visible" style="display: block;" viewBox="0 0 12.0014 14.9916" fill="none" xmlns="http://www.w3.org/2000/svg">
<path id="icon" d="M11.7108 4.87159L7.41079 0.581585C7.03607 0.209084 6.52916 0 6.00079 0C5.47242 0 4.96552 0.209084 4.59079 0.581585L0.290792 4.87159C0.104542 5.05895 0 5.3124 0 5.57659C0 5.84077 0.104542 6.09422 0.290792 6.28159C0.383755 6.37531 0.494356 6.44971 0.616216 6.50048C0.738075 6.55125 0.868781 6.57738 1.00079 6.57738C1.1328 6.57738 1.26351 6.55125 1.38537 6.50048C1.50723 6.44971 1.61783 6.37531 1.71079 6.28159L5.00079 2.99159V13.9916C5.00079 14.2568 5.10615 14.5112 5.29369 14.6987C5.48122 14.8862 5.73558 14.9916 6.00079 14.9916C6.26601 14.9916 6.52036 14.8862 6.7079 14.6987C6.89544 14.5112 7.00079 14.2568 7.00079 13.9916V2.99159L10.2908 6.28159C10.4778 6.46989 10.7319 6.5762 10.9973 6.57714C11.2626 6.57808 11.5175 6.47356 11.7058 6.28659C11.8941 6.09961 12.0004 5.84548 12.0013 5.58012C12.0023 5.31476 11.8978 5.05989 11.7108 4.87159V4.87159Z" fill="var(--fill-0, #E61E32)" style="fill:#E61E32;fill:color(display-p3 0.9020 0.1176 0.1961);fill-opacity:1;"/>
</svg>
