<svg preserveAspectRatio="none" width="100%" height="100%" overflow="visible" style="display: block;" viewBox="0 0 16.0055 7.56273" fill="none" xmlns="http://www.w3.org/2000/svg">
<path id="icon" d="M8.00273 7.56273C7.56469 7.56351 7.1308 7.47795 6.72586 7.31094C6.32091 7.14393 5.95285 6.89874 5.64273 6.5894L0.196061 1.14273C0.0705253 1.01719 0 0.846929 0 0.669395C0 0.49186 0.0705253 0.321597 0.196061 0.196061C0.321597 0.0705253 0.49186 0 0.669394 0C0.846929 0 1.01719 0.0705253 1.14273 0.196061L6.58939 5.64273C6.9644 6.01726 7.47273 6.22764 8.00273 6.22764C8.53273 6.22764 9.04106 6.01726 9.41606 5.64273L14.8627 0.196061C14.9883 0.0705253 15.1585 0 15.3361 0C15.5136 0 15.6839 0.0705253 15.8094 0.196061C15.9349 0.321597 16.0055 0.49186 16.0055 0.669395C16.0055 0.846929 15.9349 1.01719 15.8094 1.14273L10.3627 6.5894C10.0526 6.89874 9.68454 7.14393 9.2796 7.31094C8.87465 7.47795 8.44076 7.56351 8.00273 7.56273V7.56273Z" fill="var(--fill-0, #080B12)" style="fill:#080B12;fill:color(display-p3 0.0314 0.0431 0.0706);fill-opacity:1;"/>
</svg>
