<svg preserveAspectRatio="none" width="100%" height="100%" overflow="visible" style="display: block;" viewBox="0 0 24 18.5143" fill="none" xmlns="http://www.w3.org/2000/svg">
<g id="icon">
<path d="M21.6 0H2.4C1.76459 0.00360014 1.15623 0.257613 0.706922 0.706922C0.257613 1.15623 0.00360014 1.76459 0 2.4V16.1143C0.00360014 16.7497 0.257613 17.3581 0.706922 17.8074C1.15623 18.2567 1.76459 18.5107 2.4 18.5143H21.6C22.2354 18.5107 22.8438 18.2567 23.2931 17.8074C23.7424 17.3581 23.9964 16.7497 24 16.1143V2.4C23.9964 1.76459 23.7424 1.15623 23.2931 0.706922C22.8438 0.257613 22.2354 0.00360014 21.6 0ZM2.4 2.05714H21.6C21.6909 2.05714 21.7781 2.09327 21.8424 2.15756C21.9067 2.22186 21.9429 2.30907 21.9429 2.4V5.48571H2.05714V2.4C2.05714 2.30907 2.09327 2.22186 2.15756 2.15756C2.22186 2.09327 2.30907 2.05714 2.4 2.05714ZM21.6 16.4571H2.4C2.30907 16.4571 2.22186 16.421 2.15756 16.3567C2.09327 16.2924 2.05714 16.2052 2.05714 16.1143V7.54286H21.9429V16.1143C21.9429 16.2052 21.9067 16.2924 21.8424 16.3567C21.7781 16.421 21.6909 16.4571 21.6 16.4571Z" fill="var(--fill-0, #080B12)" style="fill:#080B12;fill:color(display-p3 0.0314 0.0431 0.0706);fill-opacity:1;"/>
<path d="M7.88571 10.6286H5.14286C4.77913 10.6286 4.4303 10.7731 4.17311 11.0303C3.91592 11.2874 3.77143 11.6363 3.77143 12C3.77143 12.3637 3.91592 12.7126 4.17311 12.9697C4.4303 13.2269 4.77913 13.3714 5.14286 13.3714H7.88571C8.24944 13.3714 8.59827 13.2269 8.85546 12.9697C9.11265 12.7126 9.25714 12.3637 9.25714 12C9.25714 11.6363 9.11265 11.2874 8.85546 11.0303C8.59827 10.7731 8.24944 10.6286 7.88571 10.6286Z" fill="var(--fill-0, #080B12)" style="fill:#080B12;fill:color(display-p3 0.0314 0.0431 0.0706);fill-opacity:1;"/>
</g>
</svg>
