<svg preserveAspectRatio="none" width="100%" height="100%" overflow="visible" style="display: block;" viewBox="0 0 72 72" fill="none" xmlns="http://www.w3.org/2000/svg">
<g id="Group 37">
<path id="fundo-gr&#195;&#161;fico" d="M72 36C72 55.8823 55.8823 72 36 72C16.1177 72 0 55.8823 0 36C0 16.1177 16.1177 1.96766e-07 36 1.96766e-07C55.8823 1.96766e-07 72 16.1177 72 36ZM7.91322 36C7.91322 51.5119 20.4881 64.0868 36 64.0868C51.5119 64.0868 64.0868 51.5119 64.0868 36C64.0868 20.4881 51.5119 7.91322 36 7.91322C20.4881 7.91322 7.91322 20.4881 7.91322 36Z" fill="var(--fill-0, #E7E8E9)" style="fill:#E7E8E9;fill:color(display-p3 0.9059 0.9098 0.9137);fill-opacity:1;"/>
<path id="resultado-gr&#195;&#161;fico" d="M28.2106 0.852814C32.8262 -0.170109 37.598 -0.273907 42.2537 0.547347C46.9095 1.3686 51.3578 3.09882 55.3449 5.63923C59.3319 8.17963 62.7795 11.4805 65.4909 15.3533C68.2022 19.2261 70.1243 23.595 71.1472 28.2106L60.9724 30.4655C60.2456 27.1861 58.88 24.082 56.9535 21.3303C55.0271 18.5787 52.5775 16.2334 49.7447 14.4284C46.9119 12.6234 43.7513 11.3941 40.4433 10.8106C37.1354 10.2271 33.745 10.3008 30.4655 11.0276L28.2106 0.852814Z" fill="var(--fill-0, #C4E703)" style="fill:#C4E703;fill:color(display-p3 0.7686 0.9059 0.0118);fill-opacity:1;"/>
</g>
</svg>
