<svg preserveAspectRatio="none" width="100%" height="100%" overflow="visible" style="display: block;" viewBox="0 0 53.2205 30.4122" fill="none" xmlns="http://www.w3.org/2000/svg">
<path id="Vector" d="M15.9932 0.633789C16.2423 0.374945 16.7334 0.515667 16.7334 0.977539V12.5645L15.3857 13.9678C13.9272 15.4854 14.9209 18.1443 17.0723 18.1445H34.8135L24.5352 28.8369C23.9241 29.4727 23.098 29.8262 22.2422 29.8262H9.39551C1.52232 29.8261 -2.50361 19.8773 3.12598 14.0205L15.9932 0.633789ZM30.9785 0.585938H43.8252C51.6982 0.586141 55.7241 10.5349 50.0947 16.3916L37.2275 29.7783C36.9785 30.0373 36.4873 29.8966 36.4873 29.4346V17.8457L37.835 16.4443C39.2934 14.9268 38.2996 12.2679 36.1484 12.2676H18.4072L28.6846 1.5752C29.2958 0.939377 30.1227 0.585938 30.9785 0.585938Z" fill="var(--fill-0, #070A10)" stroke="var(--stroke-0, #070A10)" style="fill:#070A10;fill:color(display-p3 0.0275 0.0392 0.0627);fill-opacity:1;stroke:#070A10;stroke:color(display-p3 0.0275 0.0392 0.0627);stroke-opacity:1;"/>
</svg>
