<svg preserveAspectRatio="none" width="100%" height="100%" overflow="visible" style="display: block;" viewBox="0 0 11.9966 14" fill="none" xmlns="http://www.w3.org/2000/svg">
<path id="icon" d="M11.7108 7.71C11.6178 7.61627 11.5072 7.54188 11.3854 7.49111C11.2635 7.44034 11.1328 7.4142 11.0008 7.4142C10.8688 7.4142 10.7381 7.44034 10.6162 7.49111C10.4944 7.54188 10.3838 7.61627 10.2908 7.71L7.00079 11V1C7.00079 0.734784 6.89543 0.48043 6.7079 0.292893C6.52036 0.105357 6.26601 0 6.00079 0C5.73558 0 5.48122 0.105357 5.29369 0.292893C5.10615 0.48043 5.00079 0.734784 5.00079 1V11L1.71079 7.71C1.61783 7.61627 1.50723 7.54188 1.38537 7.49111C1.26351 7.44034 1.1328 7.4142 1.00079 7.4142C0.868781 7.4142 0.738075 7.44034 0.616216 7.49111C0.494356 7.54188 0.383755 7.61627 0.290792 7.71C0.104542 7.89736 0 8.15081 0 8.415C0 8.67919 0.104542 8.93264 0.290792 9.12L4.59079 13.41C4.96414 13.7856 5.47122 13.9978 6.00079 14V14C6.5269 13.9951 7.02989 13.7832 7.40079 13.41L11.7008 9.12C11.8884 8.93396 11.9947 8.68125 11.9966 8.41706C11.9985 8.15288 11.8957 7.89868 11.7108 7.71V7.71Z" fill="var(--fill-0, #15BE78)" style="fill:#15BE78;fill:color(display-p3 0.0824 0.7451 0.4706);fill-opacity:1;"/>
</svg>
