<svg preserveAspectRatio="none" width="100%" height="100%" overflow="visible" style="display: block;" viewBox="0 0 72 72.0001" fill="none" xmlns="http://www.w3.org/2000/svg">
<g id="Group 37">
<path id="fundo-gr&#195;&#161;fico" d="M72 36.0001C72 55.8824 55.8823 72.0001 36 72.0001C16.1177 72.0001 0 55.8824 0 36.0001C0 16.1179 16.1177 0.000131971 36 0.000131971C55.8823 0.000131971 72 16.1179 72 36.0001ZM7.91322 36.0001C7.91322 51.512 20.4881 64.0869 36 64.0869C51.5119 64.0869 64.0868 51.512 64.0868 36.0001C64.0868 20.4882 51.5119 7.91335 36 7.91335C20.4881 7.91335 7.91322 20.4882 7.91322 36.0001Z" fill="var(--fill-0, #E7E8E9)" style="fill:#E7E8E9;fill:color(display-p3 0.9059 0.9098 0.9137);fill-opacity:1;"/>
<path id="resultado-gr&#195;&#161;fico" d="M28.2106 0.852946C37.5322 -1.21294 47.2927 0.508781 55.3448 5.63935L49.7447 14.4285C44.0235 10.7832 37.0886 9.55992 30.4655 11.0278L28.2106 0.852946Z" fill="var(--fill-0, #C4E703)" style="fill:#C4E703;fill:color(display-p3 0.7686 0.9059 0.0118);fill-opacity:1;"/>
</g>
</svg>
