<svg preserveAspectRatio="none" width="100%" height="100%" overflow="visible" style="display: block;" viewBox="0 0 72 72" fill="none" xmlns="http://www.w3.org/2000/svg">
<g id="Group 37">
<path id="fundo-gr&#195;&#161;fico" d="M72 36C72 55.8823 55.8823 72 36 72C16.1177 72 0 55.8823 0 36C0 16.1178 16.1177 1.36971e-06 36 1.36971e-06C55.8823 1.36971e-06 72 16.1178 72 36ZM7.91322 36C7.91322 51.5119 20.4881 64.0868 36 64.0868C51.5119 64.0868 64.0868 51.5119 64.0868 36C64.0868 20.4881 51.5119 7.91322 36 7.91322C20.4881 7.91322 7.91322 20.4881 7.91322 36Z" fill="var(--fill-0, #E7E8E9)" style="fill:#E7E8E9;fill:color(display-p3 0.9059 0.9098 0.9137);fill-opacity:1;"/>
<path id="resultado-gr&#195;&#161;fico" d="M28.2106 0.852815C34.1771 -0.469516 40.3821 -0.251144 46.241 1.48736L43.2763 11.4785C39.1135 10.2432 34.7048 10.0881 30.4655 11.0276L28.2106 0.852815Z" fill="var(--fill-0, #C4E703)" style="fill:#C4E703;fill:color(display-p3 0.7686 0.9059 0.0118);fill-opacity:1;"/>
</g>
</svg>
