<svg preserveAspectRatio="none" width="100%" height="100%" overflow="visible" style="display: block;" viewBox="0 0 16 12.3429" fill="none" xmlns="http://www.w3.org/2000/svg">
<g id="icon">
<path d="M14.4 0H1.6C1.17639 0.00240009 0.770821 0.171742 0.471281 0.471281C0.171742 0.770821 0.00240009 1.17639 0 1.6V10.7429C0.00240009 11.1665 0.171742 11.572 0.471281 11.8716C0.770821 12.1711 1.17639 12.3405 1.6 12.3429H14.4C14.8236 12.3405 15.2292 12.1711 15.5287 11.8716C15.8283 11.572 15.9976 11.1665 16 10.7429V1.6C15.9976 1.17639 15.8283 0.770821 15.5287 0.471281C15.2292 0.171742 14.8236 0.00240009 14.4 0ZM1.6 1.37143H14.4C14.4606 1.37143 14.5188 1.39551 14.5616 1.43838C14.6045 1.48124 14.6286 1.53938 14.6286 1.6V3.65714H1.37143V1.6C1.37143 1.53938 1.39551 1.48124 1.43838 1.43838C1.48124 1.39551 1.53938 1.37143 1.6 1.37143ZM14.4 10.9714H1.6C1.53938 10.9714 1.48124 10.9473 1.43838 10.9045C1.39551 10.8616 1.37143 10.8035 1.37143 10.7429V5.02857H14.6286V10.7429C14.6286 10.8035 14.6045 10.8616 14.5616 10.9045C14.5188 10.9473 14.4606 10.9714 14.4 10.9714Z" fill="var(--fill-0, #080B12)" style="fill:#080B12;fill:color(display-p3 0.0314 0.0431 0.0706);fill-opacity:1;"/>
<path d="M5.25714 7.08571H3.42857C3.18609 7.08571 2.95354 7.18204 2.78207 7.3535C2.61061 7.52496 2.51429 7.75752 2.51429 8C2.51429 8.24248 2.61061 8.47504 2.78207 8.6465C2.95354 8.81796 3.18609 8.91429 3.42857 8.91429H5.25714C5.49963 8.91429 5.73218 8.81796 5.90364 8.6465C6.0751 8.47504 6.17143 8.24248 6.17143 8C6.17143 7.75752 6.0751 7.52496 5.90364 7.3535C5.73218 7.18204 5.49963 7.08571 5.25714 7.08571Z" fill="var(--fill-0, #080B12)" style="fill:#080B12;fill:color(display-p3 0.0314 0.0431 0.0706);fill-opacity:1;"/>
</g>
</svg>
