<svg preserveAspectRatio="none" width="100%" height="100%" overflow="visible" style="display: block;" viewBox="0 0 24.0082 11.3441" fill="none" xmlns="http://www.w3.org/2000/svg">
<path id="icon" d="M12.0041 11.3441C11.347 11.3453 10.6962 11.2169 10.0888 10.9664C9.48137 10.7159 8.92928 10.3481 8.46409 9.88409L0.294092 1.71409C0.105788 1.52579 0 1.27039 0 1.00409C0 0.73779 0.105788 0.482396 0.294092 0.294092C0.482395 0.105788 0.73779 0 1.00409 0C1.27039 0 1.52579 0.105788 1.71409 0.294092L9.88409 8.46409C10.4466 9.0259 11.2091 9.34145 12.0041 9.34145C12.7991 9.34145 13.5616 9.0259 14.1241 8.46409L22.2941 0.294092C22.4824 0.105788 22.7378 0 23.0041 0C23.2704 0 23.5258 0.105788 23.7141 0.294092C23.9024 0.482396 24.0082 0.73779 24.0082 1.00409C24.0082 1.27039 23.9024 1.52579 23.7141 1.71409L15.5441 9.88409C15.0789 10.3481 14.5268 10.7159 13.9194 10.9664C13.312 11.2169 12.6611 11.3453 12.0041 11.3441V11.3441Z" fill="var(--fill-0, #080B12)" style="fill:#080B12;fill:color(display-p3 0.0314 0.0431 0.0706);fill-opacity:1;"/>
</svg>
